<svg xmlns="http://www.w3.org/2000/svg" xmlns:xlink="http://www.w3.org/1999/xlink" width="500" zoomAndPan="magnify" viewBox="0 0 375 112.499997" height="150" preserveAspectRatio="xMidYMid meet" version="1.0"><defs><filter x="0%" y="0%" width="100%" height="100%" id="fbca25e09b"><feColorMatrix values="0 0 0 0 1 0 0 0 0 1 0 0 0 0 1 0 0 0 1 0" color-interpolation-filters="sRGB"/></filter><g/><clipPath id="19dbf76afd"><path d="M 0.828125 0 L 374.167969 0 L 374.167969 112.003906 L 0.828125 112.003906 Z M 0.828125 0 " clip-rule="nonzero"/></clipPath><mask id="8572b1661a"><g filter="url(#fbca25e09b)"><rect x="-37.5" width="450" fill="#000000" y="-11.25" height="134.999996" fill-opacity="0.55"/></g></mask><clipPath id="3633022d59"><path d="M 0.742188 0.453125 L 46.179688 0.453125 L 46.179688 11.203125 L 0.742188 11.203125 Z M 0.742188 0.453125 " clip-rule="nonzero"/></clipPath><clipPath id="edb59d644f"><rect x="0" width="143" y="0" height="12"/></clipPath><clipPath id="151d6c3cdd"><path d="M 0.253906 3 L 9 3 L 9 9 L 0.253906 9 Z M 0.253906 3 " clip-rule="nonzero"/></clipPath><clipPath id="beec40239e"><path d="M 47 5 L 52 5 L 52 11.601562 L 47 11.601562 Z M 47 5 " clip-rule="nonzero"/></clipPath><clipPath id="356cb4642c"><rect x="0" width="72" y="0" height="12"/></clipPath><clipPath id="e25bbce96d"><path d="M 0.0703125 4 L 9 4 L 9 15 L 0.0703125 15 Z M 0.0703125 4 " clip-rule="nonzero"/></clipPath><clipPath id="a1f4eff759"><rect x="0" width="214" y="0" height="19"/></clipPath><mask id="1aeb29539e"><g filter="url(#fbca25e09b)"><rect x="-37.5" width="450" fill="#000000" y="-11.25" height="134.999996" fill-opacity="0.17"/></g></mask><clipPath id="0d01432f10"><path d="M 0.742188 0.566406 L 46.179688 0.566406 L 46.179688 11.320312 L 0.742188 11.320312 Z M 0.742188 0.566406 " clip-rule="nonzero"/></clipPath><clipPath id="a71456db21"><rect x="0" width="143" y="0" height="12"/></clipPath><clipPath id="aa220e7099"><path d="M 164.628906 41 L 210.179688 41 L 210.179688 53 L 164.628906 53 Z M 164.628906 41 " clip-rule="nonzero"/></clipPath></defs><g clip-path="url(#19dbf76afd)"><path fill="#ffffff" d="M 0.828125 0 L 374.171875 0 L 374.171875 112.003906 L 0.828125 112.003906 Z M 0.828125 0 " fill-opacity="1" fill-rule="nonzero"/><path fill="#a8c1a3" d="M 0.828125 0 L 374.171875 0 L 374.171875 112.003906 L 0.828125 112.003906 Z M 0.828125 0 " fill-opacity="1" fill-rule="nonzero"/></g><g mask="url(#8572b1661a)"><g transform="matrix(1, 0, 0, 1, 164, 33)"><g clip-path="url(#edb59d644f)"><g clip-path="url(#3633022d59)"><path fill="#f8f6f0" d="M 141.984375 6.15625 C 141.832031 5.976562 141.527344 5.945312 141.34375 6.097656 C 132.695312 13.070312 128.492188 9.75 124.046875 6.21875 C 119.722656 2.777344 115.246094 -0.785156 106.808594 5.425781 C 106.746094 5.457031 106.6875 5.488281 106.65625 5.519531 C 98.007812 12.492188 93.804688 9.171875 89.355469 5.640625 C 84.820312 2.046875 80.128906 -1.699219 70.898438 5.761719 C 70.871094 5.792969 70.839844 5.824219 70.808594 5.882812 C 62.707031 12.003906 58.625 8.777344 54.332031 5.335938 C 50.039062 1.894531 45.53125 -1.667969 37.09375 4.542969 C 37.035156 4.574219 36.972656 4.605469 36.910156 4.636719 C 28.261719 11.609375 24.058594 8.289062 19.613281 4.757812 C 15.011719 1.070312 10.324219 -2.644531 1.125 4.789062 C 0.941406 4.941406 0.914062 5.242188 1.066406 5.425781 C 1.21875 5.609375 1.523438 5.640625 1.703125 5.488281 C 10.355469 -1.488281 14.558594 1.832031 19.003906 5.367188 C 21.621094 7.4375 24.273438 9.570312 27.835938 9.570312 C 30.179688 9.570312 32.921875 8.65625 36.273438 6.1875 C 36.332031 6.15625 36.394531 6.15625 36.453125 6.097656 C 45.105469 -0.878906 49.308594 2.441406 53.753906 5.976562 C 56.371094 8.046875 59.023438 10.179688 62.585938 10.179688 C 65.203125 10.179688 68.3125 9.019531 72.210938 5.882812 C 72.242188 5.851562 72.269531 5.824219 72.300781 5.761719 C 80.402344 -0.359375 84.484375 2.867188 88.777344 6.28125 C 91.398438 8.351562 94.046875 10.484375 97.609375 10.484375 C 99.957031 10.484375 102.664062 9.570312 106.046875 7.101562 C 106.109375 7.070312 106.167969 7.042969 106.199219 7.011719 C 114.847656 0.0351562 119.050781 3.355469 123.496094 6.890625 C 126.117188 8.960938 128.765625 11.089844 132.332031 11.089844 C 134.949219 11.089844 138.054688 9.933594 141.953125 6.796875 C 142.105469 6.644531 142.136719 6.371094 141.984375 6.15625 Z M 141.984375 6.15625 " fill-opacity="1" fill-rule="nonzero"/></g></g></g></g><g transform="matrix(1, 0, 0, 1, 148, 78)"><g clip-path="url(#356cb4642c)"><g clip-path="url(#151d6c3cdd)"><g fill="#f8f6f0" fill-opacity="1"><g transform="translate(0.432467, 8.966246)"><g><path d="M 8.28125 -5.53125 C 8.289062 -5.53125 8.296875 -5.515625 8.296875 -5.484375 C 8.296875 -5.453125 8.289062 -5.4375 8.28125 -5.4375 C 8.082031 -5.4375 7.910156 -5.378906 7.765625 -5.265625 C 7.617188 -5.160156 7.488281 -4.984375 7.375 -4.734375 L 5.5 -0.015625 C 5.488281 0.015625 5.453125 0.03125 5.390625 0.03125 C 5.347656 0.03125 5.316406 0.015625 5.296875 -0.015625 L 4.140625 -2.515625 L 3.140625 -0.015625 C 3.140625 0.015625 3.109375 0.03125 3.046875 0.03125 C 3.003906 0.03125 2.972656 0.015625 2.953125 -0.015625 L 0.75 -4.796875 C 0.632812 -5.035156 0.523438 -5.203125 0.421875 -5.296875 C 0.316406 -5.390625 0.171875 -5.4375 -0.015625 -5.4375 C -0.0234375 -5.4375 -0.03125 -5.453125 -0.03125 -5.484375 C -0.03125 -5.515625 -0.0234375 -5.53125 -0.015625 -5.53125 L 0.328125 -5.53125 C 0.492188 -5.519531 0.625 -5.515625 0.71875 -5.515625 C 0.9375 -5.515625 1.171875 -5.519531 1.421875 -5.53125 L 1.78125 -5.53125 C 1.800781 -5.53125 1.8125 -5.515625 1.8125 -5.484375 C 1.8125 -5.453125 1.800781 -5.4375 1.78125 -5.4375 C 1.601562 -5.4375 1.472656 -5.414062 1.390625 -5.375 C 1.304688 -5.332031 1.265625 -5.257812 1.265625 -5.15625 C 1.265625 -5.0625 1.289062 -4.957031 1.34375 -4.84375 L 3.234375 -0.78125 L 4.03125 -2.765625 L 3.09375 -4.796875 C 2.988281 -5.023438 2.882812 -5.1875 2.78125 -5.28125 C 2.675781 -5.382812 2.535156 -5.4375 2.359375 -5.4375 C 2.347656 -5.4375 2.34375 -5.453125 2.34375 -5.484375 C 2.34375 -5.515625 2.347656 -5.53125 2.359375 -5.53125 L 2.6875 -5.53125 C 2.851562 -5.519531 2.984375 -5.515625 3.078125 -5.515625 C 3.242188 -5.515625 3.414062 -5.519531 3.59375 -5.53125 L 3.84375 -5.53125 C 3.863281 -5.53125 3.875 -5.515625 3.875 -5.484375 C 3.875 -5.453125 3.863281 -5.4375 3.84375 -5.4375 C 3.726562 -5.4375 3.648438 -5.425781 3.609375 -5.40625 C 3.566406 -5.382812 3.546875 -5.347656 3.546875 -5.296875 C 3.546875 -5.222656 3.597656 -5.070312 3.703125 -4.84375 L 4.34375 -3.453125 L 4.875 -4.78125 C 4.9375 -4.957031 4.96875 -5.085938 4.96875 -5.171875 C 4.96875 -5.265625 4.9375 -5.332031 4.875 -5.375 C 4.820312 -5.414062 4.726562 -5.4375 4.59375 -5.4375 C 4.582031 -5.4375 4.578125 -5.453125 4.578125 -5.484375 C 4.578125 -5.515625 4.582031 -5.53125 4.59375 -5.53125 L 4.796875 -5.53125 C 4.921875 -5.519531 5.046875 -5.515625 5.171875 -5.515625 C 5.285156 -5.515625 5.421875 -5.519531 5.578125 -5.53125 L 5.9375 -5.53125 C 5.957031 -5.53125 5.96875 -5.515625 5.96875 -5.484375 C 5.96875 -5.453125 5.957031 -5.4375 5.9375 -5.4375 C 5.738281 -5.4375 5.566406 -5.382812 5.421875 -5.28125 C 5.285156 -5.175781 5.164062 -4.992188 5.0625 -4.734375 L 4.46875 -3.21875 L 5.59375 -0.78125 L 7.171875 -4.75 C 7.222656 -4.875 7.25 -4.976562 7.25 -5.0625 C 7.25 -5.1875 7.191406 -5.28125 7.078125 -5.34375 C 6.972656 -5.40625 6.804688 -5.4375 6.578125 -5.4375 C 6.566406 -5.4375 6.5625 -5.453125 6.5625 -5.484375 C 6.5625 -5.515625 6.566406 -5.53125 6.578125 -5.53125 L 6.953125 -5.53125 C 7.140625 -5.519531 7.316406 -5.515625 7.484375 -5.515625 C 7.609375 -5.515625 7.75 -5.519531 7.90625 -5.53125 Z M 8.28125 -5.53125 "/></g></g></g></g><g fill="#f8f6f0" fill-opacity="1"><g transform="translate(8.673249, 8.966246)"><g><path d="M 3.1875 -0.5 C 3.195312 -0.5 3.207031 -0.488281 3.21875 -0.46875 C 3.238281 -0.445312 3.242188 -0.425781 3.234375 -0.40625 C 2.847656 -0.0625 2.414062 0.109375 1.9375 0.109375 C 1.59375 0.109375 1.300781 0.03125 1.0625 -0.125 C 0.820312 -0.289062 0.632812 -0.503906 0.5 -0.765625 C 0.375 -1.023438 0.3125 -1.300781 0.3125 -1.59375 C 0.3125 -1.945312 0.394531 -2.269531 0.5625 -2.5625 C 0.726562 -2.851562 0.953125 -3.082031 1.234375 -3.25 C 1.523438 -3.414062 1.84375 -3.5 2.1875 -3.5 C 2.519531 -3.5 2.773438 -3.410156 2.953125 -3.234375 C 3.128906 -3.054688 3.21875 -2.804688 3.21875 -2.484375 C 3.21875 -2.398438 3.207031 -2.34375 3.1875 -2.3125 C 3.175781 -2.28125 3.15625 -2.265625 3.125 -2.265625 L 0.921875 -2.25 C 0.910156 -2.125 0.90625 -2.019531 0.90625 -1.9375 C 0.90625 -1.414062 1.023438 -0.992188 1.265625 -0.671875 C 1.503906 -0.359375 1.84375 -0.203125 2.28125 -0.203125 C 2.457031 -0.203125 2.609375 -0.222656 2.734375 -0.265625 C 2.867188 -0.316406 3.015625 -0.394531 3.171875 -0.5 Z M 1.890625 -3.328125 C 1.640625 -3.328125 1.429688 -3.238281 1.265625 -3.0625 C 1.097656 -2.894531 0.988281 -2.660156 0.9375 -2.359375 L 2.625 -2.40625 C 2.625 -2.707031 2.554688 -2.9375 2.421875 -3.09375 C 2.296875 -3.25 2.117188 -3.328125 1.890625 -3.328125 Z M 1.890625 -3.328125 "/></g></g></g><g fill="#f8f6f0" fill-opacity="1"><g transform="translate(12.284676, 8.966246)"><g><path d="M 0.359375 0 C 0.335938 0 0.328125 -0.015625 0.328125 -0.046875 C 0.328125 -0.0859375 0.335938 -0.109375 0.359375 -0.109375 C 0.515625 -0.109375 0.628906 -0.125 0.703125 -0.15625 C 0.785156 -0.1875 0.835938 -0.242188 0.859375 -0.328125 C 0.890625 -0.410156 0.90625 -0.539062 0.90625 -0.71875 L 0.90625 -5.296875 C 0.90625 -5.503906 0.882812 -5.65625 0.84375 -5.75 C 0.800781 -5.851562 0.726562 -5.90625 0.625 -5.90625 C 0.539062 -5.90625 0.40625 -5.863281 0.21875 -5.78125 L 0.203125 -5.78125 C 0.179688 -5.78125 0.164062 -5.789062 0.15625 -5.8125 C 0.15625 -5.84375 0.160156 -5.863281 0.171875 -5.875 L 1.3125 -6.421875 C 1.320312 -6.421875 1.335938 -6.421875 1.359375 -6.421875 C 1.367188 -6.421875 1.382812 -6.410156 1.40625 -6.390625 C 1.425781 -6.378906 1.4375 -6.367188 1.4375 -6.359375 L 1.4375 -0.71875 C 1.4375 -0.539062 1.445312 -0.410156 1.46875 -0.328125 C 1.5 -0.253906 1.550781 -0.195312 1.625 -0.15625 C 1.707031 -0.125 1.828125 -0.109375 1.984375 -0.109375 C 2.003906 -0.109375 2.015625 -0.0859375 2.015625 -0.046875 C 2.015625 -0.015625 2.003906 0 1.984375 0 C 1.859375 0 1.753906 -0.00390625 1.671875 -0.015625 L 0.6875 -0.015625 C 0.601562 -0.00390625 0.492188 0 0.359375 0 Z M 0.359375 0 "/></g></g></g><g fill="#f8f6f0" fill-opacity="1"><g transform="translate(14.568373, 8.966246)"><g><path d="M 0.359375 0 C 0.335938 0 0.328125 -0.015625 0.328125 -0.046875 C 0.328125 -0.0859375 0.335938 -0.109375 0.359375 -0.109375 C 0.515625 -0.109375 0.628906 -0.125 0.703125 -0.15625 C 0.785156 -0.1875 0.835938 -0.242188 0.859375 -0.328125 C 0.890625 -0.410156 0.90625 -0.539062 0.90625 -0.71875 L 0.90625 -5.296875 C 0.90625 -5.503906 0.882812 -5.65625 0.84375 -5.75 C 0.800781 -5.851562 0.726562 -5.90625 0.625 -5.90625 C 0.539062 -5.90625 0.40625 -5.863281 0.21875 -5.78125 L 0.203125 -5.78125 C 0.179688 -5.78125 0.164062 -5.789062 0.15625 -5.8125 C 0.15625 -5.84375 0.160156 -5.863281 0.171875 -5.875 L 1.3125 -6.421875 C 1.320312 -6.421875 1.335938 -6.421875 1.359375 -6.421875 C 1.367188 -6.421875 1.382812 -6.410156 1.40625 -6.390625 C 1.425781 -6.378906 1.4375 -6.367188 1.4375 -6.359375 L 1.4375 -0.71875 C 1.4375 -0.539062 1.445312 -0.410156 1.46875 -0.328125 C 1.5 -0.253906 1.550781 -0.195312 1.625 -0.15625 C 1.707031 -0.125 1.828125 -0.109375 1.984375 -0.109375 C 2.003906 -0.109375 2.015625 -0.0859375 2.015625 -0.046875 C 2.015625 -0.015625 2.003906 0 1.984375 0 C 1.859375 0 1.753906 -0.00390625 1.671875 -0.015625 L 0.6875 -0.015625 C 0.601562 -0.00390625 0.492188 0 0.359375 0 Z M 0.359375 0 "/></g></g></g><g fill="#f8f6f0" fill-opacity="1"><g transform="translate(16.85207, 8.966246)"><g><path d="M 4.390625 -0.109375 C 4.398438 -0.109375 4.40625 -0.0859375 4.40625 -0.046875 C 4.40625 -0.015625 4.398438 0 4.390625 0 C 4.253906 0 4.144531 -0.00390625 4.0625 -0.015625 L 3.09375 -0.015625 C 3.019531 -0.00390625 2.914062 0 2.78125 0 C 2.757812 0 2.75 -0.015625 2.75 -0.046875 C 2.75 -0.0859375 2.757812 -0.109375 2.78125 -0.109375 C 2.9375 -0.109375 3.050781 -0.125 3.125 -0.15625 C 3.207031 -0.1875 3.257812 -0.242188 3.28125 -0.328125 C 3.3125 -0.410156 3.328125 -0.539062 3.328125 -0.71875 L 3.328125 -2.15625 C 3.328125 -2.5 3.257812 -2.753906 3.125 -2.921875 C 3 -3.085938 2.796875 -3.171875 2.515625 -3.171875 C 2.328125 -3.171875 2.140625 -3.117188 1.953125 -3.015625 C 1.773438 -2.921875 1.609375 -2.789062 1.453125 -2.625 L 1.453125 -0.71875 C 1.453125 -0.539062 1.460938 -0.410156 1.484375 -0.328125 C 1.515625 -0.242188 1.566406 -0.1875 1.640625 -0.15625 C 1.722656 -0.125 1.84375 -0.109375 2 -0.109375 C 2.019531 -0.109375 2.03125 -0.0859375 2.03125 -0.046875 C 2.03125 -0.015625 2.019531 0 2 0 C 1.863281 0 1.757812 -0.00390625 1.6875 -0.015625 L 0.71875 -0.015625 C 0.644531 -0.00390625 0.539062 0 0.40625 0 C 0.382812 0 0.375 -0.015625 0.375 -0.046875 C 0.375 -0.0859375 0.382812 -0.109375 0.40625 -0.109375 C 0.5625 -0.109375 0.675781 -0.125 0.75 -0.15625 C 0.832031 -0.1875 0.882812 -0.242188 0.90625 -0.328125 C 0.9375 -0.410156 0.953125 -0.539062 0.953125 -0.71875 L 0.953125 -2.46875 C 0.953125 -2.664062 0.925781 -2.804688 0.875 -2.890625 C 0.832031 -2.984375 0.753906 -3.03125 0.640625 -3.03125 C 0.546875 -3.03125 0.382812 -2.988281 0.15625 -2.90625 L 0.140625 -2.90625 C 0.117188 -2.90625 0.101562 -2.914062 0.09375 -2.9375 C 0.0820312 -2.96875 0.0859375 -2.988281 0.109375 -3 L 1.140625 -3.484375 L 1.203125 -3.5 C 1.253906 -3.5 1.304688 -3.429688 1.359375 -3.296875 C 1.421875 -3.160156 1.453125 -2.984375 1.453125 -2.765625 C 1.679688 -3.023438 1.90625 -3.21875 2.125 -3.34375 C 2.34375 -3.46875 2.570312 -3.53125 2.8125 -3.53125 C 3.132812 -3.53125 3.382812 -3.4375 3.5625 -3.25 C 3.75 -3.070312 3.84375 -2.804688 3.84375 -2.453125 L 3.84375 -0.71875 C 3.84375 -0.539062 3.851562 -0.410156 3.875 -0.328125 C 3.90625 -0.242188 3.957031 -0.1875 4.03125 -0.15625 C 4.101562 -0.125 4.222656 -0.109375 4.390625 -0.109375 Z M 4.390625 -0.109375 "/></g></g></g><g fill="#f8f6f0" fill-opacity="1"><g transform="translate(21.428315, 8.966246)"><g><path d="M 3.1875 -0.5 C 3.195312 -0.5 3.207031 -0.488281 3.21875 -0.46875 C 3.238281 -0.445312 3.242188 -0.425781 3.234375 -0.40625 C 2.847656 -0.0625 2.414062 0.109375 1.9375 0.109375 C 1.59375 0.109375 1.300781 0.03125 1.0625 -0.125 C 0.820312 -0.289062 0.632812 -0.503906 0.5 -0.765625 C 0.375 -1.023438 0.3125 -1.300781 0.3125 -1.59375 C 0.3125 -1.945312 0.394531 -2.269531 0.5625 -2.5625 C 0.726562 -2.851562 0.953125 -3.082031 1.234375 -3.25 C 1.523438 -3.414062 1.84375 -3.5 2.1875 -3.5 C 2.519531 -3.5 2.773438 -3.410156 2.953125 -3.234375 C 3.128906 -3.054688 3.21875 -2.804688 3.21875 -2.484375 C 3.21875 -2.398438 3.207031 -2.34375 3.1875 -2.3125 C 3.175781 -2.28125 3.15625 -2.265625 3.125 -2.265625 L 0.921875 -2.25 C 0.910156 -2.125 0.90625 -2.019531 0.90625 -1.9375 C 0.90625 -1.414062 1.023438 -0.992188 1.265625 -0.671875 C 1.503906 -0.359375 1.84375 -0.203125 2.28125 -0.203125 C 2.457031 -0.203125 2.609375 -0.222656 2.734375 -0.265625 C 2.867188 -0.316406 3.015625 -0.394531 3.171875 -0.5 Z M 1.890625 -3.328125 C 1.640625 -3.328125 1.429688 -3.238281 1.265625 -3.0625 C 1.097656 -2.894531 0.988281 -2.660156 0.9375 -2.359375 L 2.625 -2.40625 C 2.625 -2.707031 2.554688 -2.9375 2.421875 -3.09375 C 2.296875 -3.25 2.117188 -3.328125 1.890625 -3.328125 Z M 1.890625 -3.328125 "/></g></g></g><g fill="#f8f6f0" fill-opacity="1"><g transform="translate(25.039742, 8.966246)"><g><path d="M 0.890625 -2.875 C 0.890625 -2.664062 0.957031 -2.5 1.09375 -2.375 C 1.226562 -2.257812 1.425781 -2.132812 1.6875 -2 C 1.894531 -1.894531 2.054688 -1.800781 2.171875 -1.71875 C 2.285156 -1.644531 2.382812 -1.546875 2.46875 -1.421875 C 2.550781 -1.296875 2.59375 -1.144531 2.59375 -0.96875 C 2.59375 -0.664062 2.476562 -0.410156 2.25 -0.203125 C 2.03125 -0.00390625 1.726562 0.09375 1.34375 0.09375 C 1.03125 0.09375 0.75 0.00390625 0.5 -0.171875 C 0.457031 -0.191406 0.4375 -0.226562 0.4375 -0.28125 L 0.421875 -0.96875 C 0.421875 -0.988281 0.4375 -1 0.46875 -1 C 0.5 -1 0.519531 -0.988281 0.53125 -0.96875 C 0.644531 -0.675781 0.789062 -0.453125 0.96875 -0.296875 C 1.144531 -0.148438 1.351562 -0.078125 1.59375 -0.078125 C 1.789062 -0.078125 1.9375 -0.125 2.03125 -0.21875 C 2.132812 -0.3125 2.179688 -0.445312 2.171875 -0.625 C 2.160156 -0.851562 2.085938 -1.023438 1.953125 -1.140625 C 1.828125 -1.265625 1.628906 -1.394531 1.359375 -1.53125 C 1.171875 -1.625 1.015625 -1.707031 0.890625 -1.78125 C 0.773438 -1.851562 0.675781 -1.953125 0.59375 -2.078125 C 0.519531 -2.203125 0.484375 -2.359375 0.484375 -2.546875 C 0.484375 -2.859375 0.601562 -3.097656 0.84375 -3.265625 C 1.082031 -3.441406 1.363281 -3.53125 1.6875 -3.53125 C 1.925781 -3.53125 2.144531 -3.484375 2.34375 -3.390625 C 2.375 -3.378906 2.394531 -3.363281 2.40625 -3.34375 C 2.414062 -3.332031 2.421875 -3.316406 2.421875 -3.296875 C 2.421875 -3.179688 2.414062 -3.085938 2.40625 -3.015625 L 2.40625 -2.65625 C 2.40625 -2.632812 2.382812 -2.625 2.34375 -2.625 C 2.3125 -2.625 2.296875 -2.632812 2.296875 -2.65625 C 2.296875 -2.769531 2.25 -2.878906 2.15625 -2.984375 C 2.0625 -3.097656 1.941406 -3.1875 1.796875 -3.25 C 1.648438 -3.320312 1.507812 -3.359375 1.375 -3.359375 C 1.226562 -3.359375 1.109375 -3.316406 1.015625 -3.234375 C 0.929688 -3.160156 0.890625 -3.039062 0.890625 -2.875 Z M 0.890625 -2.875 "/></g></g></g><g fill="#f8f6f0" fill-opacity="1"><g transform="translate(28.031562, 8.966246)"><g><path d="M 0.890625 -2.875 C 0.890625 -2.664062 0.957031 -2.5 1.09375 -2.375 C 1.226562 -2.257812 1.425781 -2.132812 1.6875 -2 C 1.894531 -1.894531 2.054688 -1.800781 2.171875 -1.71875 C 2.285156 -1.644531 2.382812 -1.546875 2.46875 -1.421875 C 2.550781 -1.296875 2.59375 -1.144531 2.59375 -0.96875 C 2.59375 -0.664062 2.476562 -0.410156 2.25 -0.203125 C 2.03125 -0.00390625 1.726562 0.09375 1.34375 0.09375 C 1.03125 0.09375 0.75 0.00390625 0.5 -0.171875 C 0.457031 -0.191406 0.4375 -0.226562 0.4375 -0.28125 L 0.421875 -0.96875 C 0.421875 -0.988281 0.4375 -1 0.46875 -1 C 0.5 -1 0.519531 -0.988281 0.53125 -0.96875 C 0.644531 -0.675781 0.789062 -0.453125 0.96875 -0.296875 C 1.144531 -0.148438 1.351562 -0.078125 1.59375 -0.078125 C 1.789062 -0.078125 1.9375 -0.125 2.03125 -0.21875 C 2.132812 -0.3125 2.179688 -0.445312 2.171875 -0.625 C 2.160156 -0.851562 2.085938 -1.023438 1.953125 -1.140625 C 1.828125 -1.265625 1.628906 -1.394531 1.359375 -1.53125 C 1.171875 -1.625 1.015625 -1.707031 0.890625 -1.78125 C 0.773438 -1.851562 0.675781 -1.953125 0.59375 -2.078125 C 0.519531 -2.203125 0.484375 -2.359375 0.484375 -2.546875 C 0.484375 -2.859375 0.601562 -3.097656 0.84375 -3.265625 C 1.082031 -3.441406 1.363281 -3.53125 1.6875 -3.53125 C 1.925781 -3.53125 2.144531 -3.484375 2.34375 -3.390625 C 2.375 -3.378906 2.394531 -3.363281 2.40625 -3.34375 C 2.414062 -3.332031 2.421875 -3.316406 2.421875 -3.296875 C 2.421875 -3.179688 2.414062 -3.085938 2.40625 -3.015625 L 2.40625 -2.65625 C 2.40625 -2.632812 2.382812 -2.625 2.34375 -2.625 C 2.3125 -2.625 2.296875 -2.632812 2.296875 -2.65625 C 2.296875 -2.769531 2.25 -2.878906 2.15625 -2.984375 C 2.0625 -3.097656 1.941406 -3.1875 1.796875 -3.25 C 1.648438 -3.320312 1.507812 -3.359375 1.375 -3.359375 C 1.226562 -3.359375 1.109375 -3.316406 1.015625 -3.234375 C 0.929688 -3.160156 0.890625 -3.039062 0.890625 -2.875 Z M 0.890625 -2.875 "/></g></g></g><g fill="#f8f6f0" fill-opacity="1"><g transform="translate(31.02338, 8.966246)"><g><path d="M 0.90625 -0.625 C 1.082031 -0.625 1.21875 -0.554688 1.3125 -0.421875 C 1.414062 -0.296875 1.46875 -0.109375 1.46875 0.140625 C 1.46875 0.378906 1.414062 0.597656 1.3125 0.796875 C 1.207031 1.003906 1.050781 1.207031 0.84375 1.40625 C 0.832031 1.414062 0.820312 1.421875 0.8125 1.421875 C 0.789062 1.421875 0.773438 1.410156 0.765625 1.390625 C 0.753906 1.367188 0.753906 1.351562 0.765625 1.34375 C 1.054688 1.050781 1.203125 0.703125 1.203125 0.296875 C 1.203125 0.128906 1.171875 0.0078125 1.109375 -0.0625 C 1.054688 0.03125 0.96875 0.078125 0.84375 0.078125 C 0.738281 0.078125 0.65625 0.046875 0.59375 -0.015625 C 0.53125 -0.0859375 0.5 -0.175781 0.5 -0.28125 C 0.5 -0.507812 0.632812 -0.625 0.90625 -0.625 Z M 0.90625 -0.625 "/></g></g></g><g fill="#f8f6f0" fill-opacity="1"><g transform="translate(32.988422, 8.966246)"><g/></g></g><g fill="#f8f6f0" fill-opacity="1"><g transform="translate(35.059685, 8.966246)"><g><path d="M 0.890625 -2.875 C 0.890625 -2.664062 0.957031 -2.5 1.09375 -2.375 C 1.226562 -2.257812 1.425781 -2.132812 1.6875 -2 C 1.894531 -1.894531 2.054688 -1.800781 2.171875 -1.71875 C 2.285156 -1.644531 2.382812 -1.546875 2.46875 -1.421875 C 2.550781 -1.296875 2.59375 -1.144531 2.59375 -0.96875 C 2.59375 -0.664062 2.476562 -0.410156 2.25 -0.203125 C 2.03125 -0.00390625 1.726562 0.09375 1.34375 0.09375 C 1.03125 0.09375 0.75 0.00390625 0.5 -0.171875 C 0.457031 -0.191406 0.4375 -0.226562 0.4375 -0.28125 L 0.421875 -0.96875 C 0.421875 -0.988281 0.4375 -1 0.46875 -1 C 0.5 -1 0.519531 -0.988281 0.53125 -0.96875 C 0.644531 -0.675781 0.789062 -0.453125 0.96875 -0.296875 C 1.144531 -0.148438 1.351562 -0.078125 1.59375 -0.078125 C 1.789062 -0.078125 1.9375 -0.125 2.03125 -0.21875 C 2.132812 -0.3125 2.179688 -0.445312 2.171875 -0.625 C 2.160156 -0.851562 2.085938 -1.023438 1.953125 -1.140625 C 1.828125 -1.265625 1.628906 -1.394531 1.359375 -1.53125 C 1.171875 -1.625 1.015625 -1.707031 0.890625 -1.78125 C 0.773438 -1.851562 0.675781 -1.953125 0.59375 -2.078125 C 0.519531 -2.203125 0.484375 -2.359375 0.484375 -2.546875 C 0.484375 -2.859375 0.601562 -3.097656 0.84375 -3.265625 C 1.082031 -3.441406 1.363281 -3.53125 1.6875 -3.53125 C 1.925781 -3.53125 2.144531 -3.484375 2.34375 -3.390625 C 2.375 -3.378906 2.394531 -3.363281 2.40625 -3.34375 C 2.414062 -3.332031 2.421875 -3.316406 2.421875 -3.296875 C 2.421875 -3.179688 2.414062 -3.085938 2.40625 -3.015625 L 2.40625 -2.65625 C 2.40625 -2.632812 2.382812 -2.625 2.34375 -2.625 C 2.3125 -2.625 2.296875 -2.632812 2.296875 -2.65625 C 2.296875 -2.769531 2.25 -2.878906 2.15625 -2.984375 C 2.0625 -3.097656 1.941406 -3.1875 1.796875 -3.25 C 1.648438 -3.320312 1.507812 -3.359375 1.375 -3.359375 C 1.226562 -3.359375 1.109375 -3.316406 1.015625 -3.234375 C 0.929688 -3.160156 0.890625 -3.039062 0.890625 -2.875 Z M 0.890625 -2.875 "/></g></g></g><g fill="#f8f6f0" fill-opacity="1"><g transform="translate(38.051503, 8.966246)"><g><path d="M 1.21875 -4.53125 C 1.09375 -4.53125 0.992188 -4.5625 0.921875 -4.625 C 0.859375 -4.695312 0.828125 -4.789062 0.828125 -4.90625 C 0.828125 -5.019531 0.859375 -5.109375 0.921875 -5.171875 C 0.992188 -5.242188 1.09375 -5.28125 1.21875 -5.28125 C 1.332031 -5.28125 1.421875 -5.242188 1.484375 -5.171875 C 1.546875 -5.109375 1.578125 -5.019531 1.578125 -4.90625 C 1.578125 -4.789062 1.546875 -4.695312 1.484375 -4.625 C 1.421875 -4.5625 1.332031 -4.53125 1.21875 -4.53125 Z M 0.46875 0 C 0.457031 0 0.453125 -0.015625 0.453125 -0.046875 C 0.453125 -0.0859375 0.457031 -0.109375 0.46875 -0.109375 C 0.625 -0.109375 0.742188 -0.125 0.828125 -0.15625 C 0.910156 -0.1875 0.960938 -0.242188 0.984375 -0.328125 C 1.015625 -0.410156 1.03125 -0.539062 1.03125 -0.71875 L 1.03125 -2.375 C 1.03125 -2.582031 1.007812 -2.734375 0.96875 -2.828125 C 0.925781 -2.929688 0.851562 -2.984375 0.75 -2.984375 C 0.632812 -2.984375 0.5 -2.941406 0.34375 -2.859375 C 0.3125 -2.859375 0.289062 -2.867188 0.28125 -2.890625 C 0.269531 -2.921875 0.273438 -2.941406 0.296875 -2.953125 L 1.4375 -3.484375 L 1.484375 -3.5 C 1.492188 -3.5 1.503906 -3.488281 1.515625 -3.46875 C 1.535156 -3.457031 1.546875 -3.441406 1.546875 -3.421875 C 1.546875 -3.378906 1.539062 -3.257812 1.53125 -3.0625 C 1.53125 -2.875 1.53125 -2.648438 1.53125 -2.390625 L 1.53125 -0.71875 C 1.53125 -0.539062 1.546875 -0.410156 1.578125 -0.328125 C 1.609375 -0.242188 1.660156 -0.1875 1.734375 -0.15625 C 1.816406 -0.125 1.9375 -0.109375 2.09375 -0.109375 C 2.113281 -0.109375 2.125 -0.0859375 2.125 -0.046875 C 2.125 -0.015625 2.113281 0 2.09375 0 C 1.957031 0 1.847656 -0.00390625 1.765625 -0.015625 L 0.8125 -0.015625 C 0.726562 -0.00390625 0.613281 0 0.46875 0 Z M 0.46875 0 "/></g></g></g><g fill="#f8f6f0" fill-opacity="1"><g transform="translate(40.467972, 8.966246)"><g><path d="M 6.578125 -0.109375 C 6.597656 -0.109375 6.609375 -0.0859375 6.609375 -0.046875 C 6.609375 -0.015625 6.597656 0 6.578125 0 C 6.441406 0 6.332031 -0.00390625 6.25 -0.015625 L 5.28125 -0.015625 C 5.207031 -0.00390625 5.101562 0 4.96875 0 C 4.945312 0 4.9375 -0.015625 4.9375 -0.046875 C 4.9375 -0.0859375 4.945312 -0.109375 4.96875 -0.109375 C 5.125 -0.109375 5.238281 -0.125 5.3125 -0.15625 C 5.394531 -0.1875 5.445312 -0.242188 5.46875 -0.328125 C 5.5 -0.410156 5.515625 -0.539062 5.515625 -0.71875 L 5.515625 -2.125 C 5.515625 -2.476562 5.453125 -2.738281 5.328125 -2.90625 C 5.203125 -3.070312 5.007812 -3.15625 4.75 -3.15625 C 4.570312 -3.15625 4.394531 -3.101562 4.21875 -3 C 4.039062 -2.90625 3.875 -2.769531 3.71875 -2.59375 C 3.726562 -2.5625 3.734375 -2.515625 3.734375 -2.453125 L 3.734375 -0.71875 C 3.734375 -0.539062 3.742188 -0.410156 3.765625 -0.328125 C 3.796875 -0.242188 3.847656 -0.1875 3.921875 -0.15625 C 4.003906 -0.125 4.125 -0.109375 4.28125 -0.109375 C 4.300781 -0.109375 4.3125 -0.0859375 4.3125 -0.046875 C 4.3125 -0.015625 4.300781 0 4.28125 0 C 4.144531 0 4.035156 -0.00390625 3.953125 -0.015625 L 3 -0.015625 C 2.914062 -0.00390625 2.804688 0 2.671875 0 C 2.660156 0 2.65625 -0.015625 2.65625 -0.046875 C 2.65625 -0.0859375 2.660156 -0.109375 2.671875 -0.109375 C 2.835938 -0.109375 2.957031 -0.125 3.03125 -0.15625 C 3.101562 -0.1875 3.148438 -0.242188 3.171875 -0.328125 C 3.203125 -0.410156 3.21875 -0.539062 3.21875 -0.71875 L 3.21875 -2.125 C 3.21875 -2.476562 3.15625 -2.738281 3.03125 -2.90625 C 2.914062 -3.070312 2.726562 -3.15625 2.46875 -3.15625 C 2.289062 -3.15625 2.113281 -3.109375 1.9375 -3.015625 C 1.757812 -2.921875 1.597656 -2.785156 1.453125 -2.609375 L 1.453125 -0.71875 C 1.453125 -0.539062 1.460938 -0.410156 1.484375 -0.328125 C 1.515625 -0.242188 1.566406 -0.1875 1.640625 -0.15625 C 1.722656 -0.125 1.84375 -0.109375 2 -0.109375 C 2.019531 -0.109375 2.03125 -0.0859375 2.03125 -0.046875 C 2.03125 -0.015625 2.019531 0 2 0 C 1.863281 0 1.757812 -0.00390625 1.6875 -0.015625 L 0.71875 -0.015625 C 0.644531 -0.00390625 0.539062 0 0.40625 0 C 0.382812 0 0.375 -0.015625 0.375 -0.046875 C 0.375 -0.0859375 0.382812 -0.109375 0.40625 -0.109375 C 0.5625 -0.109375 0.675781 -0.125 0.75 -0.15625 C 0.832031 -0.1875 0.882812 -0.242188 0.90625 -0.328125 C 0.9375 -0.410156 0.953125 -0.539062 0.953125 -0.71875 L 0.953125 -2.46875 C 0.953125 -2.664062 0.925781 -2.804688 0.875 -2.890625 C 0.832031 -2.984375 0.753906 -3.03125 0.640625 -3.03125 C 0.546875 -3.03125 0.382812 -2.988281 0.15625 -2.90625 L 0.140625 -2.90625 C 0.117188 -2.90625 0.101562 -2.914062 0.09375 -2.9375 C 0.0820312 -2.96875 0.0859375 -2.988281 0.109375 -3 L 1.140625 -3.484375 L 1.203125 -3.5 C 1.253906 -3.5 1.304688 -3.429688 1.359375 -3.296875 C 1.421875 -3.160156 1.453125 -2.984375 1.453125 -2.765625 C 1.660156 -3.023438 1.867188 -3.210938 2.078125 -3.328125 C 2.296875 -3.453125 2.519531 -3.515625 2.75 -3.515625 C 3.019531 -3.515625 3.238281 -3.445312 3.40625 -3.3125 C 3.570312 -3.1875 3.675781 -2.992188 3.71875 -2.734375 C 3.9375 -2.992188 4.15625 -3.1875 4.375 -3.3125 C 4.59375 -3.445312 4.816406 -3.515625 5.046875 -3.515625 C 5.359375 -3.515625 5.597656 -3.421875 5.765625 -3.234375 C 5.941406 -3.054688 6.03125 -2.789062 6.03125 -2.4375 L 6.03125 -0.71875 C 6.03125 -0.539062 6.039062 -0.410156 6.0625 -0.328125 C 6.09375 -0.242188 6.144531 -0.1875 6.21875 -0.15625 C 6.289062 -0.125 6.410156 -0.109375 6.578125 -0.109375 Z M 6.578125 -0.109375 "/></g></g></g><g clip-path="url(#beec40239e)"><g fill="#f8f6f0" fill-opacity="1"><g transform="translate(47.221695, 8.966246)"><g><path d="M 2.828125 -3.53125 C 3.066406 -3.53125 3.289062 -3.460938 3.5 -3.328125 C 3.707031 -3.203125 3.875 -3.015625 4 -2.765625 C 4.125 -2.523438 4.1875 -2.238281 4.1875 -1.90625 C 4.1875 -1.457031 4.082031 -1.082031 3.875 -0.78125 C 3.675781 -0.476562 3.429688 -0.253906 3.140625 -0.109375 C 2.847656 0.0351562 2.5625 0.109375 2.28125 0.109375 C 2.09375 0.109375 1.925781 0.09375 1.78125 0.0625 C 1.632812 0.03125 1.488281 -0.0234375 1.34375 -0.109375 L 1.34375 1.71875 C 1.34375 1.894531 1.363281 2.023438 1.40625 2.109375 C 1.445312 2.191406 1.53125 2.25 1.65625 2.28125 C 1.78125 2.3125 1.96875 2.328125 2.21875 2.328125 C 2.226562 2.328125 2.234375 2.34375 2.234375 2.375 C 2.234375 2.414062 2.226562 2.4375 2.21875 2.4375 C 2.019531 2.4375 1.863281 2.429688 1.75 2.421875 L 0.609375 2.421875 C 0.523438 2.429688 0.414062 2.4375 0.28125 2.4375 C 0.257812 2.4375 0.25 2.414062 0.25 2.375 C 0.25 2.34375 0.257812 2.328125 0.28125 2.328125 C 0.4375 2.328125 0.550781 2.3125 0.625 2.28125 C 0.707031 2.25 0.765625 2.191406 0.796875 2.109375 C 0.828125 2.023438 0.84375 1.894531 0.84375 1.71875 L 0.84375 -2.4375 C 0.84375 -2.65625 0.816406 -2.804688 0.765625 -2.890625 C 0.722656 -2.984375 0.640625 -3.03125 0.515625 -3.03125 C 0.390625 -3.03125 0.234375 -2.992188 0.046875 -2.921875 L 0.03125 -2.90625 C 0.0078125 -2.90625 -0.00390625 -2.921875 -0.015625 -2.953125 C -0.0234375 -2.984375 -0.0195312 -3.003906 0 -3.015625 L 0.984375 -3.484375 C 0.992188 -3.484375 1.015625 -3.484375 1.046875 -3.484375 C 1.128906 -3.484375 1.195312 -3.421875 1.25 -3.296875 C 1.300781 -3.179688 1.332031 -3.003906 1.34375 -2.765625 C 1.84375 -3.273438 2.335938 -3.53125 2.828125 -3.53125 Z M 2.546875 -0.078125 C 2.859375 -0.078125 3.113281 -0.210938 3.3125 -0.484375 C 3.507812 -0.753906 3.609375 -1.132812 3.609375 -1.625 C 3.609375 -2.125 3.5 -2.507812 3.28125 -2.78125 C 3.0625 -3.0625 2.785156 -3.203125 2.453125 -3.203125 C 2.242188 -3.203125 2.050781 -3.148438 1.875 -3.046875 C 1.695312 -2.941406 1.519531 -2.800781 1.34375 -2.625 L 1.34375 -0.625 C 1.5 -0.445312 1.671875 -0.3125 1.859375 -0.21875 C 2.046875 -0.125 2.273438 -0.078125 2.546875 -0.078125 Z M 2.546875 -0.078125 "/></g></g></g></g><g fill="#f8f6f0" fill-opacity="1"><g transform="translate(51.744835, 8.966246)"><g><path d="M 0.359375 0 C 0.335938 0 0.328125 -0.015625 0.328125 -0.046875 C 0.328125 -0.0859375 0.335938 -0.109375 0.359375 -0.109375 C 0.515625 -0.109375 0.628906 -0.125 0.703125 -0.15625 C 0.785156 -0.1875 0.835938 -0.242188 0.859375 -0.328125 C 0.890625 -0.410156 0.90625 -0.539062 0.90625 -0.71875 L 0.90625 -5.296875 C 0.90625 -5.503906 0.882812 -5.65625 0.84375 -5.75 C 0.800781 -5.851562 0.726562 -5.90625 0.625 -5.90625 C 0.539062 -5.90625 0.40625 -5.863281 0.21875 -5.78125 L 0.203125 -5.78125 C 0.179688 -5.78125 0.164062 -5.789062 0.15625 -5.8125 C 0.15625 -5.84375 0.160156 -5.863281 0.171875 -5.875 L 1.3125 -6.421875 C 1.320312 -6.421875 1.335938 -6.421875 1.359375 -6.421875 C 1.367188 -6.421875 1.382812 -6.410156 1.40625 -6.390625 C 1.425781 -6.378906 1.4375 -6.367188 1.4375 -6.359375 L 1.4375 -0.71875 C 1.4375 -0.539062 1.445312 -0.410156 1.46875 -0.328125 C 1.5 -0.253906 1.550781 -0.195312 1.625 -0.15625 C 1.707031 -0.125 1.828125 -0.109375 1.984375 -0.109375 C 2.003906 -0.109375 2.015625 -0.0859375 2.015625 -0.046875 C 2.015625 -0.015625 2.003906 0 1.984375 0 C 1.859375 0 1.753906 -0.00390625 1.671875 -0.015625 L 0.6875 -0.015625 C 0.601562 -0.00390625 0.492188 0 0.359375 0 Z M 0.359375 0 "/></g></g></g><g fill="#f8f6f0" fill-opacity="1"><g transform="translate(54.028532, 8.966246)"><g><path d="M 1.21875 -4.53125 C 1.09375 -4.53125 0.992188 -4.5625 0.921875 -4.625 C 0.859375 -4.695312 0.828125 -4.789062 0.828125 -4.90625 C 0.828125 -5.019531 0.859375 -5.109375 0.921875 -5.171875 C 0.992188 -5.242188 1.09375 -5.28125 1.21875 -5.28125 C 1.332031 -5.28125 1.421875 -5.242188 1.484375 -5.171875 C 1.546875 -5.109375 1.578125 -5.019531 1.578125 -4.90625 C 1.578125 -4.789062 1.546875 -4.695312 1.484375 -4.625 C 1.421875 -4.5625 1.332031 -4.53125 1.21875 -4.53125 Z M 0.46875 0 C 0.457031 0 0.453125 -0.015625 0.453125 -0.046875 C 0.453125 -0.0859375 0.457031 -0.109375 0.46875 -0.109375 C 0.625 -0.109375 0.742188 -0.125 0.828125 -0.15625 C 0.910156 -0.1875 0.960938 -0.242188 0.984375 -0.328125 C 1.015625 -0.410156 1.03125 -0.539062 1.03125 -0.71875 L 1.03125 -2.375 C 1.03125 -2.582031 1.007812 -2.734375 0.96875 -2.828125 C 0.925781 -2.929688 0.851562 -2.984375 0.75 -2.984375 C 0.632812 -2.984375 0.5 -2.941406 0.34375 -2.859375 C 0.3125 -2.859375 0.289062 -2.867188 0.28125 -2.890625 C 0.269531 -2.921875 0.273438 -2.941406 0.296875 -2.953125 L 1.4375 -3.484375 L 1.484375 -3.5 C 1.492188 -3.5 1.503906 -3.488281 1.515625 -3.46875 C 1.535156 -3.457031 1.546875 -3.441406 1.546875 -3.421875 C 1.546875 -3.378906 1.539062 -3.257812 1.53125 -3.0625 C 1.53125 -2.875 1.53125 -2.648438 1.53125 -2.390625 L 1.53125 -0.71875 C 1.53125 -0.539062 1.546875 -0.410156 1.578125 -0.328125 C 1.609375 -0.242188 1.660156 -0.1875 1.734375 -0.15625 C 1.816406 -0.125 1.9375 -0.109375 2.09375 -0.109375 C 2.113281 -0.109375 2.125 -0.0859375 2.125 -0.046875 C 2.125 -0.015625 2.113281 0 2.09375 0 C 1.957031 0 1.847656 -0.00390625 1.765625 -0.015625 L 0.8125 -0.015625 C 0.726562 -0.00390625 0.613281 0 0.46875 0 Z M 0.46875 0 "/></g></g></g><g fill="#f8f6f0" fill-opacity="1"><g transform="translate(56.445002, 8.966246)"><g><path d="M 2.828125 -6.4375 C 3.128906 -6.4375 3.375 -6.390625 3.5625 -6.296875 C 3.757812 -6.203125 3.859375 -6.09375 3.859375 -5.96875 C 3.859375 -5.875 3.828125 -5.800781 3.765625 -5.75 C 3.703125 -5.695312 3.628906 -5.671875 3.546875 -5.671875 C 3.472656 -5.671875 3.410156 -5.6875 3.359375 -5.71875 C 3.304688 -5.757812 3.25 -5.820312 3.1875 -5.90625 C 3.101562 -6.03125 3.007812 -6.125 2.90625 -6.1875 C 2.800781 -6.25 2.671875 -6.28125 2.515625 -6.28125 C 2.171875 -6.28125 1.898438 -6.082031 1.703125 -5.6875 C 1.503906 -5.289062 1.40625 -4.691406 1.40625 -3.890625 L 1.40625 -3.328125 C 1.675781 -3.328125 2.050781 -3.351562 2.53125 -3.40625 C 2.550781 -3.40625 2.566406 -3.382812 2.578125 -3.34375 C 2.585938 -3.300781 2.59375 -3.253906 2.59375 -3.203125 C 2.59375 -3.148438 2.582031 -3.097656 2.5625 -3.046875 C 2.550781 -3.003906 2.53125 -2.984375 2.5 -2.984375 C 2.164062 -3.066406 1.800781 -3.113281 1.40625 -3.125 L 1.40625 -0.71875 C 1.40625 -0.53125 1.425781 -0.394531 1.46875 -0.3125 C 1.507812 -0.226562 1.585938 -0.171875 1.703125 -0.140625 C 1.816406 -0.117188 2.003906 -0.109375 2.265625 -0.109375 C 2.285156 -0.109375 2.296875 -0.0859375 2.296875 -0.046875 C 2.296875 -0.015625 2.285156 0 2.265625 0 L 1.703125 -0.015625 C 1.578125 -0.015625 1.390625 -0.015625 1.140625 -0.015625 L 0.640625 -0.015625 C 0.554688 -0.00390625 0.4375 0 0.28125 0 C 0.257812 0 0.25 -0.015625 0.25 -0.046875 C 0.25 -0.0859375 0.257812 -0.109375 0.28125 -0.109375 C 0.457031 -0.109375 0.585938 -0.125 0.671875 -0.15625 C 0.753906 -0.1875 0.8125 -0.242188 0.84375 -0.328125 C 0.875 -0.410156 0.890625 -0.539062 0.890625 -0.71875 L 0.890625 -2.71875 C 0.890625 -2.863281 0.875 -2.96875 0.84375 -3.03125 C 0.820312 -3.09375 0.765625 -3.132812 0.671875 -3.15625 C 0.585938 -3.175781 0.445312 -3.1875 0.25 -3.1875 C 0.226562 -3.1875 0.21875 -3.203125 0.21875 -3.234375 C 0.21875 -3.273438 0.226562 -3.296875 0.25 -3.296875 C 0.488281 -3.296875 0.648438 -3.320312 0.734375 -3.375 C 0.828125 -3.4375 0.875 -3.546875 0.875 -3.703125 C 0.90625 -4.660156 1.082031 -5.351562 1.40625 -5.78125 C 1.726562 -6.21875 2.203125 -6.4375 2.828125 -6.4375 Z M 2.828125 -6.4375 "/></g></g></g><g fill="#f8f6f0" fill-opacity="1"><g transform="translate(59.14472, 8.966246)"><g><path d="M 1.21875 -4.53125 C 1.09375 -4.53125 0.992188 -4.5625 0.921875 -4.625 C 0.859375 -4.695312 0.828125 -4.789062 0.828125 -4.90625 C 0.828125 -5.019531 0.859375 -5.109375 0.921875 -5.171875 C 0.992188 -5.242188 1.09375 -5.28125 1.21875 -5.28125 C 1.332031 -5.28125 1.421875 -5.242188 1.484375 -5.171875 C 1.546875 -5.109375 1.578125 -5.019531 1.578125 -4.90625 C 1.578125 -4.789062 1.546875 -4.695312 1.484375 -4.625 C 1.421875 -4.5625 1.332031 -4.53125 1.21875 -4.53125 Z M 0.46875 0 C 0.457031 0 0.453125 -0.015625 0.453125 -0.046875 C 0.453125 -0.0859375 0.457031 -0.109375 0.46875 -0.109375 C 0.625 -0.109375 0.742188 -0.125 0.828125 -0.15625 C 0.910156 -0.1875 0.960938 -0.242188 0.984375 -0.328125 C 1.015625 -0.410156 1.03125 -0.539062 1.03125 -0.71875 L 1.03125 -2.375 C 1.03125 -2.582031 1.007812 -2.734375 0.96875 -2.828125 C 0.925781 -2.929688 0.851562 -2.984375 0.75 -2.984375 C 0.632812 -2.984375 0.5 -2.941406 0.34375 -2.859375 C 0.3125 -2.859375 0.289062 -2.867188 0.28125 -2.890625 C 0.269531 -2.921875 0.273438 -2.941406 0.296875 -2.953125 L 1.4375 -3.484375 L 1.484375 -3.5 C 1.492188 -3.5 1.503906 -3.488281 1.515625 -3.46875 C 1.535156 -3.457031 1.546875 -3.441406 1.546875 -3.421875 C 1.546875 -3.378906 1.539062 -3.257812 1.53125 -3.0625 C 1.53125 -2.875 1.53125 -2.648438 1.53125 -2.390625 L 1.53125 -0.71875 C 1.53125 -0.539062 1.546875 -0.410156 1.578125 -0.328125 C 1.609375 -0.242188 1.660156 -0.1875 1.734375 -0.15625 C 1.816406 -0.125 1.9375 -0.109375 2.09375 -0.109375 C 2.113281 -0.109375 2.125 -0.0859375 2.125 -0.046875 C 2.125 -0.015625 2.113281 0 2.09375 0 C 1.957031 0 1.847656 -0.00390625 1.765625 -0.015625 L 0.8125 -0.015625 C 0.726562 -0.00390625 0.613281 0 0.46875 0 Z M 0.46875 0 "/></g></g></g><g fill="#f8f6f0" fill-opacity="1"><g transform="translate(61.561189, 8.966246)"><g><path d="M 3.1875 -0.5 C 3.195312 -0.5 3.207031 -0.488281 3.21875 -0.46875 C 3.238281 -0.445312 3.242188 -0.425781 3.234375 -0.40625 C 2.847656 -0.0625 2.414062 0.109375 1.9375 0.109375 C 1.59375 0.109375 1.300781 0.03125 1.0625 -0.125 C 0.820312 -0.289062 0.632812 -0.503906 0.5 -0.765625 C 0.375 -1.023438 0.3125 -1.300781 0.3125 -1.59375 C 0.3125 -1.945312 0.394531 -2.269531 0.5625 -2.5625 C 0.726562 -2.851562 0.953125 -3.082031 1.234375 -3.25 C 1.523438 -3.414062 1.84375 -3.5 2.1875 -3.5 C 2.519531 -3.5 2.773438 -3.410156 2.953125 -3.234375 C 3.128906 -3.054688 3.21875 -2.804688 3.21875 -2.484375 C 3.21875 -2.398438 3.207031 -2.34375 3.1875 -2.3125 C 3.175781 -2.28125 3.15625 -2.265625 3.125 -2.265625 L 0.921875 -2.25 C 0.910156 -2.125 0.90625 -2.019531 0.90625 -1.9375 C 0.90625 -1.414062 1.023438 -0.992188 1.265625 -0.671875 C 1.503906 -0.359375 1.84375 -0.203125 2.28125 -0.203125 C 2.457031 -0.203125 2.609375 -0.222656 2.734375 -0.265625 C 2.867188 -0.316406 3.015625 -0.394531 3.171875 -0.5 Z M 1.890625 -3.328125 C 1.640625 -3.328125 1.429688 -3.238281 1.265625 -3.0625 C 1.097656 -2.894531 0.988281 -2.660156 0.9375 -2.359375 L 2.625 -2.40625 C 2.625 -2.707031 2.554688 -2.9375 2.421875 -3.09375 C 2.296875 -3.25 2.117188 -3.328125 1.890625 -3.328125 Z M 1.890625 -3.328125 "/></g></g></g><g fill="#f8f6f0" fill-opacity="1"><g transform="translate(65.172618, 8.966246)"><g><path d="M 4.484375 -0.5 C 4.503906 -0.5 4.519531 -0.484375 4.53125 -0.453125 C 4.539062 -0.429688 4.535156 -0.414062 4.515625 -0.40625 L 3.546875 0.0625 C 3.503906 0.0703125 3.476562 0.078125 3.46875 0.078125 C 3.394531 0.078125 3.332031 0.015625 3.28125 -0.109375 C 3.226562 -0.242188 3.195312 -0.425781 3.1875 -0.65625 C 2.96875 -0.425781 2.738281 -0.238281 2.5 -0.09375 C 2.257812 0.0390625 1.992188 0.109375 1.703125 0.109375 C 1.453125 0.109375 1.222656 0.0390625 1.015625 -0.09375 C 0.804688 -0.238281 0.632812 -0.4375 0.5 -0.6875 C 0.375 -0.945312 0.3125 -1.242188 0.3125 -1.578125 C 0.3125 -1.992188 0.414062 -2.347656 0.625 -2.640625 C 0.832031 -2.941406 1.09375 -3.164062 1.40625 -3.3125 C 1.71875 -3.457031 2.03125 -3.53125 2.34375 -3.53125 C 2.65625 -3.53125 2.9375 -3.453125 3.1875 -3.296875 L 3.1875 -5.28125 C 3.1875 -5.5 3.164062 -5.65625 3.125 -5.75 C 3.082031 -5.84375 3.003906 -5.890625 2.890625 -5.890625 C 2.816406 -5.890625 2.679688 -5.847656 2.484375 -5.765625 L 2.46875 -5.765625 C 2.445312 -5.765625 2.429688 -5.773438 2.421875 -5.796875 C 2.410156 -5.828125 2.414062 -5.847656 2.4375 -5.859375 L 3.5625 -6.421875 C 3.570312 -6.421875 3.585938 -6.421875 3.609375 -6.421875 C 3.617188 -6.421875 3.632812 -6.410156 3.65625 -6.390625 C 3.675781 -6.378906 3.6875 -6.367188 3.6875 -6.359375 L 3.6875 -0.96875 C 3.6875 -0.757812 3.710938 -0.609375 3.765625 -0.515625 C 3.816406 -0.421875 3.894531 -0.375 4 -0.375 C 4.175781 -0.375 4.332031 -0.414062 4.46875 -0.5 Z M 2.046875 -0.203125 C 2.253906 -0.203125 2.453125 -0.253906 2.640625 -0.359375 C 2.828125 -0.460938 3.007812 -0.609375 3.1875 -0.796875 L 3.1875 -2.75 C 3.050781 -2.9375 2.894531 -3.082031 2.71875 -3.1875 C 2.550781 -3.300781 2.34375 -3.359375 2.09375 -3.359375 C 1.726562 -3.359375 1.4375 -3.222656 1.21875 -2.953125 C 1 -2.691406 0.890625 -2.320312 0.890625 -1.84375 C 0.890625 -1.519531 0.941406 -1.234375 1.046875 -0.984375 C 1.148438 -0.734375 1.285156 -0.539062 1.453125 -0.40625 C 1.628906 -0.269531 1.828125 -0.203125 2.046875 -0.203125 Z M 2.046875 -0.203125 "/></g></g></g><g fill="#f8f6f0" fill-opacity="1"><g transform="translate(69.704606, 8.966246)"><g><path d="M 0.875 0.09375 C 0.757812 0.09375 0.664062 0.0625 0.59375 0 C 0.519531 -0.0703125 0.484375 -0.171875 0.484375 -0.296875 C 0.484375 -0.398438 0.519531 -0.484375 0.59375 -0.546875 C 0.664062 -0.617188 0.757812 -0.65625 0.875 -0.65625 C 1 -0.65625 1.09375 -0.617188 1.15625 -0.546875 C 1.226562 -0.484375 1.265625 -0.398438 1.265625 -0.296875 C 1.265625 -0.171875 1.226562 -0.0703125 1.15625 0 C 1.09375 0.0625 1 0.09375 0.875 0.09375 Z M 0.875 0.09375 "/></g></g></g></g></g><g transform="matrix(1, 0, 0, 1, 82, 54)"><g clip-path="url(#a1f4eff759)"><g clip-path="url(#e25bbce96d)"><g fill="#f8f6f0" fill-opacity="1"><g transform="translate(0.276335, 14.290485)"><g><path d="M 5.4375 -5.3125 C 6.289062 -5.207031 6.96875 -4.921875 7.46875 -4.453125 C 7.96875 -3.992188 8.21875 -3.421875 8.21875 -2.734375 C 8.21875 -2.210938 8.066406 -1.738281 7.765625 -1.3125 C 7.460938 -0.894531 7.039062 -0.5625 6.5 -0.3125 C 5.96875 -0.0625 5.375 0.0625 4.71875 0.0625 C 4.4375 0.0625 4.113281 0.046875 3.75 0.015625 C 3.613281 0.00390625 3.441406 -0.00390625 3.234375 -0.015625 C 3.023438 -0.0234375 2.796875 -0.03125 2.546875 -0.03125 L 1.4375 -0.015625 C 1.238281 -0.00390625 0.96875 0 0.625 0 C 0.59375 0 0.578125 -0.03125 0.578125 -0.09375 C 0.578125 -0.15625 0.59375 -0.1875 0.625 -0.1875 C 0.914062 -0.1875 1.132812 -0.210938 1.28125 -0.265625 C 1.4375 -0.316406 1.546875 -0.414062 1.609375 -0.5625 C 1.671875 -0.707031 1.703125 -0.925781 1.703125 -1.21875 L 1.703125 -8.234375 C 1.703125 -8.648438 1.628906 -8.925781 1.484375 -9.0625 C 1.347656 -9.195312 1.066406 -9.265625 0.640625 -9.265625 C 0.617188 -9.265625 0.609375 -9.296875 0.609375 -9.359375 C 0.609375 -9.421875 0.617188 -9.453125 0.640625 -9.453125 L 1.4375 -9.4375 C 1.894531 -9.414062 2.265625 -9.40625 2.546875 -9.40625 C 2.828125 -9.40625 3.117188 -9.421875 3.421875 -9.453125 C 3.515625 -9.460938 3.660156 -9.472656 3.859375 -9.484375 C 4.066406 -9.492188 4.25 -9.5 4.40625 -9.5 C 5.320312 -9.5 6.03125 -9.332031 6.53125 -9 C 7.039062 -8.664062 7.296875 -8.179688 7.296875 -7.546875 C 7.296875 -7.066406 7.132812 -6.628906 6.8125 -6.234375 C 6.5 -5.835938 6.039062 -5.53125 5.4375 -5.3125 Z M 4.171875 -9.171875 C 3.878906 -9.171875 3.675781 -9.097656 3.5625 -8.953125 C 3.457031 -8.816406 3.40625 -8.566406 3.40625 -8.203125 L 3.40625 -5.328125 L 4.015625 -5.3125 C 4.535156 -5.3125 4.9375 -5.503906 5.21875 -5.890625 C 5.5 -6.285156 5.640625 -6.789062 5.640625 -7.40625 C 5.640625 -7.976562 5.515625 -8.414062 5.265625 -8.71875 C 5.015625 -9.019531 4.648438 -9.171875 4.171875 -9.171875 Z M 4.46875 -0.3125 C 5.78125 -0.3125 6.4375 -1 6.4375 -2.375 C 6.4375 -3.15625 6.25 -3.769531 5.875 -4.21875 C 5.507812 -4.675781 4.945312 -4.90625 4.1875 -4.90625 C 3.894531 -4.90625 3.632812 -4.894531 3.40625 -4.875 L 3.40625 -1.21875 C 3.40625 -0.882812 3.46875 -0.648438 3.59375 -0.515625 C 3.726562 -0.378906 4.019531 -0.3125 4.46875 -0.3125 Z M 4.46875 -0.3125 "/></g></g></g></g><g fill="#f8f6f0" fill-opacity="1"><g transform="translate(12.098693, 14.290485)"><g><path d="M 10.84375 -0.1875 C 10.894531 -0.1875 10.921875 -0.15625 10.921875 -0.09375 C 10.921875 -0.03125 10.894531 0 10.84375 0 C 10.644531 0 10.332031 -0.0078125 9.90625 -0.03125 C 9.457031 -0.0507812 9.140625 -0.0625 8.953125 -0.0625 C 8.703125 -0.0625 8.394531 -0.0507812 8.03125 -0.03125 C 7.6875 -0.0078125 7.414062 0 7.21875 0 C 7.175781 0 7.15625 -0.03125 7.15625 -0.09375 C 7.15625 -0.15625 7.175781 -0.1875 7.21875 -0.1875 C 7.476562 -0.1875 7.664062 -0.210938 7.78125 -0.265625 C 7.894531 -0.316406 7.953125 -0.414062 7.953125 -0.5625 C 7.953125 -0.726562 7.851562 -1.015625 7.65625 -1.421875 L 6.625 -3.46875 L 2.90625 -3.46875 L 2.3125 -2.140625 C 2.1875 -1.847656 2.125 -1.578125 2.125 -1.328125 C 2.125 -0.960938 2.25 -0.679688 2.5 -0.484375 C 2.757812 -0.285156 3.109375 -0.1875 3.546875 -0.1875 C 3.585938 -0.1875 3.609375 -0.15625 3.609375 -0.09375 C 3.609375 -0.03125 3.585938 0 3.546875 0 C 3.359375 0 3.09375 -0.0078125 2.75 -0.03125 C 2.363281 -0.0507812 2.03125 -0.0625 1.75 -0.0625 C 1.476562 -0.0625 1.148438 -0.0507812 0.765625 -0.03125 C 0.421875 -0.0078125 0.144531 0 -0.0625 0 C -0.101562 0 -0.125 -0.03125 -0.125 -0.09375 C -0.125 -0.15625 -0.101562 -0.1875 -0.0625 -0.1875 C 0.21875 -0.1875 0.453125 -0.242188 0.640625 -0.359375 C 0.835938 -0.472656 1.03125 -0.675781 1.21875 -0.96875 C 1.414062 -1.269531 1.644531 -1.710938 1.90625 -2.296875 L 5.1875 -9.515625 C 5.207031 -9.546875 5.253906 -9.5625 5.328125 -9.5625 C 5.398438 -9.5625 5.441406 -9.546875 5.453125 -9.515625 L 9.234375 -2.078125 C 9.585938 -1.359375 9.878906 -0.863281 10.109375 -0.59375 C 10.347656 -0.320312 10.59375 -0.1875 10.84375 -0.1875 Z M 3.09375 -3.890625 L 6.390625 -3.890625 L 4.65625 -7.328125 Z M 3.09375 -3.890625 "/></g></g></g><g fill="#f8f6f0" fill-opacity="1"><g transform="translate(25.750335, 14.290485)"><g><path d="M 3.21875 -1.28125 C 3.21875 -1.019531 3.238281 -0.832031 3.28125 -0.71875 C 3.320312 -0.601562 3.398438 -0.523438 3.515625 -0.484375 C 3.628906 -0.441406 3.816406 -0.421875 4.078125 -0.421875 L 4.59375 -0.421875 C 5.382812 -0.421875 6.066406 -0.628906 6.640625 -1.046875 C 7.210938 -1.460938 7.597656 -2.03125 7.796875 -2.75 C 7.796875 -2.769531 7.8125 -2.78125 7.84375 -2.78125 C 7.863281 -2.78125 7.882812 -2.769531 7.90625 -2.75 C 7.9375 -2.738281 7.953125 -2.726562 7.953125 -2.71875 C 7.859375 -1.71875 7.8125 -0.890625 7.8125 -0.234375 C 7.8125 -0.148438 7.796875 -0.0859375 7.765625 -0.046875 C 7.734375 -0.015625 7.675781 0 7.59375 0 L 0.453125 0 C 0.429688 0 0.421875 -0.03125 0.421875 -0.09375 C 0.421875 -0.15625 0.429688 -0.1875 0.453125 -0.1875 C 0.773438 -0.1875 1.007812 -0.207031 1.15625 -0.25 C 1.300781 -0.300781 1.398438 -0.398438 1.453125 -0.546875 C 1.515625 -0.691406 1.546875 -0.914062 1.546875 -1.21875 L 1.546875 -8.234375 C 1.546875 -8.535156 1.515625 -8.753906 1.453125 -8.890625 C 1.398438 -9.035156 1.296875 -9.132812 1.140625 -9.1875 C 0.992188 -9.238281 0.765625 -9.265625 0.453125 -9.265625 C 0.429688 -9.265625 0.421875 -9.296875 0.421875 -9.359375 C 0.421875 -9.421875 0.429688 -9.453125 0.453125 -9.453125 L 1.21875 -9.4375 C 1.6875 -9.414062 2.070312 -9.40625 2.375 -9.40625 C 2.675781 -9.40625 3.0625 -9.414062 3.53125 -9.4375 L 4.296875 -9.453125 C 4.328125 -9.453125 4.34375 -9.421875 4.34375 -9.359375 C 4.34375 -9.296875 4.328125 -9.265625 4.296875 -9.265625 C 3.984375 -9.265625 3.75 -9.238281 3.59375 -9.1875 C 3.445312 -9.132812 3.347656 -9.035156 3.296875 -8.890625 C 3.242188 -8.742188 3.21875 -8.519531 3.21875 -8.21875 Z M 3.21875 -1.28125 "/></g></g></g><g fill="#f8f6f0" fill-opacity="1"><g transform="translate(36.816791, 14.290485)"><g><path d="M 10.84375 -0.1875 C 10.894531 -0.1875 10.921875 -0.15625 10.921875 -0.09375 C 10.921875 -0.03125 10.894531 0 10.84375 0 C 10.644531 0 10.332031 -0.0078125 9.90625 -0.03125 C 9.457031 -0.0507812 9.140625 -0.0625 8.953125 -0.0625 C 8.703125 -0.0625 8.394531 -0.0507812 8.03125 -0.03125 C 7.6875 -0.0078125 7.414062 0 7.21875 0 C 7.175781 0 7.15625 -0.03125 7.15625 -0.09375 C 7.15625 -0.15625 7.175781 -0.1875 7.21875 -0.1875 C 7.476562 -0.1875 7.664062 -0.210938 7.78125 -0.265625 C 7.894531 -0.316406 7.953125 -0.414062 7.953125 -0.5625 C 7.953125 -0.726562 7.851562 -1.015625 7.65625 -1.421875 L 6.625 -3.46875 L 2.90625 -3.46875 L 2.3125 -2.140625 C 2.1875 -1.847656 2.125 -1.578125 2.125 -1.328125 C 2.125 -0.960938 2.25 -0.679688 2.5 -0.484375 C 2.757812 -0.285156 3.109375 -0.1875 3.546875 -0.1875 C 3.585938 -0.1875 3.609375 -0.15625 3.609375 -0.09375 C 3.609375 -0.03125 3.585938 0 3.546875 0 C 3.359375 0 3.09375 -0.0078125 2.75 -0.03125 C 2.363281 -0.0507812 2.03125 -0.0625 1.75 -0.0625 C 1.476562 -0.0625 1.148438 -0.0507812 0.765625 -0.03125 C 0.421875 -0.0078125 0.144531 0 -0.0625 0 C -0.101562 0 -0.125 -0.03125 -0.125 -0.09375 C -0.125 -0.15625 -0.101562 -0.1875 -0.0625 -0.1875 C 0.21875 -0.1875 0.453125 -0.242188 0.640625 -0.359375 C 0.835938 -0.472656 1.03125 -0.675781 1.21875 -0.96875 C 1.414062 -1.269531 1.644531 -1.710938 1.90625 -2.296875 L 5.1875 -9.515625 C 5.207031 -9.546875 5.253906 -9.5625 5.328125 -9.5625 C 5.398438 -9.5625 5.441406 -9.546875 5.453125 -9.515625 L 9.234375 -2.078125 C 9.585938 -1.359375 9.878906 -0.863281 10.109375 -0.59375 C 10.347656 -0.320312 10.59375 -0.1875 10.84375 -0.1875 Z M 3.09375 -3.890625 L 6.390625 -3.890625 L 4.65625 -7.328125 Z M 3.09375 -3.890625 "/></g></g></g><g fill="#f8f6f0" fill-opacity="1"><g transform="translate(50.468436, 14.290485)"><g><path d="M 10.9375 -9.453125 C 10.957031 -9.453125 10.96875 -9.421875 10.96875 -9.359375 C 10.96875 -9.296875 10.957031 -9.265625 10.9375 -9.265625 C 10.53125 -9.265625 10.210938 -9.101562 9.984375 -8.78125 C 9.753906 -8.46875 9.640625 -8.046875 9.640625 -7.515625 L 9.640625 0.234375 C 9.640625 0.253906 9.613281 0.269531 9.5625 0.28125 C 9.519531 0.289062 9.488281 0.285156 9.46875 0.265625 L 2.375 -7.796875 L 2.375 -1.921875 C 2.375 -1.390625 2.484375 -0.96875 2.703125 -0.65625 C 2.929688 -0.34375 3.238281 -0.1875 3.625 -0.1875 C 3.644531 -0.1875 3.65625 -0.15625 3.65625 -0.09375 C 3.65625 -0.03125 3.644531 0 3.625 0 C 3.34375 0 3.128906 -0.00390625 2.984375 -0.015625 L 2.15625 -0.03125 L 1.21875 -0.015625 C 1.050781 -0.00390625 0.804688 0 0.484375 0 C 0.453125 0 0.4375 -0.03125 0.4375 -0.09375 C 0.4375 -0.15625 0.453125 -0.1875 0.484375 -0.1875 C 0.929688 -0.1875 1.28125 -0.34375 1.53125 -0.65625 C 1.789062 -0.96875 1.921875 -1.390625 1.921875 -1.921875 L 1.921875 -8.3125 C 1.585938 -8.675781 1.300781 -8.925781 1.0625 -9.0625 C 0.820312 -9.195312 0.578125 -9.265625 0.328125 -9.265625 C 0.304688 -9.265625 0.296875 -9.296875 0.296875 -9.359375 C 0.296875 -9.421875 0.304688 -9.453125 0.328125 -9.453125 L 0.96875 -9.4375 C 1.101562 -9.425781 1.296875 -9.421875 1.546875 -9.421875 L 2.6875 -9.4375 C 2.832031 -9.445312 3.003906 -9.453125 3.203125 -9.453125 C 3.285156 -9.453125 3.347656 -9.429688 3.390625 -9.390625 C 3.429688 -9.347656 3.5 -9.265625 3.59375 -9.140625 C 3.769531 -8.898438 3.894531 -8.742188 3.96875 -8.671875 L 9.203125 -2.625 L 9.203125 -7.515625 C 9.203125 -8.054688 9.085938 -8.484375 8.859375 -8.796875 C 8.640625 -9.109375 8.332031 -9.265625 7.9375 -9.265625 C 7.914062 -9.265625 7.90625 -9.296875 7.90625 -9.359375 C 7.90625 -9.421875 7.914062 -9.453125 7.9375 -9.453125 L 8.59375 -9.4375 C 8.914062 -9.414062 9.1875 -9.40625 9.40625 -9.40625 C 9.601562 -9.40625 9.882812 -9.414062 10.25 -9.4375 Z M 10.9375 -9.453125 "/></g></g></g><g fill="#f8f6f0" fill-opacity="1"><g transform="translate(64.407323, 14.290485)"><g><path d="M 6.453125 -9.625 C 6.929688 -9.625 7.414062 -9.582031 7.90625 -9.5 C 8.394531 -9.425781 8.785156 -9.332031 9.078125 -9.21875 C 9.171875 -9.1875 9.226562 -9.144531 9.25 -9.09375 C 9.269531 -9.050781 9.285156 -8.972656 9.296875 -8.859375 L 9.5 -6.765625 C 9.5 -6.734375 9.472656 -6.710938 9.421875 -6.703125 C 9.367188 -6.691406 9.332031 -6.707031 9.3125 -6.75 C 9.03125 -7.570312 8.628906 -8.203125 8.109375 -8.640625 C 7.585938 -9.078125 6.957031 -9.296875 6.21875 -9.296875 C 5.53125 -9.296875 4.914062 -9.113281 4.375 -8.75 C 3.832031 -8.382812 3.40625 -7.859375 3.09375 -7.171875 C 2.789062 -6.484375 2.640625 -5.679688 2.640625 -4.765625 C 2.640625 -3.835938 2.796875 -3.019531 3.109375 -2.3125 C 3.429688 -1.613281 3.875 -1.078125 4.4375 -0.703125 C 5 -0.328125 5.644531 -0.140625 6.375 -0.140625 C 7.0625 -0.140625 7.640625 -0.328125 8.109375 -0.703125 C 8.585938 -1.078125 9.039062 -1.703125 9.46875 -2.578125 C 9.476562 -2.597656 9.507812 -2.601562 9.5625 -2.59375 C 9.613281 -2.59375 9.640625 -2.578125 9.640625 -2.546875 L 9.40625 -0.671875 C 9.382812 -0.546875 9.363281 -0.460938 9.34375 -0.421875 C 9.320312 -0.390625 9.269531 -0.351562 9.1875 -0.3125 C 8.257812 0.0195312 7.320312 0.1875 6.375 0.1875 C 5.289062 0.1875 4.320312 -0.015625 3.46875 -0.421875 C 2.613281 -0.835938 1.941406 -1.410156 1.453125 -2.140625 C 0.972656 -2.878906 0.734375 -3.71875 0.734375 -4.65625 C 0.734375 -5.613281 0.984375 -6.46875 1.484375 -7.21875 C 1.984375 -7.96875 2.671875 -8.554688 3.546875 -8.984375 C 4.421875 -9.410156 5.390625 -9.625 6.453125 -9.625 Z M 6.453125 -9.625 "/></g></g></g><g fill="#f8f6f0" fill-opacity="1"><g transform="translate(77.529828, 14.290485)"><g><path d="M 7.5 -2.40625 C 7.5 -2.425781 7.519531 -2.4375 7.5625 -2.4375 C 7.59375 -2.4375 7.617188 -2.425781 7.640625 -2.40625 C 7.671875 -2.394531 7.6875 -2.382812 7.6875 -2.375 C 7.582031 -1.582031 7.53125 -0.867188 7.53125 -0.234375 C 7.53125 -0.148438 7.515625 -0.0859375 7.484375 -0.046875 C 7.453125 -0.015625 7.394531 0 7.3125 0 L 0.625 0 C 0.59375 0 0.578125 -0.03125 0.578125 -0.09375 C 0.578125 -0.15625 0.59375 -0.1875 0.625 -0.1875 C 0.945312 -0.1875 1.179688 -0.207031 1.328125 -0.25 C 1.472656 -0.300781 1.566406 -0.398438 1.609375 -0.546875 C 1.660156 -0.691406 1.6875 -0.914062 1.6875 -1.21875 L 1.6875 -8.234375 C 1.6875 -8.535156 1.660156 -8.753906 1.609375 -8.890625 C 1.566406 -9.035156 1.46875 -9.132812 1.3125 -9.1875 C 1.164062 -9.238281 0.9375 -9.265625 0.625 -9.265625 C 0.59375 -9.265625 0.578125 -9.296875 0.578125 -9.359375 C 0.578125 -9.421875 0.59375 -9.453125 0.625 -9.453125 L 7.03125 -9.453125 C 7.132812 -9.453125 7.1875 -9.40625 7.1875 -9.3125 L 7.21875 -7.3125 C 7.21875 -7.289062 7.1875 -7.273438 7.125 -7.265625 C 7.070312 -7.253906 7.039062 -7.265625 7.03125 -7.296875 C 6.875 -7.878906 6.601562 -8.3125 6.21875 -8.59375 C 5.832031 -8.875 5.328125 -9.015625 4.703125 -9.015625 L 4.25 -9.015625 C 3.945312 -9.015625 3.722656 -8.945312 3.578125 -8.8125 C 3.441406 -8.6875 3.375 -8.488281 3.375 -8.21875 L 3.375 -5.125 L 4.625 -5.125 C 5.207031 -5.125 5.65625 -5.222656 5.96875 -5.421875 C 6.28125 -5.628906 6.4375 -5.914062 6.4375 -6.28125 C 6.4375 -6.3125 6.460938 -6.328125 6.515625 -6.328125 C 6.578125 -6.328125 6.609375 -6.3125 6.609375 -6.28125 L 6.59375 -4.921875 L 6.609375 -4.1875 C 6.628906 -3.84375 6.640625 -3.570312 6.640625 -3.375 C 6.640625 -3.351562 6.609375 -3.34375 6.546875 -3.34375 C 6.484375 -3.34375 6.453125 -3.351562 6.453125 -3.375 C 6.453125 -3.789062 6.289062 -4.113281 5.96875 -4.34375 C 5.65625 -4.582031 5.203125 -4.703125 4.609375 -4.703125 L 3.375 -4.703125 L 3.375 -1.28125 C 3.375 -0.988281 3.425781 -0.769531 3.53125 -0.625 C 3.644531 -0.488281 3.820312 -0.421875 4.0625 -0.421875 L 4.5625 -0.421875 C 5.351562 -0.421875 5.984375 -0.582031 6.453125 -0.90625 C 6.929688 -1.226562 7.28125 -1.726562 7.5 -2.40625 Z M 7.5 -2.40625 "/></g></g></g><g fill="#f8f6f0" fill-opacity="1"><g transform="translate(88.702112, 14.290485)"><g/></g></g><g fill="#f8f6f0" fill-opacity="1"><g transform="translate(95.066853, 14.290485)"><g><path d="M 6.453125 -9.625 C 6.929688 -9.625 7.414062 -9.582031 7.90625 -9.5 C 8.394531 -9.425781 8.785156 -9.332031 9.078125 -9.21875 C 9.171875 -9.1875 9.226562 -9.144531 9.25 -9.09375 C 9.269531 -9.050781 9.285156 -8.972656 9.296875 -8.859375 L 9.5 -6.765625 C 9.5 -6.734375 9.472656 -6.710938 9.421875 -6.703125 C 9.367188 -6.691406 9.332031 -6.707031 9.3125 -6.75 C 9.03125 -7.570312 8.628906 -8.203125 8.109375 -8.640625 C 7.585938 -9.078125 6.957031 -9.296875 6.21875 -9.296875 C 5.53125 -9.296875 4.914062 -9.113281 4.375 -8.75 C 3.832031 -8.382812 3.40625 -7.859375 3.09375 -7.171875 C 2.789062 -6.484375 2.640625 -5.679688 2.640625 -4.765625 C 2.640625 -3.835938 2.796875 -3.019531 3.109375 -2.3125 C 3.429688 -1.613281 3.875 -1.078125 4.4375 -0.703125 C 5 -0.328125 5.644531 -0.140625 6.375 -0.140625 C 7.0625 -0.140625 7.640625 -0.328125 8.109375 -0.703125 C 8.585938 -1.078125 9.039062 -1.703125 9.46875 -2.578125 C 9.476562 -2.597656 9.507812 -2.601562 9.5625 -2.59375 C 9.613281 -2.59375 9.640625 -2.578125 9.640625 -2.546875 L 9.40625 -0.671875 C 9.382812 -0.546875 9.363281 -0.460938 9.34375 -0.421875 C 9.320312 -0.390625 9.269531 -0.351562 9.1875 -0.3125 C 8.257812 0.0195312 7.320312 0.1875 6.375 0.1875 C 5.289062 0.1875 4.320312 -0.015625 3.46875 -0.421875 C 2.613281 -0.835938 1.941406 -1.410156 1.453125 -2.140625 C 0.972656 -2.878906 0.734375 -3.71875 0.734375 -4.65625 C 0.734375 -5.613281 0.984375 -6.46875 1.484375 -7.21875 C 1.984375 -7.96875 2.671875 -8.554688 3.546875 -8.984375 C 4.421875 -9.410156 5.390625 -9.625 6.453125 -9.625 Z M 6.453125 -9.625 "/></g></g></g><g fill="#f8f6f0" fill-opacity="1"><g transform="translate(108.189366, 14.290485)"><g><path d="M 5.53125 0.1875 C 4.59375 0.1875 3.757812 -0.03125 3.03125 -0.46875 C 2.300781 -0.914062 1.734375 -1.515625 1.328125 -2.265625 C 0.929688 -3.015625 0.734375 -3.832031 0.734375 -4.71875 C 0.734375 -5.757812 0.992188 -6.648438 1.515625 -7.390625 C 2.046875 -8.128906 2.722656 -8.6875 3.546875 -9.0625 C 4.367188 -9.4375 5.207031 -9.625 6.0625 -9.625 C 7.019531 -9.625 7.863281 -9.394531 8.59375 -8.9375 C 9.320312 -8.488281 9.878906 -7.894531 10.265625 -7.15625 C 10.648438 -6.425781 10.84375 -5.648438 10.84375 -4.828125 C 10.84375 -3.910156 10.597656 -3.066406 10.109375 -2.296875 C 9.628906 -1.535156 8.984375 -0.929688 8.171875 -0.484375 C 7.359375 -0.0351562 6.476562 0.1875 5.53125 0.1875 Z M 6.03125 -0.203125 C 6.59375 -0.203125 7.097656 -0.363281 7.546875 -0.6875 C 8.003906 -1.019531 8.359375 -1.5 8.609375 -2.125 C 8.859375 -2.757812 8.984375 -3.515625 8.984375 -4.390625 C 8.984375 -5.316406 8.84375 -6.144531 8.5625 -6.875 C 8.28125 -7.601562 7.867188 -8.175781 7.328125 -8.59375 C 6.796875 -9.007812 6.171875 -9.21875 5.453125 -9.21875 C 4.535156 -9.21875 3.828125 -8.867188 3.328125 -8.171875 C 2.835938 -7.484375 2.59375 -6.519531 2.59375 -5.28125 C 2.59375 -4.300781 2.742188 -3.425781 3.046875 -2.65625 C 3.347656 -1.882812 3.753906 -1.28125 4.265625 -0.84375 C 4.785156 -0.414062 5.375 -0.203125 6.03125 -0.203125 Z M 6.03125 -0.203125 "/></g></g></g><g fill="#f8f6f0" fill-opacity="1"><g transform="translate(122.596907, 14.290485)"><g><path d="M 3.21875 -1.28125 C 3.21875 -1.019531 3.238281 -0.832031 3.28125 -0.71875 C 3.320312 -0.601562 3.398438 -0.523438 3.515625 -0.484375 C 3.628906 -0.441406 3.816406 -0.421875 4.078125 -0.421875 L 4.59375 -0.421875 C 5.382812 -0.421875 6.066406 -0.628906 6.640625 -1.046875 C 7.210938 -1.460938 7.597656 -2.03125 7.796875 -2.75 C 7.796875 -2.769531 7.8125 -2.78125 7.84375 -2.78125 C 7.863281 -2.78125 7.882812 -2.769531 7.90625 -2.75 C 7.9375 -2.738281 7.953125 -2.726562 7.953125 -2.71875 C 7.859375 -1.71875 7.8125 -0.890625 7.8125 -0.234375 C 7.8125 -0.148438 7.796875 -0.0859375 7.765625 -0.046875 C 7.734375 -0.015625 7.675781 0 7.59375 0 L 0.453125 0 C 0.429688 0 0.421875 -0.03125 0.421875 -0.09375 C 0.421875 -0.15625 0.429688 -0.1875 0.453125 -0.1875 C 0.773438 -0.1875 1.007812 -0.207031 1.15625 -0.25 C 1.300781 -0.300781 1.398438 -0.398438 1.453125 -0.546875 C 1.515625 -0.691406 1.546875 -0.914062 1.546875 -1.21875 L 1.546875 -8.234375 C 1.546875 -8.535156 1.515625 -8.753906 1.453125 -8.890625 C 1.398438 -9.035156 1.296875 -9.132812 1.140625 -9.1875 C 0.992188 -9.238281 0.765625 -9.265625 0.453125 -9.265625 C 0.429688 -9.265625 0.421875 -9.296875 0.421875 -9.359375 C 0.421875 -9.421875 0.429688 -9.453125 0.453125 -9.453125 L 1.21875 -9.4375 C 1.6875 -9.414062 2.070312 -9.40625 2.375 -9.40625 C 2.675781 -9.40625 3.0625 -9.414062 3.53125 -9.4375 L 4.296875 -9.453125 C 4.328125 -9.453125 4.34375 -9.421875 4.34375 -9.359375 C 4.34375 -9.296875 4.328125 -9.265625 4.296875 -9.265625 C 3.984375 -9.265625 3.75 -9.238281 3.59375 -9.1875 C 3.445312 -9.132812 3.347656 -9.035156 3.296875 -8.890625 C 3.242188 -8.742188 3.21875 -8.519531 3.21875 -8.21875 Z M 3.21875 -1.28125 "/></g></g></g><g fill="#f8f6f0" fill-opacity="1"><g transform="translate(133.663361, 14.290485)"><g><path d="M 3.21875 -1.28125 C 3.21875 -1.019531 3.238281 -0.832031 3.28125 -0.71875 C 3.320312 -0.601562 3.398438 -0.523438 3.515625 -0.484375 C 3.628906 -0.441406 3.816406 -0.421875 4.078125 -0.421875 L 4.59375 -0.421875 C 5.382812 -0.421875 6.066406 -0.628906 6.640625 -1.046875 C 7.210938 -1.460938 7.597656 -2.03125 7.796875 -2.75 C 7.796875 -2.769531 7.8125 -2.78125 7.84375 -2.78125 C 7.863281 -2.78125 7.882812 -2.769531 7.90625 -2.75 C 7.9375 -2.738281 7.953125 -2.726562 7.953125 -2.71875 C 7.859375 -1.71875 7.8125 -0.890625 7.8125 -0.234375 C 7.8125 -0.148438 7.796875 -0.0859375 7.765625 -0.046875 C 7.734375 -0.015625 7.675781 0 7.59375 0 L 0.453125 0 C 0.429688 0 0.421875 -0.03125 0.421875 -0.09375 C 0.421875 -0.15625 0.429688 -0.1875 0.453125 -0.1875 C 0.773438 -0.1875 1.007812 -0.207031 1.15625 -0.25 C 1.300781 -0.300781 1.398438 -0.398438 1.453125 -0.546875 C 1.515625 -0.691406 1.546875 -0.914062 1.546875 -1.21875 L 1.546875 -8.234375 C 1.546875 -8.535156 1.515625 -8.753906 1.453125 -8.890625 C 1.398438 -9.035156 1.296875 -9.132812 1.140625 -9.1875 C 0.992188 -9.238281 0.765625 -9.265625 0.453125 -9.265625 C 0.429688 -9.265625 0.421875 -9.296875 0.421875 -9.359375 C 0.421875 -9.421875 0.429688 -9.453125 0.453125 -9.453125 L 1.21875 -9.4375 C 1.6875 -9.414062 2.070312 -9.40625 2.375 -9.40625 C 2.675781 -9.40625 3.0625 -9.414062 3.53125 -9.4375 L 4.296875 -9.453125 C 4.328125 -9.453125 4.34375 -9.421875 4.34375 -9.359375 C 4.34375 -9.296875 4.328125 -9.265625 4.296875 -9.265625 C 3.984375 -9.265625 3.75 -9.238281 3.59375 -9.1875 C 3.445312 -9.132812 3.347656 -9.035156 3.296875 -8.890625 C 3.242188 -8.742188 3.21875 -8.519531 3.21875 -8.21875 Z M 3.21875 -1.28125 "/></g></g></g><g fill="#f8f6f0" fill-opacity="1"><g transform="translate(144.729815, 14.290485)"><g><path d="M 7.5 -2.40625 C 7.5 -2.425781 7.519531 -2.4375 7.5625 -2.4375 C 7.59375 -2.4375 7.617188 -2.425781 7.640625 -2.40625 C 7.671875 -2.394531 7.6875 -2.382812 7.6875 -2.375 C 7.582031 -1.582031 7.53125 -0.867188 7.53125 -0.234375 C 7.53125 -0.148438 7.515625 -0.0859375 7.484375 -0.046875 C 7.453125 -0.015625 7.394531 0 7.3125 0 L 0.625 0 C 0.59375 0 0.578125 -0.03125 0.578125 -0.09375 C 0.578125 -0.15625 0.59375 -0.1875 0.625 -0.1875 C 0.945312 -0.1875 1.179688 -0.207031 1.328125 -0.25 C 1.472656 -0.300781 1.566406 -0.398438 1.609375 -0.546875 C 1.660156 -0.691406 1.6875 -0.914062 1.6875 -1.21875 L 1.6875 -8.234375 C 1.6875 -8.535156 1.660156 -8.753906 1.609375 -8.890625 C 1.566406 -9.035156 1.46875 -9.132812 1.3125 -9.1875 C 1.164062 -9.238281 0.9375 -9.265625 0.625 -9.265625 C 0.59375 -9.265625 0.578125 -9.296875 0.578125 -9.359375 C 0.578125 -9.421875 0.59375 -9.453125 0.625 -9.453125 L 7.03125 -9.453125 C 7.132812 -9.453125 7.1875 -9.40625 7.1875 -9.3125 L 7.21875 -7.3125 C 7.21875 -7.289062 7.1875 -7.273438 7.125 -7.265625 C 7.070312 -7.253906 7.039062 -7.265625 7.03125 -7.296875 C 6.875 -7.878906 6.601562 -8.3125 6.21875 -8.59375 C 5.832031 -8.875 5.328125 -9.015625 4.703125 -9.015625 L 4.25 -9.015625 C 3.945312 -9.015625 3.722656 -8.945312 3.578125 -8.8125 C 3.441406 -8.6875 3.375 -8.488281 3.375 -8.21875 L 3.375 -5.125 L 4.625 -5.125 C 5.207031 -5.125 5.65625 -5.222656 5.96875 -5.421875 C 6.28125 -5.628906 6.4375 -5.914062 6.4375 -6.28125 C 6.4375 -6.3125 6.460938 -6.328125 6.515625 -6.328125 C 6.578125 -6.328125 6.609375 -6.3125 6.609375 -6.28125 L 6.59375 -4.921875 L 6.609375 -4.1875 C 6.628906 -3.84375 6.640625 -3.570312 6.640625 -3.375 C 6.640625 -3.351562 6.609375 -3.34375 6.546875 -3.34375 C 6.484375 -3.34375 6.453125 -3.351562 6.453125 -3.375 C 6.453125 -3.789062 6.289062 -4.113281 5.96875 -4.34375 C 5.65625 -4.582031 5.203125 -4.703125 4.609375 -4.703125 L 3.375 -4.703125 L 3.375 -1.28125 C 3.375 -0.988281 3.425781 -0.769531 3.53125 -0.625 C 3.644531 -0.488281 3.820312 -0.421875 4.0625 -0.421875 L 4.5625 -0.421875 C 5.351562 -0.421875 5.984375 -0.582031 6.453125 -0.90625 C 6.929688 -1.226562 7.28125 -1.726562 7.5 -2.40625 Z M 7.5 -2.40625 "/></g></g></g><g fill="#f8f6f0" fill-opacity="1"><g transform="translate(155.902099, 14.290485)"><g><path d="M 6.453125 -9.625 C 6.929688 -9.625 7.414062 -9.582031 7.90625 -9.5 C 8.394531 -9.425781 8.785156 -9.332031 9.078125 -9.21875 C 9.171875 -9.1875 9.226562 -9.144531 9.25 -9.09375 C 9.269531 -9.050781 9.285156 -8.972656 9.296875 -8.859375 L 9.5 -6.765625 C 9.5 -6.734375 9.472656 -6.710938 9.421875 -6.703125 C 9.367188 -6.691406 9.332031 -6.707031 9.3125 -6.75 C 9.03125 -7.570312 8.628906 -8.203125 8.109375 -8.640625 C 7.585938 -9.078125 6.957031 -9.296875 6.21875 -9.296875 C 5.53125 -9.296875 4.914062 -9.113281 4.375 -8.75 C 3.832031 -8.382812 3.40625 -7.859375 3.09375 -7.171875 C 2.789062 -6.484375 2.640625 -5.679688 2.640625 -4.765625 C 2.640625 -3.835938 2.796875 -3.019531 3.109375 -2.3125 C 3.429688 -1.613281 3.875 -1.078125 4.4375 -0.703125 C 5 -0.328125 5.644531 -0.140625 6.375 -0.140625 C 7.0625 -0.140625 7.640625 -0.328125 8.109375 -0.703125 C 8.585938 -1.078125 9.039062 -1.703125 9.46875 -2.578125 C 9.476562 -2.597656 9.507812 -2.601562 9.5625 -2.59375 C 9.613281 -2.59375 9.640625 -2.578125 9.640625 -2.546875 L 9.40625 -0.671875 C 9.382812 -0.546875 9.363281 -0.460938 9.34375 -0.421875 C 9.320312 -0.390625 9.269531 -0.351562 9.1875 -0.3125 C 8.257812 0.0195312 7.320312 0.1875 6.375 0.1875 C 5.289062 0.1875 4.320312 -0.015625 3.46875 -0.421875 C 2.613281 -0.835938 1.941406 -1.410156 1.453125 -2.140625 C 0.972656 -2.878906 0.734375 -3.71875 0.734375 -4.65625 C 0.734375 -5.613281 0.984375 -6.46875 1.484375 -7.21875 C 1.984375 -7.96875 2.671875 -8.554688 3.546875 -8.984375 C 4.421875 -9.410156 5.390625 -9.625 6.453125 -9.625 Z M 6.453125 -9.625 "/></g></g></g><g fill="#f8f6f0" fill-opacity="1"><g transform="translate(169.024612, 14.290485)"><g><path d="M 3.359375 -9.109375 C 2.160156 -9.109375 1.296875 -8.328125 0.765625 -6.765625 C 0.753906 -6.734375 0.722656 -6.71875 0.671875 -6.71875 C 0.628906 -6.726562 0.609375 -6.75 0.609375 -6.78125 C 0.648438 -7.175781 0.691406 -7.691406 0.734375 -8.328125 C 0.785156 -8.972656 0.8125 -9.457031 0.8125 -9.78125 C 0.8125 -9.832031 0.835938 -9.859375 0.890625 -9.859375 C 0.953125 -9.859375 0.984375 -9.832031 0.984375 -9.78125 C 0.984375 -9.5625 1.269531 -9.453125 1.84375 -9.453125 C 2.707031 -9.421875 3.722656 -9.40625 4.890625 -9.40625 C 5.484375 -9.40625 6.113281 -9.414062 6.78125 -9.4375 L 7.796875 -9.453125 C 8.179688 -9.453125 8.460938 -9.476562 8.640625 -9.53125 C 8.816406 -9.582031 8.929688 -9.679688 8.984375 -9.828125 C 8.992188 -9.867188 9.023438 -9.890625 9.078125 -9.890625 C 9.140625 -9.890625 9.171875 -9.867188 9.171875 -9.828125 C 9.140625 -9.523438 9.101562 -9.039062 9.0625 -8.375 C 9.03125 -7.707031 9.015625 -7.175781 9.015625 -6.78125 C 9.015625 -6.75 8.988281 -6.734375 8.9375 -6.734375 C 8.882812 -6.734375 8.851562 -6.75 8.84375 -6.78125 C 8.695312 -7.550781 8.414062 -8.128906 8 -8.515625 C 7.582031 -8.910156 7.070312 -9.109375 6.46875 -9.109375 C 6.175781 -9.109375 5.984375 -9.046875 5.890625 -8.921875 C 5.796875 -8.796875 5.75 -8.554688 5.75 -8.203125 L 5.75 -1.21875 C 5.75 -0.90625 5.773438 -0.675781 5.828125 -0.53125 C 5.890625 -0.394531 6.003906 -0.300781 6.171875 -0.25 C 6.347656 -0.207031 6.625 -0.1875 7 -0.1875 C 7.03125 -0.1875 7.046875 -0.15625 7.046875 -0.09375 C 7.046875 -0.03125 7.03125 0 7 0 C 6.632812 0 6.347656 -0.00390625 6.140625 -0.015625 L 4.890625 -0.03125 L 3.65625 -0.015625 C 3.445312 -0.00390625 3.15625 0 2.78125 0 C 2.75 0 2.734375 -0.03125 2.734375 -0.09375 C 2.734375 -0.15625 2.75 -0.1875 2.78125 -0.1875 C 3.144531 -0.1875 3.414062 -0.207031 3.59375 -0.25 C 3.769531 -0.300781 3.890625 -0.398438 3.953125 -0.546875 C 4.015625 -0.691406 4.046875 -0.914062 4.046875 -1.21875 L 4.046875 -8.234375 C 4.046875 -8.578125 4 -8.804688 3.90625 -8.921875 C 3.820312 -9.046875 3.640625 -9.109375 3.359375 -9.109375 Z M 3.359375 -9.109375 "/></g></g></g><g fill="#f8f6f0" fill-opacity="1"><g transform="translate(181.572639, 14.290485)"><g><path d="M 3.4375 -1.21875 C 3.4375 -0.90625 3.457031 -0.675781 3.5 -0.53125 C 3.550781 -0.394531 3.648438 -0.300781 3.796875 -0.25 C 3.941406 -0.207031 4.175781 -0.1875 4.5 -0.1875 C 4.53125 -0.1875 4.546875 -0.15625 4.546875 -0.09375 C 4.546875 -0.03125 4.53125 0 4.5 0 C 4.175781 0 3.914062 -0.00390625 3.71875 -0.015625 L 2.578125 -0.03125 L 1.453125 -0.015625 C 1.253906 -0.00390625 0.984375 0 0.640625 0 C 0.617188 0 0.609375 -0.03125 0.609375 -0.09375 C 0.609375 -0.15625 0.617188 -0.1875 0.640625 -0.1875 C 0.960938 -0.1875 1.195312 -0.207031 1.34375 -0.25 C 1.5 -0.300781 1.601562 -0.398438 1.65625 -0.546875 C 1.707031 -0.691406 1.734375 -0.914062 1.734375 -1.21875 L 1.734375 -8.234375 C 1.734375 -8.535156 1.707031 -8.753906 1.65625 -8.890625 C 1.601562 -9.035156 1.5 -9.132812 1.34375 -9.1875 C 1.195312 -9.238281 0.960938 -9.265625 0.640625 -9.265625 C 0.617188 -9.265625 0.609375 -9.296875 0.609375 -9.359375 C 0.609375 -9.421875 0.617188 -9.453125 0.640625 -9.453125 L 1.453125 -9.4375 C 1.910156 -9.414062 2.285156 -9.40625 2.578125 -9.40625 C 2.890625 -9.40625 3.273438 -9.414062 3.734375 -9.4375 L 4.5 -9.453125 C 4.53125 -9.453125 4.546875 -9.421875 4.546875 -9.359375 C 4.546875 -9.296875 4.53125 -9.265625 4.5 -9.265625 C 4.1875 -9.265625 3.953125 -9.234375 3.796875 -9.171875 C 3.648438 -9.117188 3.550781 -9.019531 3.5 -8.875 C 3.457031 -8.726562 3.4375 -8.503906 3.4375 -8.203125 Z M 3.4375 -1.21875 "/></g></g></g><g fill="#f8f6f0" fill-opacity="1"><g transform="translate(189.57013, 14.290485)"><g><path d="M 10.0625 -9.453125 C 10.09375 -9.453125 10.109375 -9.421875 10.109375 -9.359375 C 10.109375 -9.296875 10.09375 -9.265625 10.0625 -9.265625 C 9.695312 -9.265625 9.347656 -9.101562 9.015625 -8.78125 C 8.679688 -8.457031 8.414062 -8.023438 8.21875 -7.484375 L 5.421875 -0.015625 C 5.410156 0.0234375 5.351562 0.046875 5.25 0.046875 C 5.144531 0.046875 5.085938 0.0234375 5.078125 -0.015625 L 1.21875 -8.203125 C 1.039062 -8.566406 0.859375 -8.832031 0.671875 -9 C 0.492188 -9.175781 0.296875 -9.265625 0.078125 -9.265625 C 0.046875 -9.265625 0.03125 -9.296875 0.03125 -9.359375 C 0.03125 -9.421875 0.046875 -9.453125 0.078125 -9.453125 C 0.222656 -9.453125 0.328125 -9.445312 0.390625 -9.4375 C 0.597656 -9.414062 0.863281 -9.40625 1.1875 -9.40625 C 2.050781 -9.40625 2.785156 -9.414062 3.390625 -9.4375 C 3.546875 -9.445312 3.75 -9.453125 4 -9.453125 C 4.019531 -9.453125 4.03125 -9.421875 4.03125 -9.359375 C 4.03125 -9.296875 4.019531 -9.265625 4 -9.265625 C 3.695312 -9.265625 3.460938 -9.203125 3.296875 -9.078125 C 3.128906 -8.953125 3.046875 -8.773438 3.046875 -8.546875 C 3.046875 -8.367188 3.097656 -8.160156 3.203125 -7.921875 L 5.828125 -2.34375 L 7.796875 -7.53125 C 7.890625 -7.8125 7.9375 -8.054688 7.9375 -8.265625 C 7.9375 -8.578125 7.84375 -8.820312 7.65625 -9 C 7.46875 -9.175781 7.203125 -9.265625 6.859375 -9.265625 C 6.828125 -9.265625 6.8125 -9.296875 6.8125 -9.359375 C 6.8125 -9.421875 6.828125 -9.453125 6.859375 -9.453125 L 7.59375 -9.4375 C 8.019531 -9.414062 8.398438 -9.40625 8.734375 -9.40625 C 8.921875 -9.40625 9.15625 -9.414062 9.4375 -9.4375 Z M 10.0625 -9.453125 "/></g></g></g><g fill="#f8f6f0" fill-opacity="1"><g transform="translate(202.375164, 14.290485)"><g><path d="M 7.5 -2.40625 C 7.5 -2.425781 7.519531 -2.4375 7.5625 -2.4375 C 7.59375 -2.4375 7.617188 -2.425781 7.640625 -2.40625 C 7.671875 -2.394531 7.6875 -2.382812 7.6875 -2.375 C 7.582031 -1.582031 7.53125 -0.867188 7.53125 -0.234375 C 7.53125 -0.148438 7.515625 -0.0859375 7.484375 -0.046875 C 7.453125 -0.015625 7.394531 0 7.3125 0 L 0.625 0 C 0.59375 0 0.578125 -0.03125 0.578125 -0.09375 C 0.578125 -0.15625 0.59375 -0.1875 0.625 -0.1875 C 0.945312 -0.1875 1.179688 -0.207031 1.328125 -0.25 C 1.472656 -0.300781 1.566406 -0.398438 1.609375 -0.546875 C 1.660156 -0.691406 1.6875 -0.914062 1.6875 -1.21875 L 1.6875 -8.234375 C 1.6875 -8.535156 1.660156 -8.753906 1.609375 -8.890625 C 1.566406 -9.035156 1.46875 -9.132812 1.3125 -9.1875 C 1.164062 -9.238281 0.9375 -9.265625 0.625 -9.265625 C 0.59375 -9.265625 0.578125 -9.296875 0.578125 -9.359375 C 0.578125 -9.421875 0.59375 -9.453125 0.625 -9.453125 L 7.03125 -9.453125 C 7.132812 -9.453125 7.1875 -9.40625 7.1875 -9.3125 L 7.21875 -7.3125 C 7.21875 -7.289062 7.1875 -7.273438 7.125 -7.265625 C 7.070312 -7.253906 7.039062 -7.265625 7.03125 -7.296875 C 6.875 -7.878906 6.601562 -8.3125 6.21875 -8.59375 C 5.832031 -8.875 5.328125 -9.015625 4.703125 -9.015625 L 4.25 -9.015625 C 3.945312 -9.015625 3.722656 -8.945312 3.578125 -8.8125 C 3.441406 -8.6875 3.375 -8.488281 3.375 -8.21875 L 3.375 -5.125 L 4.625 -5.125 C 5.207031 -5.125 5.65625 -5.222656 5.96875 -5.421875 C 6.28125 -5.628906 6.4375 -5.914062 6.4375 -6.28125 C 6.4375 -6.3125 6.460938 -6.328125 6.515625 -6.328125 C 6.578125 -6.328125 6.609375 -6.3125 6.609375 -6.28125 L 6.59375 -4.921875 L 6.609375 -4.1875 C 6.628906 -3.84375 6.640625 -3.570312 6.640625 -3.375 C 6.640625 -3.351562 6.609375 -3.34375 6.546875 -3.34375 C 6.484375 -3.34375 6.453125 -3.351562 6.453125 -3.375 C 6.453125 -3.789062 6.289062 -4.113281 5.96875 -4.34375 C 5.65625 -4.582031 5.203125 -4.703125 4.609375 -4.703125 L 3.375 -4.703125 L 3.375 -1.28125 C 3.375 -0.988281 3.425781 -0.769531 3.53125 -0.625 C 3.644531 -0.488281 3.820312 -0.421875 4.0625 -0.421875 L 4.5625 -0.421875 C 5.351562 -0.421875 5.984375 -0.582031 6.453125 -0.90625 C 6.929688 -1.226562 7.28125 -1.726562 7.5 -2.40625 Z M 7.5 -2.40625 "/></g></g></g></g></g><g mask="url(#1aeb29539e)"><g transform="matrix(1, 0, 0, 1, 164, 25)"><g clip-path="url(#a71456db21)"><g clip-path="url(#0d01432f10)"><path fill="#f8f6f0" d="M 141.984375 6.292969 C 141.832031 6.113281 141.527344 6.082031 141.34375 6.234375 C 132.695312 13.207031 128.492188 9.886719 124.046875 6.355469 C 119.722656 2.914062 115.246094 -0.648438 106.808594 5.5625 C 106.746094 5.59375 106.6875 5.625 106.65625 5.65625 C 98.007812 12.628906 93.804688 9.308594 89.355469 5.777344 C 84.820312 2.183594 80.128906 -1.5625 70.898438 5.898438 C 70.871094 5.929688 70.839844 5.960938 70.808594 6.019531 C 62.707031 12.140625 58.625 8.914062 54.332031 5.472656 C 50.039062 2.03125 45.53125 -1.53125 37.09375 4.679688 C 37.035156 4.710938 36.972656 4.742188 36.910156 4.773438 C 28.261719 11.746094 24.058594 8.425781 19.613281 4.894531 C 15.011719 1.207031 10.324219 -2.507812 1.125 4.925781 C 0.941406 5.078125 0.914062 5.382812 1.066406 5.5625 C 1.21875 5.746094 1.523438 5.777344 1.703125 5.625 C 10.355469 -1.351562 14.558594 1.96875 19.003906 5.503906 C 21.621094 7.574219 24.273438 9.707031 27.835938 9.707031 C 30.179688 9.707031 32.921875 8.792969 36.273438 6.324219 C 36.332031 6.292969 36.394531 6.292969 36.453125 6.234375 C 45.105469 -0.742188 49.308594 2.578125 53.753906 6.113281 C 56.371094 8.183594 59.023438 10.316406 62.585938 10.316406 C 65.203125 10.316406 68.3125 9.15625 72.210938 6.019531 C 72.242188 5.992188 72.269531 5.960938 72.300781 5.898438 C 80.402344 -0.222656 84.484375 3.003906 88.777344 6.417969 C 91.398438 8.488281 94.046875 10.621094 97.609375 10.621094 C 99.957031 10.621094 102.664062 9.707031 106.046875 7.238281 C 106.109375 7.207031 106.167969 7.179688 106.199219 7.148438 C 114.847656 0.171875 119.050781 3.492188 123.496094 7.027344 C 126.117188 9.097656 128.765625 11.230469 132.332031 11.230469 C 134.949219 11.230469 138.054688 10.070312 141.953125 6.933594 C 142.105469 6.78125 142.136719 6.507812 141.984375 6.292969 Z M 141.984375 6.292969 " fill-opacity="1" fill-rule="nonzero"/></g></g></g></g><g clip-path="url(#aa220e7099)"><path fill="#f8f6f0" d="M 305.984375 47.558594 C 305.832031 47.378906 305.527344 47.347656 305.34375 47.5 C 296.695312 54.472656 292.492188 51.152344 288.046875 47.621094 C 283.722656 44.179688 279.246094 40.617188 270.808594 46.828125 C 270.746094 46.859375 270.6875 46.890625 270.65625 46.921875 C 262.007812 53.894531 257.804688 50.574219 253.355469 47.042969 C 248.820312 43.449219 244.128906 39.703125 234.898438 47.164062 C 234.871094 47.195312 234.839844 47.226562 234.808594 47.285156 C 226.707031 53.40625 222.625 50.179688 218.332031 46.738281 C 214.039062 43.296875 209.53125 39.734375 201.09375 45.945312 C 201.035156 45.976562 200.972656 46.007812 200.910156 46.039062 C 192.261719 53.011719 188.058594 49.691406 183.613281 46.160156 C 179.011719 42.472656 174.324219 38.757812 165.125 46.191406 C 164.941406 46.339844 164.914062 46.644531 165.066406 46.828125 C 165.21875 47.011719 165.523438 47.042969 165.703125 46.890625 C 174.355469 39.914062 178.558594 43.234375 183.003906 46.769531 C 185.621094 48.839844 188.273438 50.972656 191.835938 50.972656 C 194.179688 50.972656 196.921875 50.058594 200.273438 47.589844 C 200.332031 47.558594 200.394531 47.558594 200.453125 47.5 C 209.105469 40.523438 213.308594 43.84375 217.753906 47.378906 C 220.371094 49.449219 223.023438 51.582031 226.585938 51.582031 C 229.203125 51.582031 232.3125 50.421875 236.210938 47.285156 C 236.242188 47.253906 236.269531 47.226562 236.300781 47.164062 C 244.402344 41.042969 248.484375 44.269531 252.777344 47.683594 C 255.398438 49.753906 258.046875 51.886719 261.609375 51.886719 C 263.957031 51.886719 266.664062 50.972656 270.046875 48.503906 C 270.109375 48.472656 270.167969 48.441406 270.199219 48.414062 C 278.847656 41.4375 283.050781 44.757812 287.496094 48.289062 C 290.117188 50.363281 292.765625 52.492188 296.332031 52.492188 C 298.949219 52.492188 302.054688 51.335938 305.953125 48.199219 C 306.105469 48.046875 306.136719 47.773438 305.984375 47.558594 Z M 305.984375 47.558594 " fill-opacity="1" fill-rule="nonzero"/></g></svg>