<svg xmlns="http://www.w3.org/2000/svg" xmlns:xlink="http://www.w3.org/1999/xlink" width="2000" zoomAndPan="magnify" viewBox="0 0 1500 1499.999933" height="2000" preserveAspectRatio="xMidYMid meet" version="1.0"><defs><filter x="0%" y="0%" width="100%" height="100%" id="cc8a0c689c"><feColorMatrix values="0 0 0 0 1 0 0 0 0 1 0 0 0 0 1 0 0 0 1 0" color-interpolation-filters="sRGB"/></filter><g/><mask id="c9f5141a92"><g filter="url(#cc8a0c689c)"><rect x="-150" width="1800" fill="#000000" y="-149.999993" height="1799.99992" fill-opacity="0.55"/></g></mask><clipPath id="8dca9488c9"><path d="M 0.71875 0.71875 L 288.5625 0.71875 L 288.5625 68.640625 L 0.71875 68.640625 Z M 0.71875 0.71875 " clip-rule="nonzero"/></clipPath><clipPath id="c273d4a06e"><rect x="0" width="894" y="0" height="69"/></clipPath><mask id="8b7b4c163d"><g filter="url(#cc8a0c689c)"><rect x="-150" width="1800" fill="#000000" y="-149.999993" height="1799.99992" fill-opacity="0.17"/></g></mask><clipPath id="0b94b60c8a"><path d="M 0.71875 0.800781 L 288.5625 0.800781 L 288.5625 68.71875 L 0.71875 68.71875 Z M 0.71875 0.800781 " clip-rule="nonzero"/></clipPath><clipPath id="b38571de5a"><rect x="0" width="894" y="0" height="69"/></clipPath><clipPath id="15ad292ede"><path d="M 606 570 L 894.5625 570 L 894.5625 638 L 606 638 Z M 606 570 " clip-rule="nonzero"/></clipPath></defs><rect x="-150" width="1800" fill="#ffffff" y="-149.999993" height="1799.99992" fill-opacity="1"/><rect x="-150" width="1800" fill="#a8c1a3" y="-149.999993" height="1799.99992" fill-opacity="1"/><g mask="url(#c9f5141a92)"><g transform="matrix(1, 0, 0, 1, 606, 516)"><g clip-path="url(#c273d4a06e)"><g clip-path="url(#8dca9488c9)"><path fill="#f8f6f0" d="M 895.183594 36.742188 C 894.21875 35.582031 892.285156 35.390625 891.128906 36.355469 C 836.277344 80.582031 809.625 59.53125 781.429688 37.128906 C 754.003906 15.304688 725.613281 -7.292969 672.117188 32.105469 C 671.730469 32.300781 671.34375 32.492188 671.148438 32.6875 C 616.300781 76.914062 589.648438 55.863281 561.449219 33.460938 C 532.675781 10.667969 502.933594 -13.085938 444.414062 34.230469 C 444.21875 34.425781 444.027344 34.617188 443.832031 35.003906 C 392.460938 73.824219 366.582031 53.351562 339.347656 31.527344 C 312.117188 9.703125 283.535156 -12.894531 230.035156 26.507812 C 229.648438 26.699219 229.261719 26.890625 228.878906 27.085938 C 174.027344 71.3125 147.375 50.261719 119.179688 27.859375 C 90.015625 4.488281 60.273438 -19.074219 1.945312 28.050781 C 0.789062 29.015625 0.59375 30.949219 1.5625 32.105469 C 2.527344 33.265625 4.457031 33.460938 5.617188 32.492188 C 60.464844 -11.734375 87.117188 9.316406 115.316406 31.722656 C 131.925781 44.855469 148.726562 58.375 171.324219 58.375 C 186.195312 58.375 203.578125 52.578125 224.820312 36.933594 C 225.207031 36.742188 225.59375 36.742188 225.980469 36.355469 C 280.828125 -7.871094 307.480469 13.179688 335.679688 35.582031 C 352.289062 48.714844 369.089844 62.234375 391.6875 62.234375 C 408.296875 62.234375 427.996094 54.898438 452.71875 35.003906 C 452.910156 34.8125 453.105469 34.617188 453.296875 34.230469 C 504.671875 -4.589844 530.550781 15.882812 557.78125 37.515625 C 574.390625 50.648438 591.195312 64.167969 613.789062 64.167969 C 628.660156 64.167969 645.851562 58.375 667.289062 42.730469 C 667.675781 42.535156 668.058594 42.34375 668.253906 42.148438 C 723.101562 -2.078125 749.753906 18.972656 777.953125 41.378906 C 794.5625 54.511719 811.363281 68.03125 833.960938 68.03125 C 850.570312 68.03125 870.269531 60.691406 894.992188 40.796875 C 895.957031 39.832031 896.148438 38.09375 895.183594 36.742188 Z M 895.183594 36.742188 " fill-opacity="1" fill-rule="nonzero"/></g></g></g></g><g fill="#f8f6f0" fill-opacity="1"><g transform="translate(502.404893, 855.70109)"><g><path d="M 52.390625 -35.0625 C 52.503906 -35.0625 52.5625 -34.945312 52.5625 -34.71875 C 52.5625 -34.5 52.503906 -34.390625 52.390625 -34.390625 C 51.160156 -34.390625 50.078125 -34.050781 49.140625 -33.375 C 48.203125 -32.695312 47.394531 -31.554688 46.71875 -29.953125 L 34.78125 -0.0625 C 34.738281 0.09375 34.53125 0.171875 34.15625 0.171875 C 33.863281 0.171875 33.660156 0.09375 33.546875 -0.0625 L 26.25 -15.9375 L 19.90625 -0.0625 C 19.875 0.09375 19.671875 0.171875 19.296875 0.171875 C 18.992188 0.171875 18.785156 0.09375 18.671875 -0.0625 L 4.71875 -30.40625 C 4.039062 -31.894531 3.363281 -32.929688 2.6875 -33.515625 C 2.019531 -34.097656 1.101562 -34.390625 -0.0625 -34.390625 C -0.164062 -34.390625 -0.21875 -34.5 -0.21875 -34.71875 C -0.21875 -34.945312 -0.164062 -35.0625 -0.0625 -35.0625 L 2.078125 -35 C 3.117188 -34.925781 3.957031 -34.890625 4.59375 -34.890625 C 5.945312 -34.890625 7.40625 -34.925781 8.96875 -35 L 11.28125 -35.0625 C 11.382812 -35.0625 11.4375 -34.945312 11.4375 -34.71875 C 11.4375 -34.5 11.382812 -34.390625 11.28125 -34.390625 C 10.15625 -34.390625 9.320312 -34.253906 8.78125 -33.984375 C 8.238281 -33.722656 7.96875 -33.273438 7.96875 -32.640625 C 7.96875 -32.085938 8.15625 -31.414062 8.53125 -30.625 L 20.46875 -5 L 25.515625 -17.5 L 19.578125 -30.40625 C 18.941406 -31.820312 18.285156 -32.835938 17.609375 -33.453125 C 16.941406 -34.078125 16.066406 -34.390625 14.984375 -34.390625 C 14.867188 -34.390625 14.8125 -34.5 14.8125 -34.71875 C 14.8125 -34.945312 14.867188 -35.0625 14.984375 -35.0625 L 17.046875 -35 C 18.097656 -34.925781 18.90625 -34.890625 19.46875 -34.890625 C 20.550781 -34.890625 21.65625 -34.925781 22.78125 -35 L 24.34375 -35.0625 C 24.457031 -35.0625 24.515625 -34.945312 24.515625 -34.71875 C 24.515625 -34.5 24.457031 -34.390625 24.34375 -34.390625 C 23.632812 -34.390625 23.140625 -34.332031 22.859375 -34.21875 C 22.578125 -34.101562 22.4375 -33.878906 22.4375 -33.546875 C 22.4375 -33.054688 22.773438 -32.082031 23.453125 -30.625 L 27.546875 -21.875 L 30.84375 -30.234375 C 31.257812 -31.359375 31.46875 -32.203125 31.46875 -32.765625 C 31.46875 -33.316406 31.28125 -33.722656 30.90625 -33.984375 C 30.53125 -34.253906 29.929688 -34.390625 29.109375 -34.390625 C 28.992188 -34.390625 28.9375 -34.5 28.9375 -34.71875 C 28.9375 -34.945312 28.992188 -35.0625 29.109375 -35.0625 L 30.40625 -35 C 31.15625 -34.925781 31.941406 -34.890625 32.765625 -34.890625 C 33.503906 -34.890625 34.363281 -34.925781 35.34375 -35 L 37.640625 -35.0625 C 37.710938 -35.0625 37.75 -34.945312 37.75 -34.71875 C 37.75 -34.5 37.710938 -34.390625 37.640625 -34.390625 C 36.367188 -34.390625 35.285156 -34.0625 34.390625 -33.40625 C 33.492188 -32.75 32.722656 -31.597656 32.078125 -29.953125 L 28.265625 -20.359375 L 35.390625 -5 L 45.4375 -30.125 C 45.738281 -30.90625 45.890625 -31.554688 45.890625 -32.078125 C 45.890625 -32.867188 45.550781 -33.453125 44.875 -33.828125 C 44.195312 -34.203125 43.128906 -34.390625 41.671875 -34.390625 C 41.566406 -34.390625 41.515625 -34.5 41.515625 -34.71875 C 41.515625 -34.945312 41.566406 -35.0625 41.671875 -35.0625 L 44.03125 -35 C 45.226562 -34.925781 46.351562 -34.890625 47.40625 -34.890625 C 48.1875 -34.890625 49.0625 -34.925781 50.03125 -35 Z M 52.390625 -35.0625 "/></g></g></g><g fill="#f8f6f0" fill-opacity="1"><g transform="translate(554.631833, 855.70109)"><g><path d="M 20.140625 -3.140625 C 20.253906 -3.140625 20.359375 -3.070312 20.453125 -2.9375 C 20.546875 -2.8125 20.550781 -2.691406 20.46875 -2.578125 C 18 -0.410156 15.269531 0.671875 12.28125 0.671875 C 10.113281 0.671875 8.265625 0.164062 6.734375 -0.84375 C 5.203125 -1.851562 4.03125 -3.179688 3.21875 -4.828125 C 2.414062 -6.472656 2.015625 -8.226562 2.015625 -10.09375 C 2.015625 -12.300781 2.535156 -14.328125 3.578125 -16.171875 C 4.628906 -18.023438 6.0625 -19.484375 7.875 -20.546875 C 9.695312 -21.617188 11.691406 -22.15625 13.859375 -22.15625 C 15.953125 -22.15625 17.554688 -21.59375 18.671875 -20.46875 C 19.796875 -19.351562 20.359375 -17.785156 20.359375 -15.765625 C 20.359375 -15.242188 20.3125 -14.867188 20.21875 -14.640625 C 20.125 -14.410156 19.96875 -14.296875 19.75 -14.296875 L 5.828125 -14.25 C 5.753906 -13.425781 5.71875 -12.753906 5.71875 -12.234375 C 5.71875 -8.972656 6.484375 -6.332031 8.015625 -4.3125 C 9.554688 -2.300781 11.707031 -1.296875 14.46875 -1.296875 C 15.59375 -1.296875 16.554688 -1.441406 17.359375 -1.734375 C 18.160156 -2.035156 19.066406 -2.503906 20.078125 -3.140625 Z M 12 -21.03125 C 10.394531 -21.03125 9.066406 -20.5 8.015625 -19.4375 C 6.972656 -18.375 6.285156 -16.890625 5.953125 -14.984375 L 16.609375 -15.203125 C 16.609375 -17.109375 16.195312 -18.554688 15.375 -19.546875 C 14.550781 -20.535156 13.425781 -21.03125 12 -21.03125 Z M 12 -21.03125 "/></g></g></g><g fill="#f8f6f0" fill-opacity="1"><g transform="translate(577.519683, 855.70109)"><g><path d="M 2.25 0 C 2.132812 0 2.078125 -0.109375 2.078125 -0.328125 C 2.078125 -0.554688 2.132812 -0.671875 2.25 -0.671875 C 3.257812 -0.671875 4.003906 -0.773438 4.484375 -0.984375 C 4.972656 -1.191406 5.3125 -1.566406 5.5 -2.109375 C 5.6875 -2.648438 5.78125 -3.460938 5.78125 -4.546875 L 5.78125 -33.546875 C 5.78125 -34.890625 5.648438 -35.859375 5.390625 -36.453125 C 5.128906 -37.054688 4.660156 -37.359375 3.984375 -37.359375 C 3.421875 -37.359375 2.5625 -37.097656 1.40625 -36.578125 L 1.296875 -36.578125 C 1.179688 -36.578125 1.09375 -36.671875 1.03125 -36.859375 C 0.976562 -37.046875 1.007812 -37.15625 1.125 -37.1875 L 8.296875 -40.609375 C 8.367188 -40.648438 8.460938 -40.671875 8.578125 -40.671875 C 8.648438 -40.671875 8.753906 -40.625 8.890625 -40.53125 C 9.023438 -40.4375 9.09375 -40.332031 9.09375 -40.21875 L 9.09375 -4.546875 C 9.09375 -3.460938 9.175781 -2.65625 9.34375 -2.125 C 9.507812 -1.601562 9.832031 -1.226562 10.3125 -1 C 10.800781 -0.78125 11.550781 -0.671875 12.5625 -0.671875 C 12.675781 -0.671875 12.734375 -0.554688 12.734375 -0.328125 C 12.734375 -0.109375 12.675781 0 12.5625 0 C 11.738281 0 11.066406 -0.0195312 10.546875 -0.0625 L 7.40625 -0.109375 L 4.375 -0.0625 C 3.851562 -0.0195312 3.144531 0 2.25 0 Z M 2.25 0 "/></g></g></g><g fill="#f8f6f0" fill-opacity="1"><g transform="translate(591.992887, 855.70109)"><g><path d="M 2.25 0 C 2.132812 0 2.078125 -0.109375 2.078125 -0.328125 C 2.078125 -0.554688 2.132812 -0.671875 2.25 -0.671875 C 3.257812 -0.671875 4.003906 -0.773438 4.484375 -0.984375 C 4.972656 -1.191406 5.3125 -1.566406 5.5 -2.109375 C 5.6875 -2.648438 5.78125 -3.460938 5.78125 -4.546875 L 5.78125 -33.546875 C 5.78125 -34.890625 5.648438 -35.859375 5.390625 -36.453125 C 5.128906 -37.054688 4.660156 -37.359375 3.984375 -37.359375 C 3.421875 -37.359375 2.5625 -37.097656 1.40625 -36.578125 L 1.296875 -36.578125 C 1.179688 -36.578125 1.09375 -36.671875 1.03125 -36.859375 C 0.976562 -37.046875 1.007812 -37.15625 1.125 -37.1875 L 8.296875 -40.609375 C 8.367188 -40.648438 8.460938 -40.671875 8.578125 -40.671875 C 8.648438 -40.671875 8.753906 -40.625 8.890625 -40.53125 C 9.023438 -40.4375 9.09375 -40.332031 9.09375 -40.21875 L 9.09375 -4.546875 C 9.09375 -3.460938 9.175781 -2.65625 9.34375 -2.125 C 9.507812 -1.601562 9.832031 -1.226562 10.3125 -1 C 10.800781 -0.78125 11.550781 -0.671875 12.5625 -0.671875 C 12.675781 -0.671875 12.734375 -0.554688 12.734375 -0.328125 C 12.734375 -0.109375 12.675781 0 12.5625 0 C 11.738281 0 11.066406 -0.0195312 10.546875 -0.0625 L 7.40625 -0.109375 L 4.375 -0.0625 C 3.851562 -0.0195312 3.144531 0 2.25 0 Z M 2.25 0 "/></g></g></g><g fill="#f8f6f0" fill-opacity="1"><g transform="translate(606.466091, 855.70109)"><g><path d="M 27.765625 -0.671875 C 27.878906 -0.671875 27.9375 -0.554688 27.9375 -0.328125 C 27.9375 -0.109375 27.878906 0 27.765625 0 C 26.898438 0 26.226562 -0.0195312 25.75 -0.0625 L 22.71875 -0.109375 L 19.625 -0.0625 C 19.144531 -0.0195312 18.472656 0 17.609375 0 C 17.492188 0 17.4375 -0.109375 17.4375 -0.328125 C 17.4375 -0.554688 17.492188 -0.671875 17.609375 -0.671875 C 18.617188 -0.671875 19.367188 -0.773438 19.859375 -0.984375 C 20.347656 -1.191406 20.675781 -1.554688 20.84375 -2.078125 C 21.007812 -2.597656 21.09375 -3.421875 21.09375 -4.546875 L 21.09375 -13.625 C 21.09375 -15.832031 20.671875 -17.457031 19.828125 -18.5 C 18.984375 -19.550781 17.6875 -20.078125 15.9375 -20.078125 C 14.769531 -20.078125 13.597656 -19.769531 12.421875 -19.15625 C 11.242188 -18.539062 10.171875 -17.691406 9.203125 -16.609375 L 9.203125 -4.546875 C 9.203125 -3.421875 9.285156 -2.597656 9.453125 -2.078125 C 9.617188 -1.554688 9.941406 -1.191406 10.421875 -0.984375 C 10.910156 -0.773438 11.660156 -0.671875 12.671875 -0.671875 C 12.785156 -0.671875 12.84375 -0.554688 12.84375 -0.328125 C 12.84375 -0.109375 12.785156 0 12.671875 0 C 11.816406 0 11.144531 -0.0195312 10.65625 -0.0625 L 7.625 -0.109375 L 4.546875 -0.0625 C 4.054688 -0.0195312 3.382812 0 2.53125 0 C 2.414062 0 2.359375 -0.109375 2.359375 -0.328125 C 2.359375 -0.554688 2.414062 -0.671875 2.53125 -0.671875 C 3.53125 -0.671875 4.273438 -0.773438 4.765625 -0.984375 C 5.253906 -1.191406 5.582031 -1.554688 5.75 -2.078125 C 5.914062 -2.597656 6 -3.421875 6 -4.546875 L 6 -15.65625 C 6 -16.925781 5.847656 -17.835938 5.546875 -18.390625 C 5.253906 -18.953125 4.75 -19.234375 4.03125 -19.234375 C 3.4375 -19.234375 2.429688 -18.957031 1.015625 -18.40625 L 0.890625 -18.40625 C 0.742188 -18.40625 0.640625 -18.488281 0.578125 -18.65625 C 0.523438 -18.820312 0.578125 -18.941406 0.734375 -19.015625 L 7.234375 -22.09375 L 7.578125 -22.15625 C 7.910156 -22.15625 8.265625 -21.722656 8.640625 -20.859375 C 9.015625 -20.003906 9.203125 -18.90625 9.203125 -17.5625 C 10.617188 -19.207031 12.023438 -20.421875 13.421875 -21.203125 C 14.828125 -21.984375 16.28125 -22.375 17.78125 -22.375 C 19.875 -22.375 21.476562 -21.796875 22.59375 -20.640625 C 23.71875 -19.484375 24.28125 -17.78125 24.28125 -15.53125 L 24.28125 -4.546875 C 24.28125 -3.421875 24.363281 -2.597656 24.53125 -2.078125 C 24.707031 -1.554688 25.035156 -1.191406 25.515625 -0.984375 C 26.003906 -0.773438 26.753906 -0.671875 27.765625 -0.671875 Z M 27.765625 -0.671875 "/></g></g></g><g fill="#f8f6f0" fill-opacity="1"><g transform="translate(635.468587, 855.70109)"><g><path d="M 20.140625 -3.140625 C 20.253906 -3.140625 20.359375 -3.070312 20.453125 -2.9375 C 20.546875 -2.8125 20.550781 -2.691406 20.46875 -2.578125 C 18 -0.410156 15.269531 0.671875 12.28125 0.671875 C 10.113281 0.671875 8.265625 0.164062 6.734375 -0.84375 C 5.203125 -1.851562 4.03125 -3.179688 3.21875 -4.828125 C 2.414062 -6.472656 2.015625 -8.226562 2.015625 -10.09375 C 2.015625 -12.300781 2.535156 -14.328125 3.578125 -16.171875 C 4.628906 -18.023438 6.0625 -19.484375 7.875 -20.546875 C 9.695312 -21.617188 11.691406 -22.15625 13.859375 -22.15625 C 15.953125 -22.15625 17.554688 -21.59375 18.671875 -20.46875 C 19.796875 -19.351562 20.359375 -17.785156 20.359375 -15.765625 C 20.359375 -15.242188 20.3125 -14.867188 20.21875 -14.640625 C 20.125 -14.410156 19.96875 -14.296875 19.75 -14.296875 L 5.828125 -14.25 C 5.753906 -13.425781 5.71875 -12.753906 5.71875 -12.234375 C 5.71875 -8.972656 6.484375 -6.332031 8.015625 -4.3125 C 9.554688 -2.300781 11.707031 -1.296875 14.46875 -1.296875 C 15.59375 -1.296875 16.554688 -1.441406 17.359375 -1.734375 C 18.160156 -2.035156 19.066406 -2.503906 20.078125 -3.140625 Z M 12 -21.03125 C 10.394531 -21.03125 9.066406 -20.5 8.015625 -19.4375 C 6.972656 -18.375 6.285156 -16.890625 5.953125 -14.984375 L 16.609375 -15.203125 C 16.609375 -17.109375 16.195312 -18.554688 15.375 -19.546875 C 14.550781 -20.535156 13.425781 -21.03125 12 -21.03125 Z M 12 -21.03125 "/></g></g></g><g fill="#f8f6f0" fill-opacity="1"><g transform="translate(658.356437, 855.70109)"><g><path d="M 5.671875 -18.234375 C 5.671875 -16.921875 6.097656 -15.878906 6.953125 -15.109375 C 7.816406 -14.347656 9.070312 -13.535156 10.71875 -12.671875 C 12.019531 -12.003906 13.035156 -11.425781 13.765625 -10.9375 C 14.492188 -10.445312 15.117188 -9.8125 15.640625 -9.03125 C 16.171875 -8.25 16.4375 -7.296875 16.4375 -6.171875 C 16.4375 -4.265625 15.722656 -2.65625 14.296875 -1.34375 C 12.878906 -0.0390625 10.957031 0.609375 8.53125 0.609375 C 6.539062 0.609375 4.742188 0.0507812 3.140625 -1.0625 C 2.910156 -1.21875 2.796875 -1.441406 2.796875 -1.734375 L 2.6875 -6.109375 C 2.6875 -6.222656 2.789062 -6.289062 3 -6.3125 C 3.207031 -6.332031 3.328125 -6.285156 3.359375 -6.171875 C 4.078125 -4.296875 5.003906 -2.875 6.140625 -1.90625 C 7.285156 -0.9375 8.601562 -0.453125 10.09375 -0.453125 C 11.332031 -0.453125 12.269531 -0.75 12.90625 -1.34375 C 13.539062 -1.945312 13.820312 -2.828125 13.75 -3.984375 C 13.707031 -5.398438 13.265625 -6.488281 12.421875 -7.25 C 11.578125 -8.019531 10.316406 -8.816406 8.640625 -9.640625 C 7.398438 -10.242188 6.414062 -10.785156 5.6875 -11.265625 C 4.957031 -11.753906 4.335938 -12.390625 3.828125 -13.171875 C 3.328125 -13.960938 3.078125 -14.9375 3.078125 -16.09375 C 3.078125 -18.113281 3.832031 -19.65625 5.34375 -20.71875 C 6.863281 -21.789062 8.65625 -22.328125 10.71875 -22.328125 C 12.207031 -22.328125 13.570312 -22.046875 14.8125 -21.484375 C 15.03125 -21.410156 15.164062 -21.328125 15.21875 -21.234375 C 15.28125 -21.140625 15.3125 -21.015625 15.3125 -20.859375 C 15.3125 -20.117188 15.289062 -19.539062 15.25 -19.125 L 15.203125 -16.765625 C 15.203125 -16.691406 15.085938 -16.65625 14.859375 -16.65625 C 14.640625 -16.65625 14.53125 -16.691406 14.53125 -16.765625 C 14.53125 -17.554688 14.226562 -18.296875 13.625 -18.984375 C 13.03125 -19.679688 12.285156 -20.234375 11.390625 -20.640625 C 10.492188 -21.054688 9.59375 -21.265625 8.6875 -21.265625 C 7.757812 -21.265625 7.023438 -21.007812 6.484375 -20.5 C 5.941406 -20 5.671875 -19.242188 5.671875 -18.234375 Z M 5.671875 -18.234375 "/></g></g></g><g fill="#f8f6f0" fill-opacity="1"><g transform="translate(677.317453, 855.70109)"><g><path d="M 5.671875 -18.234375 C 5.671875 -16.921875 6.097656 -15.878906 6.953125 -15.109375 C 7.816406 -14.347656 9.070312 -13.535156 10.71875 -12.671875 C 12.019531 -12.003906 13.035156 -11.425781 13.765625 -10.9375 C 14.492188 -10.445312 15.117188 -9.8125 15.640625 -9.03125 C 16.171875 -8.25 16.4375 -7.296875 16.4375 -6.171875 C 16.4375 -4.265625 15.722656 -2.65625 14.296875 -1.34375 C 12.878906 -0.0390625 10.957031 0.609375 8.53125 0.609375 C 6.539062 0.609375 4.742188 0.0507812 3.140625 -1.0625 C 2.910156 -1.21875 2.796875 -1.441406 2.796875 -1.734375 L 2.6875 -6.109375 C 2.6875 -6.222656 2.789062 -6.289062 3 -6.3125 C 3.207031 -6.332031 3.328125 -6.285156 3.359375 -6.171875 C 4.078125 -4.296875 5.003906 -2.875 6.140625 -1.90625 C 7.285156 -0.9375 8.601562 -0.453125 10.09375 -0.453125 C 11.332031 -0.453125 12.269531 -0.75 12.90625 -1.34375 C 13.539062 -1.945312 13.820312 -2.828125 13.75 -3.984375 C 13.707031 -5.398438 13.265625 -6.488281 12.421875 -7.25 C 11.578125 -8.019531 10.316406 -8.816406 8.640625 -9.640625 C 7.398438 -10.242188 6.414062 -10.785156 5.6875 -11.265625 C 4.957031 -11.753906 4.335938 -12.390625 3.828125 -13.171875 C 3.328125 -13.960938 3.078125 -14.9375 3.078125 -16.09375 C 3.078125 -18.113281 3.832031 -19.65625 5.34375 -20.71875 C 6.863281 -21.789062 8.65625 -22.328125 10.71875 -22.328125 C 12.207031 -22.328125 13.570312 -22.046875 14.8125 -21.484375 C 15.03125 -21.410156 15.164062 -21.328125 15.21875 -21.234375 C 15.28125 -21.140625 15.3125 -21.015625 15.3125 -20.859375 C 15.3125 -20.117188 15.289062 -19.539062 15.25 -19.125 L 15.203125 -16.765625 C 15.203125 -16.691406 15.085938 -16.65625 14.859375 -16.65625 C 14.640625 -16.65625 14.53125 -16.691406 14.53125 -16.765625 C 14.53125 -17.554688 14.226562 -18.296875 13.625 -18.984375 C 13.03125 -19.679688 12.285156 -20.234375 11.390625 -20.640625 C 10.492188 -21.054688 9.59375 -21.265625 8.6875 -21.265625 C 7.757812 -21.265625 7.023438 -21.007812 6.484375 -20.5 C 5.941406 -20 5.671875 -19.242188 5.671875 -18.234375 Z M 5.671875 -18.234375 "/></g></g></g><g fill="#f8f6f0" fill-opacity="1"><g transform="translate(696.278458, 855.70109)"><g><path d="M 5.71875 -3.984375 C 6.84375 -3.984375 7.722656 -3.5625 8.359375 -2.71875 C 8.992188 -1.875 9.3125 -0.671875 9.3125 0.890625 C 9.3125 2.390625 8.972656 3.785156 8.296875 5.078125 C 7.628906 6.367188 6.640625 7.648438 5.328125 8.921875 C 5.285156 8.953125 5.226562 8.96875 5.15625 8.96875 C 5.050781 8.96875 4.957031 8.910156 4.875 8.796875 C 4.800781 8.691406 4.800781 8.601562 4.875 8.53125 C 6.707031 6.65625 7.625 4.445312 7.625 1.90625 C 7.625 0.863281 7.4375 0.0976562 7.0625 -0.390625 C 6.726562 0.171875 6.148438 0.453125 5.328125 0.453125 C 4.648438 0.453125 4.113281 0.25 3.71875 -0.15625 C 3.332031 -0.570312 3.140625 -1.097656 3.140625 -1.734375 C 3.140625 -3.234375 4 -3.984375 5.71875 -3.984375 Z M 5.71875 -3.984375 "/></g></g></g><g fill="#f8f6f0" fill-opacity="1"><g transform="translate(708.732146, 855.70109)"><g/></g></g><g fill="#f8f6f0" fill-opacity="1"><g transform="translate(721.859022, 855.70109)"><g><path d="M 5.671875 -18.234375 C 5.671875 -16.921875 6.097656 -15.878906 6.953125 -15.109375 C 7.816406 -14.347656 9.070312 -13.535156 10.71875 -12.671875 C 12.019531 -12.003906 13.035156 -11.425781 13.765625 -10.9375 C 14.492188 -10.445312 15.117188 -9.8125 15.640625 -9.03125 C 16.171875 -8.25 16.4375 -7.296875 16.4375 -6.171875 C 16.4375 -4.265625 15.722656 -2.65625 14.296875 -1.34375 C 12.878906 -0.0390625 10.957031 0.609375 8.53125 0.609375 C 6.539062 0.609375 4.742188 0.0507812 3.140625 -1.0625 C 2.910156 -1.21875 2.796875 -1.441406 2.796875 -1.734375 L 2.6875 -6.109375 C 2.6875 -6.222656 2.789062 -6.289062 3 -6.3125 C 3.207031 -6.332031 3.328125 -6.285156 3.359375 -6.171875 C 4.078125 -4.296875 5.003906 -2.875 6.140625 -1.90625 C 7.285156 -0.9375 8.601562 -0.453125 10.09375 -0.453125 C 11.332031 -0.453125 12.269531 -0.75 12.90625 -1.34375 C 13.539062 -1.945312 13.820312 -2.828125 13.75 -3.984375 C 13.707031 -5.398438 13.265625 -6.488281 12.421875 -7.25 C 11.578125 -8.019531 10.316406 -8.816406 8.640625 -9.640625 C 7.398438 -10.242188 6.414062 -10.785156 5.6875 -11.265625 C 4.957031 -11.753906 4.335938 -12.390625 3.828125 -13.171875 C 3.328125 -13.960938 3.078125 -14.9375 3.078125 -16.09375 C 3.078125 -18.113281 3.832031 -19.65625 5.34375 -20.71875 C 6.863281 -21.789062 8.65625 -22.328125 10.71875 -22.328125 C 12.207031 -22.328125 13.570312 -22.046875 14.8125 -21.484375 C 15.03125 -21.410156 15.164062 -21.328125 15.21875 -21.234375 C 15.28125 -21.140625 15.3125 -21.015625 15.3125 -20.859375 C 15.3125 -20.117188 15.289062 -19.539062 15.25 -19.125 L 15.203125 -16.765625 C 15.203125 -16.691406 15.085938 -16.65625 14.859375 -16.65625 C 14.640625 -16.65625 14.53125 -16.691406 14.53125 -16.765625 C 14.53125 -17.554688 14.226562 -18.296875 13.625 -18.984375 C 13.03125 -19.679688 12.285156 -20.234375 11.390625 -20.640625 C 10.492188 -21.054688 9.59375 -21.265625 8.6875 -21.265625 C 7.757812 -21.265625 7.023438 -21.007812 6.484375 -20.5 C 5.941406 -20 5.671875 -19.242188 5.671875 -18.234375 Z M 5.671875 -18.234375 "/></g></g></g><g fill="#f8f6f0" fill-opacity="1"><g transform="translate(740.820026, 855.70109)"><g><path d="M 7.6875 -28.71875 C 6.894531 -28.71875 6.285156 -28.921875 5.859375 -29.328125 C 5.429688 -29.742188 5.21875 -30.328125 5.21875 -31.078125 C 5.21875 -31.828125 5.429688 -32.40625 5.859375 -32.8125 C 6.285156 -33.226562 6.894531 -33.4375 7.6875 -33.4375 C 8.4375 -33.4375 9.015625 -33.226562 9.421875 -32.8125 C 9.835938 -32.40625 10.046875 -31.828125 10.046875 -31.078125 C 10.046875 -30.328125 9.835938 -29.742188 9.421875 -29.328125 C 9.015625 -28.921875 8.4375 -28.71875 7.6875 -28.71875 Z M 2.96875 0 C 2.894531 0 2.859375 -0.109375 2.859375 -0.328125 C 2.859375 -0.554688 2.894531 -0.671875 2.96875 -0.671875 C 3.976562 -0.671875 4.734375 -0.773438 5.234375 -0.984375 C 5.742188 -1.191406 6.09375 -1.566406 6.28125 -2.109375 C 6.46875 -2.648438 6.5625 -3.460938 6.5625 -4.546875 L 6.5625 -15.03125 C 6.5625 -16.375 6.421875 -17.34375 6.140625 -17.9375 C 5.859375 -18.539062 5.382812 -18.84375 4.71875 -18.84375 C 4.039062 -18.84375 3.195312 -18.582031 2.1875 -18.0625 L 2.125 -18.0625 C 1.976562 -18.0625 1.867188 -18.15625 1.796875 -18.34375 C 1.722656 -18.53125 1.738281 -18.660156 1.84375 -18.734375 L 9.140625 -22.09375 L 9.375 -22.15625 C 9.445312 -22.15625 9.535156 -22.109375 9.640625 -22.015625 C 9.753906 -21.921875 9.8125 -21.816406 9.8125 -21.703125 C 9.8125 -21.441406 9.789062 -20.691406 9.75 -19.453125 C 9.71875 -18.222656 9.703125 -16.769531 9.703125 -15.09375 L 9.703125 -4.546875 C 9.703125 -3.421875 9.796875 -2.597656 9.984375 -2.078125 C 10.171875 -1.554688 10.503906 -1.191406 10.984375 -0.984375 C 11.472656 -0.773438 12.222656 -0.671875 13.234375 -0.671875 C 13.347656 -0.671875 13.40625 -0.554688 13.40625 -0.328125 C 13.40625 -0.109375 13.347656 0 13.234375 0 C 12.378906 0 11.6875 -0.0195312 11.15625 -0.0625 L 8.140625 -0.109375 L 5.109375 -0.0625 C 4.578125 -0.0195312 3.863281 0 2.96875 0 Z M 2.96875 0 "/></g></g></g><g fill="#f8f6f0" fill-opacity="1"><g transform="translate(756.134692, 855.70109)"><g><path d="M 41.625 -0.671875 C 41.769531 -0.671875 41.84375 -0.554688 41.84375 -0.328125 C 41.84375 -0.109375 41.769531 0 41.625 0 C 40.757812 0 40.066406 -0.0195312 39.546875 -0.0625 L 36.515625 -0.109375 L 33.484375 -0.0625 C 32.960938 -0.0195312 32.269531 0 31.40625 0 C 31.300781 0 31.25 -0.109375 31.25 -0.328125 C 31.25 -0.554688 31.300781 -0.671875 31.40625 -0.671875 C 32.414062 -0.671875 33.164062 -0.773438 33.65625 -0.984375 C 34.144531 -1.191406 34.484375 -1.566406 34.671875 -2.109375 C 34.859375 -2.648438 34.953125 -3.460938 34.953125 -4.546875 L 34.953125 -13.46875 C 34.953125 -15.664062 34.554688 -17.296875 33.765625 -18.359375 C 32.984375 -19.429688 31.769531 -19.96875 30.125 -19.96875 C 29 -19.96875 27.863281 -19.660156 26.71875 -19.046875 C 25.582031 -18.429688 24.53125 -17.5625 23.5625 -16.4375 C 23.59375 -16.25 23.609375 -15.945312 23.609375 -15.53125 L 23.609375 -4.546875 C 23.609375 -3.421875 23.703125 -2.597656 23.890625 -2.078125 C 24.078125 -1.554688 24.414062 -1.191406 24.90625 -0.984375 C 25.394531 -0.773438 26.144531 -0.671875 27.15625 -0.671875 C 27.257812 -0.671875 27.3125 -0.554688 27.3125 -0.328125 C 27.3125 -0.109375 27.257812 0 27.15625 0 C 26.289062 0 25.597656 -0.0195312 25.078125 -0.0625 L 22.046875 -0.109375 L 18.953125 -0.0625 C 18.472656 -0.0195312 17.800781 0 16.9375 0 C 16.820312 0 16.765625 -0.109375 16.765625 -0.328125 C 16.765625 -0.554688 16.820312 -0.671875 16.9375 -0.671875 C 17.945312 -0.671875 18.691406 -0.773438 19.171875 -0.984375 C 19.660156 -1.191406 19.988281 -1.554688 20.15625 -2.078125 C 20.332031 -2.597656 20.421875 -3.421875 20.421875 -4.546875 L 20.421875 -13.46875 C 20.421875 -15.664062 20.023438 -17.296875 19.234375 -18.359375 C 18.453125 -19.429688 17.257812 -19.96875 15.65625 -19.96875 C 14.53125 -19.96875 13.40625 -19.664062 12.28125 -19.0625 C 11.164062 -18.46875 10.140625 -17.628906 9.203125 -16.546875 L 9.203125 -4.546875 C 9.203125 -3.421875 9.285156 -2.597656 9.453125 -2.078125 C 9.617188 -1.554688 9.941406 -1.191406 10.421875 -0.984375 C 10.910156 -0.773438 11.660156 -0.671875 12.671875 -0.671875 C 12.785156 -0.671875 12.84375 -0.554688 12.84375 -0.328125 C 12.84375 -0.109375 12.785156 0 12.671875 0 C 11.816406 0 11.144531 -0.0195312 10.65625 -0.0625 L 7.625 -0.109375 L 4.546875 -0.0625 C 4.054688 -0.0195312 3.382812 0 2.53125 0 C 2.414062 0 2.359375 -0.109375 2.359375 -0.328125 C 2.359375 -0.554688 2.414062 -0.671875 2.53125 -0.671875 C 3.53125 -0.671875 4.273438 -0.773438 4.765625 -0.984375 C 5.253906 -1.191406 5.582031 -1.554688 5.75 -2.078125 C 5.914062 -2.597656 6 -3.421875 6 -4.546875 L 6 -15.65625 C 6 -16.925781 5.847656 -17.835938 5.546875 -18.390625 C 5.253906 -18.953125 4.75 -19.234375 4.03125 -19.234375 C 3.4375 -19.234375 2.429688 -18.957031 1.015625 -18.40625 L 0.890625 -18.40625 C 0.742188 -18.40625 0.640625 -18.488281 0.578125 -18.65625 C 0.523438 -18.820312 0.578125 -18.941406 0.734375 -19.015625 L 7.234375 -22.09375 L 7.578125 -22.15625 C 7.910156 -22.15625 8.265625 -21.722656 8.640625 -20.859375 C 9.015625 -20.003906 9.203125 -18.90625 9.203125 -17.5625 L 9.203125 -17.5 C 10.546875 -19.144531 11.890625 -20.34375 13.234375 -21.09375 C 14.578125 -21.84375 15.976562 -22.21875 17.4375 -22.21875 C 19.125 -22.21875 20.488281 -21.804688 21.53125 -20.984375 C 22.582031 -20.160156 23.238281 -18.925781 23.5 -17.28125 C 24.882812 -18.957031 26.269531 -20.195312 27.65625 -21 C 29.039062 -21.8125 30.476562 -22.21875 31.96875 -22.21875 C 33.957031 -22.21875 35.484375 -21.644531 36.546875 -20.5 C 37.609375 -19.363281 38.140625 -17.671875 38.140625 -15.421875 L 38.140625 -4.546875 C 38.140625 -3.421875 38.222656 -2.597656 38.390625 -2.078125 C 38.566406 -1.554688 38.894531 -1.191406 39.375 -0.984375 C 39.863281 -0.773438 40.613281 -0.671875 41.625 -0.671875 Z M 41.625 -0.671875 "/></g></g></g><g fill="#f8f6f0" fill-opacity="1"><g transform="translate(798.937217, 855.70109)"><g><path d="M 17.890625 -22.375 C 19.421875 -22.375 20.84375 -21.960938 22.15625 -21.140625 C 23.46875 -20.316406 24.515625 -19.117188 25.296875 -17.546875 C 26.078125 -15.984375 26.46875 -14.15625 26.46875 -12.0625 C 26.46875 -9.257812 25.832031 -6.894531 24.5625 -4.96875 C 23.289062 -3.039062 21.726562 -1.609375 19.875 -0.671875 C 18.03125 0.265625 16.210938 0.734375 14.421875 0.734375 C 13.253906 0.734375 12.210938 0.617188 11.296875 0.390625 C 10.378906 0.171875 9.4375 -0.203125 8.46875 -0.734375 L 8.46875 10.875 C 8.46875 12 8.609375 12.820312 8.890625 13.34375 C 9.171875 13.875 9.703125 14.238281 10.484375 14.4375 C 11.273438 14.644531 12.472656 14.75 14.078125 14.75 C 14.148438 14.75 14.1875 14.859375 14.1875 15.078125 C 14.1875 15.304688 14.148438 15.421875 14.078125 15.421875 C 12.804688 15.421875 11.796875 15.40625 11.046875 15.375 L 6.953125 15.3125 L 3.875 15.375 C 3.34375 15.40625 2.648438 15.421875 1.796875 15.421875 C 1.679688 15.421875 1.625 15.304688 1.625 15.078125 C 1.625 14.859375 1.679688 14.75 1.796875 14.75 C 2.804688 14.75 3.550781 14.644531 4.03125 14.4375 C 4.519531 14.238281 4.859375 13.875 5.046875 13.34375 C 5.234375 12.820312 5.328125 12 5.328125 10.875 L 5.328125 -15.484375 C 5.328125 -16.828125 5.175781 -17.785156 4.875 -18.359375 C 4.582031 -18.941406 4.0625 -19.234375 3.3125 -19.234375 C 2.488281 -19.234375 1.5 -18.972656 0.34375 -18.453125 L 0.21875 -18.40625 C 0.0703125 -18.40625 -0.0234375 -18.492188 -0.078125 -18.671875 C -0.140625 -18.859375 -0.113281 -18.992188 0 -19.078125 L 6.21875 -22.046875 C 6.300781 -22.078125 6.4375 -22.09375 6.625 -22.09375 C 7.144531 -22.09375 7.570312 -21.703125 7.90625 -20.921875 C 8.238281 -20.140625 8.425781 -19.019531 8.46875 -17.5625 C 11.644531 -20.769531 14.785156 -22.375 17.890625 -22.375 Z M 16.09375 -0.453125 C 18.082031 -0.453125 19.710938 -1.320312 20.984375 -3.0625 C 22.253906 -4.800781 22.890625 -7.222656 22.890625 -10.328125 C 22.890625 -13.460938 22.195312 -15.898438 20.8125 -17.640625 C 19.425781 -19.378906 17.664062 -20.25 15.53125 -20.25 C 14.226562 -20.25 13.015625 -19.929688 11.890625 -19.296875 C 10.765625 -18.660156 9.625 -17.765625 8.46875 -16.609375 L 8.46875 -3.984375 C 9.519531 -2.828125 10.632812 -1.945312 11.8125 -1.34375 C 12.988281 -0.75 14.414062 -0.453125 16.09375 -0.453125 Z M 16.09375 -0.453125 "/></g></g></g><g fill="#f8f6f0" fill-opacity="1"><g transform="translate(827.603153, 855.70109)"><g><path d="M 2.25 0 C 2.132812 0 2.078125 -0.109375 2.078125 -0.328125 C 2.078125 -0.554688 2.132812 -0.671875 2.25 -0.671875 C 3.257812 -0.671875 4.003906 -0.773438 4.484375 -0.984375 C 4.972656 -1.191406 5.3125 -1.566406 5.5 -2.109375 C 5.6875 -2.648438 5.78125 -3.460938 5.78125 -4.546875 L 5.78125 -33.546875 C 5.78125 -34.890625 5.648438 -35.859375 5.390625 -36.453125 C 5.128906 -37.054688 4.660156 -37.359375 3.984375 -37.359375 C 3.421875 -37.359375 2.5625 -37.097656 1.40625 -36.578125 L 1.296875 -36.578125 C 1.179688 -36.578125 1.09375 -36.671875 1.03125 -36.859375 C 0.976562 -37.046875 1.007812 -37.15625 1.125 -37.1875 L 8.296875 -40.609375 C 8.367188 -40.648438 8.460938 -40.671875 8.578125 -40.671875 C 8.648438 -40.671875 8.753906 -40.625 8.890625 -40.53125 C 9.023438 -40.4375 9.09375 -40.332031 9.09375 -40.21875 L 9.09375 -4.546875 C 9.09375 -3.460938 9.175781 -2.65625 9.34375 -2.125 C 9.507812 -1.601562 9.832031 -1.226562 10.3125 -1 C 10.800781 -0.78125 11.550781 -0.671875 12.5625 -0.671875 C 12.675781 -0.671875 12.734375 -0.554688 12.734375 -0.328125 C 12.734375 -0.109375 12.675781 0 12.5625 0 C 11.738281 0 11.066406 -0.0195312 10.546875 -0.0625 L 7.40625 -0.109375 L 4.375 -0.0625 C 3.851562 -0.0195312 3.144531 0 2.25 0 Z M 2.25 0 "/></g></g></g><g fill="#f8f6f0" fill-opacity="1"><g transform="translate(842.076357, 855.70109)"><g><path d="M 7.6875 -28.71875 C 6.894531 -28.71875 6.285156 -28.921875 5.859375 -29.328125 C 5.429688 -29.742188 5.21875 -30.328125 5.21875 -31.078125 C 5.21875 -31.828125 5.429688 -32.40625 5.859375 -32.8125 C 6.285156 -33.226562 6.894531 -33.4375 7.6875 -33.4375 C 8.4375 -33.4375 9.015625 -33.226562 9.421875 -32.8125 C 9.835938 -32.40625 10.046875 -31.828125 10.046875 -31.078125 C 10.046875 -30.328125 9.835938 -29.742188 9.421875 -29.328125 C 9.015625 -28.921875 8.4375 -28.71875 7.6875 -28.71875 Z M 2.96875 0 C 2.894531 0 2.859375 -0.109375 2.859375 -0.328125 C 2.859375 -0.554688 2.894531 -0.671875 2.96875 -0.671875 C 3.976562 -0.671875 4.734375 -0.773438 5.234375 -0.984375 C 5.742188 -1.191406 6.09375 -1.566406 6.28125 -2.109375 C 6.46875 -2.648438 6.5625 -3.460938 6.5625 -4.546875 L 6.5625 -15.03125 C 6.5625 -16.375 6.421875 -17.34375 6.140625 -17.9375 C 5.859375 -18.539062 5.382812 -18.84375 4.71875 -18.84375 C 4.039062 -18.84375 3.195312 -18.582031 2.1875 -18.0625 L 2.125 -18.0625 C 1.976562 -18.0625 1.867188 -18.15625 1.796875 -18.34375 C 1.722656 -18.53125 1.738281 -18.660156 1.84375 -18.734375 L 9.140625 -22.09375 L 9.375 -22.15625 C 9.445312 -22.15625 9.535156 -22.109375 9.640625 -22.015625 C 9.753906 -21.921875 9.8125 -21.816406 9.8125 -21.703125 C 9.8125 -21.441406 9.789062 -20.691406 9.75 -19.453125 C 9.71875 -18.222656 9.703125 -16.769531 9.703125 -15.09375 L 9.703125 -4.546875 C 9.703125 -3.421875 9.796875 -2.597656 9.984375 -2.078125 C 10.171875 -1.554688 10.503906 -1.191406 10.984375 -0.984375 C 11.472656 -0.773438 12.222656 -0.671875 13.234375 -0.671875 C 13.347656 -0.671875 13.40625 -0.554688 13.40625 -0.328125 C 13.40625 -0.109375 13.347656 0 13.234375 0 C 12.378906 0 11.6875 -0.0195312 11.15625 -0.0625 L 8.140625 -0.109375 L 5.109375 -0.0625 C 4.578125 -0.0195312 3.863281 0 2.96875 0 Z M 2.96875 0 "/></g></g></g><g fill="#f8f6f0" fill-opacity="1"><g transform="translate(857.391023, 855.70109)"><g><path d="M 17.890625 -40.71875 C 19.796875 -40.71875 21.359375 -40.425781 22.578125 -39.84375 C 23.796875 -39.269531 24.40625 -38.570312 24.40625 -37.75 C 24.40625 -37.1875 24.207031 -36.742188 23.8125 -36.421875 C 23.414062 -36.109375 22.957031 -35.953125 22.4375 -35.953125 C 21.988281 -35.953125 21.59375 -36.0625 21.25 -36.28125 C 20.914062 -36.507812 20.5625 -36.890625 20.1875 -37.421875 C 19.632812 -38.203125 19.03125 -38.785156 18.375 -39.171875 C 17.71875 -39.566406 16.90625 -39.765625 15.9375 -39.765625 C 13.757812 -39.765625 12.035156 -38.507812 10.765625 -36 C 9.492188 -33.5 8.859375 -29.707031 8.859375 -24.625 L 8.859375 -21.03125 C 10.578125 -21.070312 12.972656 -21.257812 16.046875 -21.59375 C 16.160156 -21.59375 16.253906 -21.460938 16.328125 -21.203125 C 16.398438 -20.941406 16.4375 -20.625 16.4375 -20.25 C 16.4375 -19.945312 16.378906 -19.632812 16.265625 -19.3125 C 16.148438 -19 16.019531 -18.863281 15.875 -18.90625 C 13.707031 -19.425781 11.367188 -19.722656 8.859375 -19.796875 L 8.859375 -4.546875 C 8.859375 -3.378906 8.988281 -2.535156 9.25 -2.015625 C 9.507812 -1.492188 10.015625 -1.140625 10.765625 -0.953125 C 11.515625 -0.765625 12.710938 -0.671875 14.359375 -0.671875 C 14.472656 -0.671875 14.53125 -0.554688 14.53125 -0.328125 C 14.53125 -0.109375 14.472656 0 14.359375 0 L 10.765625 -0.0625 C 9.984375 -0.09375 8.789062 -0.109375 7.1875 -0.109375 L 4.03125 -0.0625 C 3.507812 -0.0195312 2.765625 0 1.796875 0 C 1.679688 0 1.625 -0.109375 1.625 -0.328125 C 1.625 -0.554688 1.679688 -0.671875 1.796875 -0.671875 C 2.921875 -0.671875 3.742188 -0.773438 4.265625 -0.984375 C 4.785156 -1.191406 5.148438 -1.554688 5.359375 -2.078125 C 5.566406 -2.597656 5.671875 -3.421875 5.671875 -4.546875 L 5.671875 -17.171875 C 5.671875 -18.140625 5.578125 -18.816406 5.390625 -19.203125 C 5.203125 -19.597656 4.835938 -19.859375 4.296875 -19.984375 C 3.753906 -20.117188 2.847656 -20.1875 1.578125 -20.1875 C 1.460938 -20.1875 1.40625 -20.304688 1.40625 -20.546875 C 1.40625 -20.796875 1.460938 -20.921875 1.578125 -20.921875 C 3.109375 -20.921875 4.144531 -21.097656 4.6875 -21.453125 C 5.226562 -21.804688 5.515625 -22.472656 5.546875 -23.453125 C 5.734375 -29.503906 6.847656 -33.894531 8.890625 -36.625 C 10.929688 -39.351562 13.929688 -40.71875 17.890625 -40.71875 Z M 17.890625 -40.71875 "/></g></g></g><g fill="#f8f6f0" fill-opacity="1"><g transform="translate(874.500808, 855.70109)"><g><path d="M 7.6875 -28.71875 C 6.894531 -28.71875 6.285156 -28.921875 5.859375 -29.328125 C 5.429688 -29.742188 5.21875 -30.328125 5.21875 -31.078125 C 5.21875 -31.828125 5.429688 -32.40625 5.859375 -32.8125 C 6.285156 -33.226562 6.894531 -33.4375 7.6875 -33.4375 C 8.4375 -33.4375 9.015625 -33.226562 9.421875 -32.8125 C 9.835938 -32.40625 10.046875 -31.828125 10.046875 -31.078125 C 10.046875 -30.328125 9.835938 -29.742188 9.421875 -29.328125 C 9.015625 -28.921875 8.4375 -28.71875 7.6875 -28.71875 Z M 2.96875 0 C 2.894531 0 2.859375 -0.109375 2.859375 -0.328125 C 2.859375 -0.554688 2.894531 -0.671875 2.96875 -0.671875 C 3.976562 -0.671875 4.734375 -0.773438 5.234375 -0.984375 C 5.742188 -1.191406 6.09375 -1.566406 6.28125 -2.109375 C 6.46875 -2.648438 6.5625 -3.460938 6.5625 -4.546875 L 6.5625 -15.03125 C 6.5625 -16.375 6.421875 -17.34375 6.140625 -17.9375 C 5.859375 -18.539062 5.382812 -18.84375 4.71875 -18.84375 C 4.039062 -18.84375 3.195312 -18.582031 2.1875 -18.0625 L 2.125 -18.0625 C 1.976562 -18.0625 1.867188 -18.15625 1.796875 -18.34375 C 1.722656 -18.53125 1.738281 -18.660156 1.84375 -18.734375 L 9.140625 -22.09375 L 9.375 -22.15625 C 9.445312 -22.15625 9.535156 -22.109375 9.640625 -22.015625 C 9.753906 -21.921875 9.8125 -21.816406 9.8125 -21.703125 C 9.8125 -21.441406 9.789062 -20.691406 9.75 -19.453125 C 9.71875 -18.222656 9.703125 -16.769531 9.703125 -15.09375 L 9.703125 -4.546875 C 9.703125 -3.421875 9.796875 -2.597656 9.984375 -2.078125 C 10.171875 -1.554688 10.503906 -1.191406 10.984375 -0.984375 C 11.472656 -0.773438 12.222656 -0.671875 13.234375 -0.671875 C 13.347656 -0.671875 13.40625 -0.554688 13.40625 -0.328125 C 13.40625 -0.109375 13.347656 0 13.234375 0 C 12.378906 0 11.6875 -0.0195312 11.15625 -0.0625 L 8.140625 -0.109375 L 5.109375 -0.0625 C 4.578125 -0.0195312 3.863281 0 2.96875 0 Z M 2.96875 0 "/></g></g></g><g fill="#f8f6f0" fill-opacity="1"><g transform="translate(889.815474, 855.70109)"><g><path d="M 20.140625 -3.140625 C 20.253906 -3.140625 20.359375 -3.070312 20.453125 -2.9375 C 20.546875 -2.8125 20.550781 -2.691406 20.46875 -2.578125 C 18 -0.410156 15.269531 0.671875 12.28125 0.671875 C 10.113281 0.671875 8.265625 0.164062 6.734375 -0.84375 C 5.203125 -1.851562 4.03125 -3.179688 3.21875 -4.828125 C 2.414062 -6.472656 2.015625 -8.226562 2.015625 -10.09375 C 2.015625 -12.300781 2.535156 -14.328125 3.578125 -16.171875 C 4.628906 -18.023438 6.0625 -19.484375 7.875 -20.546875 C 9.695312 -21.617188 11.691406 -22.15625 13.859375 -22.15625 C 15.953125 -22.15625 17.554688 -21.59375 18.671875 -20.46875 C 19.796875 -19.351562 20.359375 -17.785156 20.359375 -15.765625 C 20.359375 -15.242188 20.3125 -14.867188 20.21875 -14.640625 C 20.125 -14.410156 19.96875 -14.296875 19.75 -14.296875 L 5.828125 -14.25 C 5.753906 -13.425781 5.71875 -12.753906 5.71875 -12.234375 C 5.71875 -8.972656 6.484375 -6.332031 8.015625 -4.3125 C 9.554688 -2.300781 11.707031 -1.296875 14.46875 -1.296875 C 15.59375 -1.296875 16.554688 -1.441406 17.359375 -1.734375 C 18.160156 -2.035156 19.066406 -2.503906 20.078125 -3.140625 Z M 12 -21.03125 C 10.394531 -21.03125 9.066406 -20.5 8.015625 -19.4375 C 6.972656 -18.375 6.285156 -16.890625 5.953125 -14.984375 L 16.609375 -15.203125 C 16.609375 -17.109375 16.195312 -18.554688 15.375 -19.546875 C 14.550781 -20.535156 13.425781 -21.03125 12 -21.03125 Z M 12 -21.03125 "/></g></g></g><g fill="#f8f6f0" fill-opacity="1"><g transform="translate(912.703335, 855.70109)"><g><path d="M 28.390625 -3.203125 C 28.535156 -3.203125 28.632812 -3.109375 28.6875 -2.921875 C 28.75 -2.734375 28.722656 -2.601562 28.609375 -2.53125 L 22.4375 0.390625 C 22.207031 0.460938 22.054688 0.5 21.984375 0.5 C 21.503906 0.5 21.09375 0.0859375 20.75 -0.734375 C 20.414062 -1.554688 20.226562 -2.695312 20.1875 -4.15625 C 18.8125 -2.695312 17.363281 -1.515625 15.84375 -0.609375 C 14.332031 0.285156 12.640625 0.734375 10.765625 0.734375 C 9.191406 0.734375 7.742188 0.285156 6.421875 -0.609375 C 5.097656 -1.515625 4.03125 -2.78125 3.21875 -4.40625 C 2.414062 -6.03125 2.015625 -7.890625 2.015625 -9.984375 C 2.015625 -12.640625 2.671875 -14.898438 3.984375 -16.765625 C 5.296875 -18.640625 6.941406 -20.039062 8.921875 -20.96875 C 10.898438 -21.90625 12.863281 -22.375 14.8125 -22.375 C 16.789062 -22.375 18.582031 -21.890625 20.1875 -20.921875 L 20.1875 -33.484375 C 20.1875 -34.828125 20.046875 -35.796875 19.765625 -36.390625 C 19.492188 -36.992188 19.019531 -37.296875 18.34375 -37.296875 C 17.851562 -37.296875 16.992188 -37.035156 15.765625 -36.515625 L 15.65625 -36.515625 C 15.5 -36.515625 15.390625 -36.597656 15.328125 -36.765625 C 15.273438 -36.929688 15.304688 -37.054688 15.421875 -37.140625 L 22.546875 -40.609375 C 22.617188 -40.648438 22.710938 -40.671875 22.828125 -40.671875 C 22.898438 -40.671875 23 -40.625 23.125 -40.53125 C 23.257812 -40.4375 23.328125 -40.332031 23.328125 -40.21875 L 23.328125 -6.171875 C 23.328125 -4.828125 23.484375 -3.851562 23.796875 -3.25 C 24.117188 -2.65625 24.640625 -2.359375 25.359375 -2.359375 C 26.441406 -2.359375 27.410156 -2.617188 28.265625 -3.140625 Z M 12.953125 -1.296875 C 14.304688 -1.296875 15.5625 -1.617188 16.71875 -2.265625 C 17.875 -2.921875 19.03125 -3.847656 20.1875 -5.046875 L 20.1875 -17.390625 C 19.289062 -18.617188 18.300781 -19.570312 17.21875 -20.25 C 16.132812 -20.925781 14.828125 -21.265625 13.296875 -21.265625 C 10.941406 -21.265625 9.082031 -20.429688 7.71875 -18.765625 C 6.351562 -17.097656 5.671875 -14.734375 5.671875 -11.671875 C 5.671875 -9.609375 5.988281 -7.789062 6.625 -6.21875 C 7.257812 -4.65625 8.125 -3.441406 9.21875 -2.578125 C 10.320312 -1.722656 11.566406 -1.296875 12.953125 -1.296875 Z M 12.953125 -1.296875 "/></g></g></g><g fill="#f8f6f0" fill-opacity="1"><g transform="translate(941.425349, 855.70109)"><g><path d="M 5.546875 0.609375 C 4.804688 0.609375 4.207031 0.382812 3.75 -0.0625 C 3.300781 -0.507812 3.078125 -1.101562 3.078125 -1.84375 C 3.078125 -2.5625 3.300781 -3.125 3.75 -3.53125 C 4.207031 -3.945312 4.804688 -4.15625 5.546875 -4.15625 C 6.335938 -4.15625 6.945312 -3.945312 7.375 -3.53125 C 7.800781 -3.125 8.015625 -2.5625 8.015625 -1.84375 C 8.015625 -1.101562 7.800781 -0.507812 7.375 -0.0625 C 6.945312 0.382812 6.335938 0.609375 5.546875 0.609375 Z M 5.546875 0.609375 "/></g></g></g><g fill="#f8f6f0" fill-opacity="1"><g transform="translate(83.132457, 737.34126)"><g><path d="M 34.5 -33.625 C 39.863281 -32.988281 44.125 -31.203125 47.28125 -28.265625 C 50.445312 -25.328125 52.03125 -21.6875 52.03125 -17.34375 C 52.03125 -14.019531 51.070312 -11.015625 49.15625 -8.328125 C 47.238281 -5.648438 44.585938 -3.523438 41.203125 -1.953125 C 37.816406 -0.390625 34.046875 0.390625 29.890625 0.390625 C 28.097656 0.390625 26.054688 0.289062 23.765625 0.09375 C 22.867188 0.03125 21.765625 -0.03125 20.453125 -0.09375 C 19.140625 -0.15625 17.6875 -0.1875 16.09375 -0.1875 L 9.109375 -0.09375 C 7.828125 -0.03125 6.097656 0 3.921875 0 C 3.734375 0 3.640625 -0.191406 3.640625 -0.578125 C 3.640625 -0.960938 3.734375 -1.15625 3.921875 -1.15625 C 5.773438 -1.15625 7.179688 -1.328125 8.140625 -1.671875 C 9.097656 -2.023438 9.785156 -2.664062 10.203125 -3.59375 C 10.617188 -4.519531 10.828125 -5.910156 10.828125 -7.765625 L 10.828125 -52.125 C 10.828125 -54.800781 10.378906 -56.570312 9.484375 -57.4375 C 8.585938 -58.300781 6.769531 -58.734375 4.03125 -58.734375 C 3.894531 -58.734375 3.828125 -58.925781 3.828125 -59.3125 C 3.828125 -59.695312 3.894531 -59.890625 4.03125 -59.890625 L 9.109375 -59.78125 C 12.046875 -59.65625 14.375 -59.59375 16.09375 -59.59375 C 17.882812 -59.59375 19.738281 -59.691406 21.65625 -59.890625 C 22.289062 -59.953125 23.242188 -60.015625 24.515625 -60.078125 C 25.796875 -60.140625 26.914062 -60.171875 27.875 -60.171875 C 33.6875 -60.171875 38.191406 -59.113281 41.390625 -57 C 44.585938 -54.894531 46.1875 -51.832031 46.1875 -47.8125 C 46.1875 -44.75 45.175781 -41.96875 43.15625 -39.46875 C 41.144531 -36.976562 38.257812 -35.03125 34.5 -33.625 Z M 26.4375 -58.0625 C 24.59375 -58.0625 23.316406 -57.628906 22.609375 -56.765625 C 21.910156 -55.898438 21.5625 -54.289062 21.5625 -51.9375 L 21.5625 -33.71875 L 25.390625 -33.625 C 28.710938 -33.625 31.265625 -34.867188 33.046875 -37.359375 C 34.835938 -39.859375 35.734375 -43.054688 35.734375 -46.953125 C 35.734375 -50.585938 34.9375 -53.347656 33.34375 -55.234375 C 31.75 -57.117188 29.445312 -58.0625 26.4375 -58.0625 Z M 28.265625 -2.015625 C 36.628906 -2.015625 40.8125 -6.359375 40.8125 -15.046875 C 40.8125 -19.960938 39.628906 -23.859375 37.265625 -26.734375 C 34.898438 -29.609375 31.328125 -31.046875 26.546875 -31.046875 C 24.691406 -31.046875 23.03125 -30.984375 21.5625 -30.859375 L 21.5625 -7.765625 C 21.5625 -5.648438 21.972656 -4.160156 22.796875 -3.296875 C 23.628906 -2.441406 25.453125 -2.015625 28.265625 -2.015625 Z M 28.265625 -2.015625 "/></g></g></g><g fill="#f8f6f0" fill-opacity="1"><g transform="translate(158.058064, 737.34126)"><g><path d="M 68.703125 -1.15625 C 69.015625 -1.15625 69.171875 -0.960938 69.171875 -0.578125 C 69.171875 -0.191406 69.015625 0 68.703125 0 C 67.421875 0 65.4375 -0.0625 62.75 -0.1875 C 59.945312 -0.320312 57.9375 -0.390625 56.71875 -0.390625 C 55.125 -0.390625 53.175781 -0.320312 50.875 -0.1875 C 48.707031 -0.0625 46.984375 0 45.703125 0 C 45.441406 0 45.3125 -0.191406 45.3125 -0.578125 C 45.3125 -0.960938 45.441406 -1.15625 45.703125 -1.15625 C 47.359375 -1.15625 48.550781 -1.328125 49.28125 -1.671875 C 50.019531 -2.023438 50.390625 -2.648438 50.390625 -3.546875 C 50.390625 -4.628906 49.753906 -6.445312 48.484375 -9 L 41.96875 -21.9375 L 18.390625 -21.9375 L 14.65625 -13.609375 C 13.820312 -11.753906 13.40625 -10.03125 13.40625 -8.4375 C 13.40625 -6.132812 14.21875 -4.34375 15.84375 -3.0625 C 17.476562 -1.789062 19.671875 -1.15625 22.421875 -1.15625 C 22.742188 -1.15625 22.90625 -0.960938 22.90625 -0.578125 C 22.90625 -0.191406 22.742188 0 22.421875 0 C 21.273438 0 19.613281 -0.0625 17.4375 -0.1875 C 15.007812 -0.320312 12.898438 -0.390625 11.109375 -0.390625 C 9.390625 -0.390625 7.316406 -0.320312 4.890625 -0.1875 C 2.710938 -0.0625 0.953125 0 -0.390625 0 C -0.640625 0 -0.765625 -0.191406 -0.765625 -0.578125 C -0.765625 -0.960938 -0.640625 -1.15625 -0.390625 -1.15625 C 1.398438 -1.15625 2.898438 -1.519531 4.109375 -2.25 C 5.328125 -2.988281 6.539062 -4.296875 7.75 -6.171875 C 8.96875 -8.054688 10.410156 -10.851562 12.078125 -14.5625 L 32.859375 -60.265625 C 32.992188 -60.453125 33.28125 -60.546875 33.71875 -60.546875 C 34.238281 -60.546875 34.53125 -60.453125 34.59375 -60.265625 L 58.546875 -13.125 C 60.773438 -8.59375 62.625 -5.460938 64.09375 -3.734375 C 65.5625 -2.015625 67.097656 -1.15625 68.703125 -1.15625 Z M 19.640625 -24.625 L 40.53125 -24.625 L 29.515625 -46.46875 Z M 19.640625 -24.625 "/></g></g></g><g fill="#f8f6f0" fill-opacity="1"><g transform="translate(244.576981, 737.34126)"><g><path d="M 20.40625 -8.140625 C 20.40625 -6.484375 20.53125 -5.285156 20.78125 -4.546875 C 21.039062 -3.816406 21.535156 -3.320312 22.265625 -3.0625 C 23.003906 -2.8125 24.207031 -2.6875 25.875 -2.6875 L 29.125 -2.6875 C 34.101562 -2.6875 38.410156 -4.007812 42.046875 -6.65625 C 45.691406 -9.3125 48.125 -12.90625 49.34375 -17.4375 C 49.34375 -17.5625 49.472656 -17.625 49.734375 -17.625 C 49.859375 -17.625 50 -17.578125 50.15625 -17.484375 C 50.3125 -17.390625 50.390625 -17.3125 50.390625 -17.25 C 49.816406 -10.925781 49.53125 -5.65625 49.53125 -1.4375 C 49.53125 -0.925781 49.414062 -0.554688 49.1875 -0.328125 C 48.96875 -0.109375 48.601562 0 48.09375 0 L 2.875 0 C 2.75 0 2.6875 -0.191406 2.6875 -0.578125 C 2.6875 -0.960938 2.75 -1.15625 2.875 -1.15625 C 4.914062 -1.15625 6.398438 -1.3125 7.328125 -1.625 C 8.253906 -1.945312 8.890625 -2.570312 9.234375 -3.5 C 9.585938 -4.425781 9.765625 -5.847656 9.765625 -7.765625 L 9.765625 -52.125 C 9.765625 -54.039062 9.585938 -55.441406 9.234375 -56.328125 C 8.890625 -57.222656 8.238281 -57.847656 7.28125 -58.203125 C 6.320312 -58.554688 4.851562 -58.734375 2.875 -58.734375 C 2.75 -58.734375 2.6875 -58.925781 2.6875 -59.3125 C 2.6875 -59.695312 2.75 -59.890625 2.875 -59.890625 L 7.765625 -59.78125 C 10.703125 -59.65625 13.128906 -59.59375 15.046875 -59.59375 C 16.960938 -59.59375 19.390625 -59.65625 22.328125 -59.78125 L 27.203125 -59.890625 C 27.398438 -59.890625 27.5 -59.695312 27.5 -59.3125 C 27.5 -58.925781 27.398438 -58.734375 27.203125 -58.734375 C 25.222656 -58.734375 23.753906 -58.554688 22.796875 -58.203125 C 21.835938 -57.847656 21.195312 -57.207031 20.875 -56.28125 C 20.5625 -55.363281 20.40625 -53.945312 20.40625 -52.03125 Z M 20.40625 -8.140625 "/></g></g></g><g fill="#f8f6f0" fill-opacity="1"><g transform="translate(314.711966, 737.34126)"><g><path d="M 68.703125 -1.15625 C 69.015625 -1.15625 69.171875 -0.960938 69.171875 -0.578125 C 69.171875 -0.191406 69.015625 0 68.703125 0 C 67.421875 0 65.4375 -0.0625 62.75 -0.1875 C 59.945312 -0.320312 57.9375 -0.390625 56.71875 -0.390625 C 55.125 -0.390625 53.175781 -0.320312 50.875 -0.1875 C 48.707031 -0.0625 46.984375 0 45.703125 0 C 45.441406 0 45.3125 -0.191406 45.3125 -0.578125 C 45.3125 -0.960938 45.441406 -1.15625 45.703125 -1.15625 C 47.359375 -1.15625 48.550781 -1.328125 49.28125 -1.671875 C 50.019531 -2.023438 50.390625 -2.648438 50.390625 -3.546875 C 50.390625 -4.628906 49.753906 -6.445312 48.484375 -9 L 41.96875 -21.9375 L 18.390625 -21.9375 L 14.65625 -13.609375 C 13.820312 -11.753906 13.40625 -10.03125 13.40625 -8.4375 C 13.40625 -6.132812 14.21875 -4.34375 15.84375 -3.0625 C 17.476562 -1.789062 19.671875 -1.15625 22.421875 -1.15625 C 22.742188 -1.15625 22.90625 -0.960938 22.90625 -0.578125 C 22.90625 -0.191406 22.742188 0 22.421875 0 C 21.273438 0 19.613281 -0.0625 17.4375 -0.1875 C 15.007812 -0.320312 12.898438 -0.390625 11.109375 -0.390625 C 9.390625 -0.390625 7.316406 -0.320312 4.890625 -0.1875 C 2.710938 -0.0625 0.953125 0 -0.390625 0 C -0.640625 0 -0.765625 -0.191406 -0.765625 -0.578125 C -0.765625 -0.960938 -0.640625 -1.15625 -0.390625 -1.15625 C 1.398438 -1.15625 2.898438 -1.519531 4.109375 -2.25 C 5.328125 -2.988281 6.539062 -4.296875 7.75 -6.171875 C 8.96875 -8.054688 10.410156 -10.851562 12.078125 -14.5625 L 32.859375 -60.265625 C 32.992188 -60.453125 33.28125 -60.546875 33.71875 -60.546875 C 34.238281 -60.546875 34.53125 -60.453125 34.59375 -60.265625 L 58.546875 -13.125 C 60.773438 -8.59375 62.625 -5.460938 64.09375 -3.734375 C 65.5625 -2.015625 67.097656 -1.15625 68.703125 -1.15625 Z M 19.640625 -24.625 L 40.53125 -24.625 L 29.515625 -46.46875 Z M 19.640625 -24.625 "/></g></g></g><g fill="#f8f6f0" fill-opacity="1"><g transform="translate(401.230895, 737.34126)"><g><path d="M 69.265625 -59.890625 C 69.398438 -59.890625 69.46875 -59.695312 69.46875 -59.3125 C 69.46875 -58.925781 69.398438 -58.734375 69.265625 -58.734375 C 66.710938 -58.734375 64.703125 -57.726562 63.234375 -55.71875 C 61.765625 -53.707031 61.03125 -51.007812 61.03125 -47.625 L 61.03125 1.4375 C 61.03125 1.625 60.882812 1.75 60.59375 1.8125 C 60.3125 1.882812 60.109375 1.851562 59.984375 1.71875 L 15.046875 -49.4375 L 15.046875 -12.171875 C 15.046875 -8.785156 15.75 -6.101562 17.15625 -4.125 C 18.5625 -2.144531 20.507812 -1.15625 23 -1.15625 C 23.125 -1.15625 23.1875 -0.960938 23.1875 -0.578125 C 23.1875 -0.191406 23.125 0 23 0 C 21.207031 0 19.832031 -0.03125 18.875 -0.09375 L 13.703125 -0.1875 L 7.765625 -0.09375 C 6.671875 -0.03125 5.101562 0 3.0625 0 C 2.875 0 2.78125 -0.191406 2.78125 -0.578125 C 2.78125 -0.960938 2.875 -1.15625 3.0625 -1.15625 C 5.875 -1.15625 8.09375 -2.144531 9.71875 -4.125 C 11.351562 -6.101562 12.171875 -8.785156 12.171875 -12.171875 L 12.171875 -52.703125 C 10.054688 -54.992188 8.25 -56.570312 6.75 -57.4375 C 5.25 -58.300781 3.703125 -58.734375 2.109375 -58.734375 C 1.984375 -58.734375 1.921875 -58.925781 1.921875 -59.3125 C 1.921875 -59.695312 1.984375 -59.890625 2.109375 -59.890625 L 6.125 -59.78125 C 6.957031 -59.71875 8.171875 -59.6875 9.765625 -59.6875 L 17.046875 -59.78125 C 17.941406 -59.851562 19.03125 -59.890625 20.3125 -59.890625 C 20.820312 -59.890625 21.203125 -59.757812 21.453125 -59.5 C 21.710938 -59.238281 22.160156 -58.695312 22.796875 -57.875 C 23.890625 -56.40625 24.660156 -55.414062 25.109375 -54.90625 L 58.25 -16.671875 L 58.25 -47.625 C 58.25 -51.070312 57.546875 -53.785156 56.140625 -55.765625 C 54.734375 -57.742188 52.785156 -58.734375 50.296875 -58.734375 C 50.171875 -58.734375 50.109375 -58.925781 50.109375 -59.3125 C 50.109375 -59.695312 50.171875 -59.890625 50.296875 -59.890625 L 54.421875 -59.78125 C 56.460938 -59.65625 58.1875 -59.59375 59.59375 -59.59375 C 60.875 -59.59375 62.660156 -59.65625 64.953125 -59.78125 Z M 69.265625 -59.890625 "/></g></g></g><g fill="#f8f6f0" fill-opacity="1"><g transform="translate(489.570259, 737.34126)"><g><path d="M 40.90625 -60.9375 C 43.914062 -60.9375 46.96875 -60.695312 50.0625 -60.21875 C 53.15625 -59.738281 55.628906 -59.113281 57.484375 -58.34375 C 58.054688 -58.15625 58.421875 -57.914062 58.578125 -57.625 C 58.742188 -57.34375 58.859375 -56.847656 58.921875 -56.140625 L 60.171875 -42.828125 C 60.171875 -42.640625 60.007812 -42.507812 59.6875 -42.4375 C 59.375 -42.375 59.148438 -42.472656 59.015625 -42.734375 C 57.234375 -47.972656 54.679688 -51.976562 51.359375 -54.75 C 48.035156 -57.53125 44.039062 -58.921875 39.375 -58.921875 C 35.03125 -58.921875 31.148438 -57.753906 27.734375 -55.421875 C 24.316406 -53.097656 21.632812 -49.765625 19.6875 -45.421875 C 17.738281 -41.078125 16.765625 -36 16.765625 -30.1875 C 16.765625 -24.300781 17.769531 -19.140625 19.78125 -14.703125 C 21.789062 -10.265625 24.566406 -6.847656 28.109375 -4.453125 C 31.660156 -2.054688 35.738281 -0.859375 40.34375 -0.859375 C 44.75 -0.859375 48.453125 -2.054688 51.453125 -4.453125 C 54.453125 -6.847656 57.296875 -10.789062 59.984375 -16.28125 C 60.046875 -16.476562 60.234375 -16.546875 60.546875 -16.484375 C 60.867188 -16.421875 61.03125 -16.289062 61.03125 -16.09375 L 59.59375 -4.21875 C 59.46875 -3.445312 59.335938 -2.945312 59.203125 -2.71875 C 59.078125 -2.5 58.726562 -2.265625 58.15625 -2.015625 C 52.28125 0.0976562 46.34375 1.15625 40.34375 1.15625 C 33.5 1.15625 27.378906 -0.132812 21.984375 -2.71875 C 16.585938 -5.3125 12.351562 -8.9375 9.28125 -13.59375 C 6.21875 -18.257812 4.6875 -23.566406 4.6875 -29.515625 C 4.6875 -35.578125 6.269531 -40.988281 9.4375 -45.75 C 12.601562 -50.507812 16.945312 -54.226562 22.46875 -56.90625 C 27.988281 -59.59375 34.132812 -60.9375 40.90625 -60.9375 Z M 40.90625 -60.9375 "/></g></g></g><g fill="#f8f6f0" fill-opacity="1"><g transform="translate(572.735702, 737.34126)"><g><path d="M 47.515625 -15.234375 C 47.515625 -15.359375 47.644531 -15.421875 47.90625 -15.421875 C 48.09375 -15.421875 48.265625 -15.375 48.421875 -15.28125 C 48.585938 -15.1875 48.671875 -15.109375 48.671875 -15.046875 C 48.035156 -10.054688 47.71875 -5.519531 47.71875 -1.4375 C 47.71875 -0.925781 47.617188 -0.554688 47.421875 -0.328125 C 47.234375 -0.109375 46.851562 0 46.28125 0 L 3.921875 0 C 3.734375 0 3.640625 -0.191406 3.640625 -0.578125 C 3.640625 -0.960938 3.734375 -1.15625 3.921875 -1.15625 C 5.972656 -1.15625 7.457031 -1.3125 8.375 -1.625 C 9.300781 -1.945312 9.925781 -2.570312 10.25 -3.5 C 10.570312 -4.425781 10.734375 -5.847656 10.734375 -7.765625 L 10.734375 -52.125 C 10.734375 -54.039062 10.570312 -55.441406 10.25 -56.328125 C 9.925781 -57.222656 9.285156 -57.847656 8.328125 -58.203125 C 7.378906 -58.554688 5.910156 -58.734375 3.921875 -58.734375 C 3.734375 -58.734375 3.640625 -58.925781 3.640625 -59.3125 C 3.640625 -59.695312 3.734375 -59.890625 3.921875 -59.890625 L 44.546875 -59.890625 C 45.191406 -59.890625 45.515625 -59.597656 45.515625 -59.015625 L 45.703125 -46.28125 C 45.703125 -46.144531 45.523438 -46.046875 45.171875 -45.984375 C 44.828125 -45.921875 44.617188 -45.988281 44.546875 -46.1875 C 43.523438 -49.882812 41.800781 -52.628906 39.375 -54.421875 C 36.945312 -56.210938 33.753906 -57.109375 29.796875 -57.109375 L 26.921875 -57.109375 C 25.003906 -57.109375 23.597656 -56.691406 22.703125 -55.859375 C 21.804688 -55.023438 21.359375 -53.75 21.359375 -52.03125 L 21.359375 -32.484375 L 29.3125 -32.484375 C 33.019531 -32.484375 35.863281 -33.117188 37.84375 -34.390625 C 39.820312 -35.671875 40.8125 -37.460938 40.8125 -39.765625 C 40.8125 -39.953125 40.988281 -40.046875 41.34375 -40.046875 C 41.695312 -40.046875 41.875 -39.953125 41.875 -39.765625 L 41.78125 -31.140625 L 41.875 -26.546875 C 42 -24.367188 42.0625 -22.640625 42.0625 -21.359375 C 42.0625 -21.234375 41.867188 -21.171875 41.484375 -21.171875 C 41.097656 -21.171875 40.90625 -21.234375 40.90625 -21.359375 C 40.90625 -23.984375 39.898438 -26.046875 37.890625 -27.546875 C 35.878906 -29.046875 32.988281 -29.796875 29.21875 -29.796875 L 21.359375 -29.796875 L 21.359375 -8.140625 C 21.359375 -6.285156 21.707031 -4.910156 22.40625 -4.015625 C 23.113281 -3.128906 24.238281 -2.6875 25.78125 -2.6875 L 28.9375 -2.6875 C 33.914062 -2.6875 37.90625 -3.707031 40.90625 -5.75 C 43.914062 -7.789062 46.117188 -10.953125 47.515625 -15.234375 Z M 47.515625 -15.234375 "/></g></g></g><g fill="#f8f6f0" fill-opacity="1"><g transform="translate(643.541391, 737.34126)"><g/></g></g><g fill="#f8f6f0" fill-opacity="1"><g transform="translate(683.878698, 737.34126)"><g><path d="M 40.90625 -60.9375 C 43.914062 -60.9375 46.96875 -60.695312 50.0625 -60.21875 C 53.15625 -59.738281 55.628906 -59.113281 57.484375 -58.34375 C 58.054688 -58.15625 58.421875 -57.914062 58.578125 -57.625 C 58.742188 -57.34375 58.859375 -56.847656 58.921875 -56.140625 L 60.171875 -42.828125 C 60.171875 -42.640625 60.007812 -42.507812 59.6875 -42.4375 C 59.375 -42.375 59.148438 -42.472656 59.015625 -42.734375 C 57.234375 -47.972656 54.679688 -51.976562 51.359375 -54.75 C 48.035156 -57.53125 44.039062 -58.921875 39.375 -58.921875 C 35.03125 -58.921875 31.148438 -57.753906 27.734375 -55.421875 C 24.316406 -53.097656 21.632812 -49.765625 19.6875 -45.421875 C 17.738281 -41.078125 16.765625 -36 16.765625 -30.1875 C 16.765625 -24.300781 17.769531 -19.140625 19.78125 -14.703125 C 21.789062 -10.265625 24.566406 -6.847656 28.109375 -4.453125 C 31.660156 -2.054688 35.738281 -0.859375 40.34375 -0.859375 C 44.75 -0.859375 48.453125 -2.054688 51.453125 -4.453125 C 54.453125 -6.847656 57.296875 -10.789062 59.984375 -16.28125 C 60.046875 -16.476562 60.234375 -16.546875 60.546875 -16.484375 C 60.867188 -16.421875 61.03125 -16.289062 61.03125 -16.09375 L 59.59375 -4.21875 C 59.46875 -3.445312 59.335938 -2.945312 59.203125 -2.71875 C 59.078125 -2.5 58.726562 -2.265625 58.15625 -2.015625 C 52.28125 0.0976562 46.34375 1.15625 40.34375 1.15625 C 33.5 1.15625 27.378906 -0.132812 21.984375 -2.71875 C 16.585938 -5.3125 12.351562 -8.9375 9.28125 -13.59375 C 6.21875 -18.257812 4.6875 -23.566406 4.6875 -29.515625 C 4.6875 -35.578125 6.269531 -40.988281 9.4375 -45.75 C 12.601562 -50.507812 16.945312 -54.226562 22.46875 -56.90625 C 27.988281 -59.59375 34.132812 -60.9375 40.90625 -60.9375 Z M 40.90625 -60.9375 "/></g></g></g><g fill="#f8f6f0" fill-opacity="1"><g transform="translate(767.044188, 737.34126)"><g><path d="M 35.0625 1.15625 C 29.125 1.15625 23.835938 -0.234375 19.203125 -3.015625 C 14.578125 -5.796875 11 -9.566406 8.46875 -14.328125 C 5.945312 -19.085938 4.6875 -24.273438 4.6875 -29.890625 C 4.6875 -36.472656 6.347656 -42.109375 9.671875 -46.796875 C 12.992188 -51.492188 17.257812 -55.023438 22.46875 -57.390625 C 27.675781 -59.753906 32.992188 -60.9375 38.421875 -60.9375 C 44.484375 -60.9375 49.8125 -59.515625 54.40625 -56.671875 C 59.007812 -53.828125 62.539062 -50.070312 65 -45.40625 C 67.46875 -40.75 68.703125 -35.800781 68.703125 -30.5625 C 68.703125 -24.75 67.164062 -19.414062 64.09375 -14.5625 C 61.03125 -9.707031 56.925781 -5.875 51.78125 -3.0625 C 46.644531 -0.25 41.070312 1.15625 35.0625 1.15625 Z M 38.234375 -1.25 C 41.804688 -1.25 45.015625 -2.285156 47.859375 -4.359375 C 50.703125 -6.429688 52.921875 -9.460938 54.515625 -13.453125 C 56.109375 -17.453125 56.90625 -22.226562 56.90625 -27.78125 C 56.90625 -33.65625 56.007812 -38.910156 54.21875 -43.546875 C 52.4375 -48.179688 49.851562 -51.804688 46.46875 -54.421875 C 43.082031 -57.035156 39.125 -58.34375 34.59375 -58.34375 C 28.78125 -58.34375 24.304688 -56.15625 21.171875 -51.78125 C 18.046875 -47.40625 16.484375 -41.289062 16.484375 -33.4375 C 16.484375 -27.238281 17.421875 -21.695312 19.296875 -16.8125 C 21.179688 -11.925781 23.769531 -8.109375 27.0625 -5.359375 C 30.351562 -2.617188 34.078125 -1.25 38.234375 -1.25 Z M 38.234375 -1.25 "/></g></g></g><g fill="#f8f6f0" fill-opacity="1"><g transform="translate(858.353705, 737.34126)"><g><path d="M 20.40625 -8.140625 C 20.40625 -6.484375 20.53125 -5.285156 20.78125 -4.546875 C 21.039062 -3.816406 21.535156 -3.320312 22.265625 -3.0625 C 23.003906 -2.8125 24.207031 -2.6875 25.875 -2.6875 L 29.125 -2.6875 C 34.101562 -2.6875 38.410156 -4.007812 42.046875 -6.65625 C 45.691406 -9.3125 48.125 -12.90625 49.34375 -17.4375 C 49.34375 -17.5625 49.472656 -17.625 49.734375 -17.625 C 49.859375 -17.625 50 -17.578125 50.15625 -17.484375 C 50.3125 -17.390625 50.390625 -17.3125 50.390625 -17.25 C 49.816406 -10.925781 49.53125 -5.65625 49.53125 -1.4375 C 49.53125 -0.925781 49.414062 -0.554688 49.1875 -0.328125 C 48.96875 -0.109375 48.601562 0 48.09375 0 L 2.875 0 C 2.75 0 2.6875 -0.191406 2.6875 -0.578125 C 2.6875 -0.960938 2.75 -1.15625 2.875 -1.15625 C 4.914062 -1.15625 6.398438 -1.3125 7.328125 -1.625 C 8.253906 -1.945312 8.890625 -2.570312 9.234375 -3.5 C 9.585938 -4.425781 9.765625 -5.847656 9.765625 -7.765625 L 9.765625 -52.125 C 9.765625 -54.039062 9.585938 -55.441406 9.234375 -56.328125 C 8.890625 -57.222656 8.238281 -57.847656 7.28125 -58.203125 C 6.320312 -58.554688 4.851562 -58.734375 2.875 -58.734375 C 2.75 -58.734375 2.6875 -58.925781 2.6875 -59.3125 C 2.6875 -59.695312 2.75 -59.890625 2.875 -59.890625 L 7.765625 -59.78125 C 10.703125 -59.65625 13.128906 -59.59375 15.046875 -59.59375 C 16.960938 -59.59375 19.390625 -59.65625 22.328125 -59.78125 L 27.203125 -59.890625 C 27.398438 -59.890625 27.5 -59.695312 27.5 -59.3125 C 27.5 -58.925781 27.398438 -58.734375 27.203125 -58.734375 C 25.222656 -58.734375 23.753906 -58.554688 22.796875 -58.203125 C 21.835938 -57.847656 21.195312 -57.207031 20.875 -56.28125 C 20.5625 -55.363281 20.40625 -53.945312 20.40625 -52.03125 Z M 20.40625 -8.140625 "/></g></g></g><g fill="#f8f6f0" fill-opacity="1"><g transform="translate(928.488678, 737.34126)"><g><path d="M 20.40625 -8.140625 C 20.40625 -6.484375 20.53125 -5.285156 20.78125 -4.546875 C 21.039062 -3.816406 21.535156 -3.320312 22.265625 -3.0625 C 23.003906 -2.8125 24.207031 -2.6875 25.875 -2.6875 L 29.125 -2.6875 C 34.101562 -2.6875 38.410156 -4.007812 42.046875 -6.65625 C 45.691406 -9.3125 48.125 -12.90625 49.34375 -17.4375 C 49.34375 -17.5625 49.472656 -17.625 49.734375 -17.625 C 49.859375 -17.625 50 -17.578125 50.15625 -17.484375 C 50.3125 -17.390625 50.390625 -17.3125 50.390625 -17.25 C 49.816406 -10.925781 49.53125 -5.65625 49.53125 -1.4375 C 49.53125 -0.925781 49.414062 -0.554688 49.1875 -0.328125 C 48.96875 -0.109375 48.601562 0 48.09375 0 L 2.875 0 C 2.75 0 2.6875 -0.191406 2.6875 -0.578125 C 2.6875 -0.960938 2.75 -1.15625 2.875 -1.15625 C 4.914062 -1.15625 6.398438 -1.3125 7.328125 -1.625 C 8.253906 -1.945312 8.890625 -2.570312 9.234375 -3.5 C 9.585938 -4.425781 9.765625 -5.847656 9.765625 -7.765625 L 9.765625 -52.125 C 9.765625 -54.039062 9.585938 -55.441406 9.234375 -56.328125 C 8.890625 -57.222656 8.238281 -57.847656 7.28125 -58.203125 C 6.320312 -58.554688 4.851562 -58.734375 2.875 -58.734375 C 2.75 -58.734375 2.6875 -58.925781 2.6875 -59.3125 C 2.6875 -59.695312 2.75 -59.890625 2.875 -59.890625 L 7.765625 -59.78125 C 10.703125 -59.65625 13.128906 -59.59375 15.046875 -59.59375 C 16.960938 -59.59375 19.390625 -59.65625 22.328125 -59.78125 L 27.203125 -59.890625 C 27.398438 -59.890625 27.5 -59.695312 27.5 -59.3125 C 27.5 -58.925781 27.398438 -58.734375 27.203125 -58.734375 C 25.222656 -58.734375 23.753906 -58.554688 22.796875 -58.203125 C 21.835938 -57.847656 21.195312 -57.207031 20.875 -56.28125 C 20.5625 -55.363281 20.40625 -53.945312 20.40625 -52.03125 Z M 20.40625 -8.140625 "/></g></g></g><g fill="#f8f6f0" fill-opacity="1"><g transform="translate(998.623652, 737.34126)"><g><path d="M 47.515625 -15.234375 C 47.515625 -15.359375 47.644531 -15.421875 47.90625 -15.421875 C 48.09375 -15.421875 48.265625 -15.375 48.421875 -15.28125 C 48.585938 -15.1875 48.671875 -15.109375 48.671875 -15.046875 C 48.035156 -10.054688 47.71875 -5.519531 47.71875 -1.4375 C 47.71875 -0.925781 47.617188 -0.554688 47.421875 -0.328125 C 47.234375 -0.109375 46.851562 0 46.28125 0 L 3.921875 0 C 3.734375 0 3.640625 -0.191406 3.640625 -0.578125 C 3.640625 -0.960938 3.734375 -1.15625 3.921875 -1.15625 C 5.972656 -1.15625 7.457031 -1.3125 8.375 -1.625 C 9.300781 -1.945312 9.925781 -2.570312 10.25 -3.5 C 10.570312 -4.425781 10.734375 -5.847656 10.734375 -7.765625 L 10.734375 -52.125 C 10.734375 -54.039062 10.570312 -55.441406 10.25 -56.328125 C 9.925781 -57.222656 9.285156 -57.847656 8.328125 -58.203125 C 7.378906 -58.554688 5.910156 -58.734375 3.921875 -58.734375 C 3.734375 -58.734375 3.640625 -58.925781 3.640625 -59.3125 C 3.640625 -59.695312 3.734375 -59.890625 3.921875 -59.890625 L 44.546875 -59.890625 C 45.191406 -59.890625 45.515625 -59.597656 45.515625 -59.015625 L 45.703125 -46.28125 C 45.703125 -46.144531 45.523438 -46.046875 45.171875 -45.984375 C 44.828125 -45.921875 44.617188 -45.988281 44.546875 -46.1875 C 43.523438 -49.882812 41.800781 -52.628906 39.375 -54.421875 C 36.945312 -56.210938 33.753906 -57.109375 29.796875 -57.109375 L 26.921875 -57.109375 C 25.003906 -57.109375 23.597656 -56.691406 22.703125 -55.859375 C 21.804688 -55.023438 21.359375 -53.75 21.359375 -52.03125 L 21.359375 -32.484375 L 29.3125 -32.484375 C 33.019531 -32.484375 35.863281 -33.117188 37.84375 -34.390625 C 39.820312 -35.671875 40.8125 -37.460938 40.8125 -39.765625 C 40.8125 -39.953125 40.988281 -40.046875 41.34375 -40.046875 C 41.695312 -40.046875 41.875 -39.953125 41.875 -39.765625 L 41.78125 -31.140625 L 41.875 -26.546875 C 42 -24.367188 42.0625 -22.640625 42.0625 -21.359375 C 42.0625 -21.234375 41.867188 -21.171875 41.484375 -21.171875 C 41.097656 -21.171875 40.90625 -21.234375 40.90625 -21.359375 C 40.90625 -23.984375 39.898438 -26.046875 37.890625 -27.546875 C 35.878906 -29.046875 32.988281 -29.796875 29.21875 -29.796875 L 21.359375 -29.796875 L 21.359375 -8.140625 C 21.359375 -6.285156 21.707031 -4.910156 22.40625 -4.015625 C 23.113281 -3.128906 24.238281 -2.6875 25.78125 -2.6875 L 28.9375 -2.6875 C 33.914062 -2.6875 37.90625 -3.707031 40.90625 -5.75 C 43.914062 -7.789062 46.117188 -10.953125 47.515625 -15.234375 Z M 47.515625 -15.234375 "/></g></g></g><g fill="#f8f6f0" fill-opacity="1"><g transform="translate(1069.42934, 737.34126)"><g><path d="M 40.90625 -60.9375 C 43.914062 -60.9375 46.96875 -60.695312 50.0625 -60.21875 C 53.15625 -59.738281 55.628906 -59.113281 57.484375 -58.34375 C 58.054688 -58.15625 58.421875 -57.914062 58.578125 -57.625 C 58.742188 -57.34375 58.859375 -56.847656 58.921875 -56.140625 L 60.171875 -42.828125 C 60.171875 -42.640625 60.007812 -42.507812 59.6875 -42.4375 C 59.375 -42.375 59.148438 -42.472656 59.015625 -42.734375 C 57.234375 -47.972656 54.679688 -51.976562 51.359375 -54.75 C 48.035156 -57.53125 44.039062 -58.921875 39.375 -58.921875 C 35.03125 -58.921875 31.148438 -57.753906 27.734375 -55.421875 C 24.316406 -53.097656 21.632812 -49.765625 19.6875 -45.421875 C 17.738281 -41.078125 16.765625 -36 16.765625 -30.1875 C 16.765625 -24.300781 17.769531 -19.140625 19.78125 -14.703125 C 21.789062 -10.265625 24.566406 -6.847656 28.109375 -4.453125 C 31.660156 -2.054688 35.738281 -0.859375 40.34375 -0.859375 C 44.75 -0.859375 48.453125 -2.054688 51.453125 -4.453125 C 54.453125 -6.847656 57.296875 -10.789062 59.984375 -16.28125 C 60.046875 -16.476562 60.234375 -16.546875 60.546875 -16.484375 C 60.867188 -16.421875 61.03125 -16.289062 61.03125 -16.09375 L 59.59375 -4.21875 C 59.46875 -3.445312 59.335938 -2.945312 59.203125 -2.71875 C 59.078125 -2.5 58.726562 -2.265625 58.15625 -2.015625 C 52.28125 0.0976562 46.34375 1.15625 40.34375 1.15625 C 33.5 1.15625 27.378906 -0.132812 21.984375 -2.71875 C 16.585938 -5.3125 12.351562 -8.9375 9.28125 -13.59375 C 6.21875 -18.257812 4.6875 -23.566406 4.6875 -29.515625 C 4.6875 -35.578125 6.269531 -40.988281 9.4375 -45.75 C 12.601562 -50.507812 16.945312 -54.226562 22.46875 -56.90625 C 27.988281 -59.59375 34.132812 -60.9375 40.90625 -60.9375 Z M 40.90625 -60.9375 "/></g></g></g><g fill="#f8f6f0" fill-opacity="1"><g transform="translate(1152.59483, 737.34126)"><g><path d="M 21.265625 -57.671875 C 13.671875 -57.671875 8.210938 -52.722656 4.890625 -42.828125 C 4.828125 -42.640625 4.632812 -42.5625 4.3125 -42.59375 C 3.988281 -42.625 3.828125 -42.734375 3.828125 -42.921875 C 4.085938 -45.472656 4.375 -48.773438 4.6875 -52.828125 C 5.007812 -56.890625 5.171875 -59.941406 5.171875 -61.984375 C 5.171875 -62.304688 5.347656 -62.46875 5.703125 -62.46875 C 6.054688 -62.46875 6.234375 -62.304688 6.234375 -61.984375 C 6.234375 -60.585938 8.050781 -59.890625 11.6875 -59.890625 C 17.175781 -59.691406 23.597656 -59.59375 30.953125 -59.59375 C 34.710938 -59.59375 38.703125 -59.65625 42.921875 -59.78125 L 49.4375 -59.890625 C 51.863281 -59.890625 53.632812 -60.046875 54.75 -60.359375 C 55.875 -60.679688 56.59375 -61.320312 56.90625 -62.28125 C 56.976562 -62.53125 57.1875 -62.65625 57.53125 -62.65625 C 57.882812 -62.65625 58.0625 -62.53125 58.0625 -62.28125 C 57.875 -60.363281 57.664062 -57.296875 57.4375 -53.078125 C 57.21875 -48.859375 57.109375 -45.472656 57.109375 -42.921875 C 57.109375 -42.734375 56.945312 -42.640625 56.625 -42.640625 C 56.300781 -42.640625 56.109375 -42.734375 56.046875 -42.921875 C 55.085938 -47.835938 53.296875 -51.523438 50.671875 -53.984375 C 48.054688 -56.441406 44.832031 -57.671875 41 -57.671875 C 39.15625 -57.671875 37.925781 -57.269531 37.3125 -56.46875 C 36.707031 -55.675781 36.40625 -54.164062 36.40625 -51.9375 L 36.40625 -7.765625 C 36.40625 -5.785156 36.597656 -4.347656 36.984375 -3.453125 C 37.367188 -2.554688 38.101562 -1.945312 39.1875 -1.625 C 40.269531 -1.3125 41.992188 -1.15625 44.359375 -1.15625 C 44.554688 -1.15625 44.65625 -0.960938 44.65625 -0.578125 C 44.65625 -0.191406 44.554688 0 44.359375 0 C 42.054688 0 40.238281 -0.03125 38.90625 -0.09375 L 30.953125 -0.1875 L 23.1875 -0.09375 C 21.84375 -0.03125 19.988281 0 17.625 0 C 17.4375 0 17.34375 -0.191406 17.34375 -0.578125 C 17.34375 -0.960938 17.4375 -1.15625 17.625 -1.15625 C 19.925781 -1.15625 21.632812 -1.3125 22.75 -1.625 C 23.875 -1.945312 24.640625 -2.570312 25.046875 -3.5 C 25.460938 -4.425781 25.671875 -5.847656 25.671875 -7.765625 L 25.671875 -52.125 C 25.671875 -54.289062 25.382812 -55.753906 24.8125 -56.515625 C 24.238281 -57.285156 23.054688 -57.671875 21.265625 -57.671875 Z M 21.265625 -57.671875 "/></g></g></g><g fill="#f8f6f0" fill-opacity="1"><g transform="translate(1232.119451, 737.34126)"><g><path d="M 21.75 -7.765625 C 21.75 -5.785156 21.90625 -4.347656 22.21875 -3.453125 C 22.539062 -2.554688 23.164062 -1.945312 24.09375 -1.625 C 25.019531 -1.3125 26.503906 -1.15625 28.546875 -1.15625 C 28.742188 -1.15625 28.84375 -0.960938 28.84375 -0.578125 C 28.84375 -0.191406 28.742188 0 28.546875 0 C 26.441406 0 24.78125 -0.03125 23.5625 -0.09375 L 16.28125 -0.1875 L 9.203125 -0.09375 C 7.921875 -0.03125 6.195312 0 4.03125 0 C 3.894531 0 3.828125 -0.191406 3.828125 -0.578125 C 3.828125 -0.960938 3.894531 -1.15625 4.03125 -1.15625 C 6.070312 -1.15625 7.570312 -1.3125 8.53125 -1.625 C 9.488281 -1.945312 10.140625 -2.570312 10.484375 -3.5 C 10.835938 -4.425781 11.015625 -5.847656 11.015625 -7.765625 L 11.015625 -52.125 C 11.015625 -54.039062 10.835938 -55.441406 10.484375 -56.328125 C 10.140625 -57.222656 9.488281 -57.847656 8.53125 -58.203125 C 7.570312 -58.554688 6.070312 -58.734375 4.03125 -58.734375 C 3.894531 -58.734375 3.828125 -58.925781 3.828125 -59.3125 C 3.828125 -59.695312 3.894531 -59.890625 4.03125 -59.890625 L 9.203125 -59.78125 C 12.140625 -59.65625 14.5 -59.59375 16.28125 -59.59375 C 18.269531 -59.59375 20.734375 -59.65625 23.671875 -59.78125 L 28.546875 -59.890625 C 28.742188 -59.890625 28.84375 -59.695312 28.84375 -59.3125 C 28.84375 -58.925781 28.742188 -58.734375 28.546875 -58.734375 C 26.566406 -58.734375 25.097656 -58.539062 24.140625 -58.15625 C 23.179688 -57.769531 22.539062 -57.113281 22.21875 -56.1875 C 21.90625 -55.269531 21.75 -53.851562 21.75 -51.9375 Z M 21.75 -7.765625 "/></g></g></g><g fill="#f8f6f0" fill-opacity="1"><g transform="translate(1282.804505, 737.34126)"><g><path d="M 63.71875 -59.890625 C 63.90625 -59.890625 64 -59.695312 64 -59.3125 C 64 -58.925781 63.90625 -58.734375 63.71875 -58.734375 C 61.414062 -58.734375 59.207031 -57.707031 57.09375 -55.65625 C 54.988281 -53.613281 53.300781 -50.867188 52.03125 -47.421875 L 34.296875 -0.09375 C 34.234375 0.15625 33.882812 0.28125 33.25 0.28125 C 32.601562 0.28125 32.25 0.15625 32.1875 -0.09375 L 7.765625 -51.9375 C 6.609375 -54.226562 5.457031 -55.929688 4.3125 -57.046875 C 3.164062 -58.171875 1.890625 -58.734375 0.484375 -58.734375 C 0.285156 -58.734375 0.1875 -58.925781 0.1875 -59.3125 C 0.1875 -59.695312 0.285156 -59.890625 0.484375 -59.890625 C 1.441406 -59.890625 2.109375 -59.851562 2.484375 -59.78125 C 3.765625 -59.65625 5.425781 -59.59375 7.46875 -59.59375 C 12.96875 -59.59375 17.632812 -59.65625 21.46875 -59.78125 C 22.488281 -59.851562 23.765625 -59.890625 25.296875 -59.890625 C 25.484375 -59.890625 25.578125 -59.695312 25.578125 -59.3125 C 25.578125 -58.925781 25.484375 -58.734375 25.296875 -58.734375 C 23.378906 -58.734375 21.894531 -58.332031 20.84375 -57.53125 C 19.789062 -56.738281 19.265625 -55.609375 19.265625 -54.140625 C 19.265625 -53.046875 19.613281 -51.734375 20.3125 -50.203125 L 36.890625 -14.84375 L 49.34375 -47.71875 C 49.976562 -49.5 50.296875 -51.03125 50.296875 -52.3125 C 50.296875 -54.289062 49.703125 -55.851562 48.515625 -57 C 47.335938 -58.15625 45.632812 -58.734375 43.40625 -58.734375 C 43.207031 -58.734375 43.109375 -58.925781 43.109375 -59.3125 C 43.109375 -59.695312 43.207031 -59.890625 43.40625 -59.890625 L 48.09375 -59.78125 C 50.78125 -59.65625 53.175781 -59.59375 55.28125 -59.59375 C 56.5 -59.59375 58 -59.65625 59.78125 -59.78125 Z M 63.71875 -59.890625 "/></g></g></g><g fill="#f8f6f0" fill-opacity="1"><g transform="translate(1363.957941, 737.34126)"><g><path d="M 47.515625 -15.234375 C 47.515625 -15.359375 47.644531 -15.421875 47.90625 -15.421875 C 48.09375 -15.421875 48.265625 -15.375 48.421875 -15.28125 C 48.585938 -15.1875 48.671875 -15.109375 48.671875 -15.046875 C 48.035156 -10.054688 47.71875 -5.519531 47.71875 -1.4375 C 47.71875 -0.925781 47.617188 -0.554688 47.421875 -0.328125 C 47.234375 -0.109375 46.851562 0 46.28125 0 L 3.921875 0 C 3.734375 0 3.640625 -0.191406 3.640625 -0.578125 C 3.640625 -0.960938 3.734375 -1.15625 3.921875 -1.15625 C 5.972656 -1.15625 7.457031 -1.3125 8.375 -1.625 C 9.300781 -1.945312 9.925781 -2.570312 10.25 -3.5 C 10.570312 -4.425781 10.734375 -5.847656 10.734375 -7.765625 L 10.734375 -52.125 C 10.734375 -54.039062 10.570312 -55.441406 10.25 -56.328125 C 9.925781 -57.222656 9.285156 -57.847656 8.328125 -58.203125 C 7.378906 -58.554688 5.910156 -58.734375 3.921875 -58.734375 C 3.734375 -58.734375 3.640625 -58.925781 3.640625 -59.3125 C 3.640625 -59.695312 3.734375 -59.890625 3.921875 -59.890625 L 44.546875 -59.890625 C 45.191406 -59.890625 45.515625 -59.597656 45.515625 -59.015625 L 45.703125 -46.28125 C 45.703125 -46.144531 45.523438 -46.046875 45.171875 -45.984375 C 44.828125 -45.921875 44.617188 -45.988281 44.546875 -46.1875 C 43.523438 -49.882812 41.800781 -52.628906 39.375 -54.421875 C 36.945312 -56.210938 33.753906 -57.109375 29.796875 -57.109375 L 26.921875 -57.109375 C 25.003906 -57.109375 23.597656 -56.691406 22.703125 -55.859375 C 21.804688 -55.023438 21.359375 -53.75 21.359375 -52.03125 L 21.359375 -32.484375 L 29.3125 -32.484375 C 33.019531 -32.484375 35.863281 -33.117188 37.84375 -34.390625 C 39.820312 -35.671875 40.8125 -37.460938 40.8125 -39.765625 C 40.8125 -39.953125 40.988281 -40.046875 41.34375 -40.046875 C 41.695312 -40.046875 41.875 -39.953125 41.875 -39.765625 L 41.78125 -31.140625 L 41.875 -26.546875 C 42 -24.367188 42.0625 -22.640625 42.0625 -21.359375 C 42.0625 -21.234375 41.867188 -21.171875 41.484375 -21.171875 C 41.097656 -21.171875 40.90625 -21.234375 40.90625 -21.359375 C 40.90625 -23.984375 39.898438 -26.046875 37.890625 -27.546875 C 35.878906 -29.046875 32.988281 -29.796875 29.21875 -29.796875 L 21.359375 -29.796875 L 21.359375 -8.140625 C 21.359375 -6.285156 21.707031 -4.910156 22.40625 -4.015625 C 23.113281 -3.128906 24.238281 -2.6875 25.78125 -2.6875 L 28.9375 -2.6875 C 33.914062 -2.6875 37.90625 -3.707031 40.90625 -5.75 C 43.914062 -7.789062 46.117188 -10.953125 47.515625 -15.234375 Z M 47.515625 -15.234375 "/></g></g></g><g mask="url(#8b7b4c163d)"><g transform="matrix(1, 0, 0, 1, 606, 466)"><g clip-path="url(#b38571de5a)"><g clip-path="url(#0b94b60c8a)"><path fill="#f8f6f0" d="M 895.183594 36.910156 C 894.21875 35.75 892.285156 35.558594 891.128906 36.523438 C 836.277344 80.75 809.625 59.699219 781.429688 37.296875 C 754.003906 15.472656 725.613281 -7.125 672.117188 32.273438 C 671.730469 32.46875 671.34375 32.660156 671.148438 32.855469 C 616.300781 77.082031 589.648438 56.03125 561.449219 33.625 C 532.675781 10.835938 502.933594 -12.917969 444.414062 34.398438 C 444.21875 34.59375 444.027344 34.785156 443.832031 35.171875 C 392.460938 73.992188 366.582031 53.519531 339.347656 31.695312 C 312.117188 9.871094 283.535156 -12.726562 230.035156 26.671875 C 229.648438 26.867188 229.261719 27.058594 228.878906 27.253906 C 174.027344 71.480469 147.375 50.429688 119.179688 28.027344 C 90.015625 4.65625 60.273438 -18.90625 1.945312 28.21875 C 0.789062 29.183594 0.59375 31.117188 1.5625 32.273438 C 2.527344 33.433594 4.457031 33.625 5.617188 32.660156 C 60.464844 -11.566406 87.117188 9.484375 115.316406 31.886719 C 131.925781 45.019531 148.726562 58.539062 171.324219 58.539062 C 186.195312 58.539062 203.578125 52.746094 224.820312 37.101562 C 225.207031 36.910156 225.59375 36.910156 225.980469 36.523438 C 280.828125 -7.703125 307.480469 13.347656 335.679688 35.75 C 352.289062 48.882812 369.089844 62.402344 391.6875 62.402344 C 408.296875 62.402344 427.996094 55.0625 452.71875 35.171875 C 452.910156 34.976562 453.105469 34.785156 453.296875 34.398438 C 504.671875 -4.421875 530.550781 16.050781 557.78125 37.683594 C 574.390625 50.816406 591.195312 64.335938 613.789062 64.335938 C 628.660156 64.335938 645.851562 58.539062 667.289062 42.898438 C 667.675781 42.703125 668.058594 42.511719 668.253906 42.316406 C 723.101562 -1.910156 749.753906 19.140625 777.953125 41.542969 C 794.5625 54.679688 811.363281 68.195312 833.960938 68.195312 C 850.570312 68.195312 870.269531 60.859375 894.992188 40.964844 C 895.957031 40 896.148438 38.261719 895.183594 36.910156 Z M 895.183594 36.910156 " fill-opacity="1" fill-rule="nonzero"/></g></g></g></g><g clip-path="url(#15ad292ede)"><path fill="#f8f6f0" d="M 1501.183594 605.992188 C 1500.21875 604.832031 1498.285156 604.640625 1497.128906 605.605469 C 1442.277344 649.832031 1415.625 628.78125 1387.429688 606.378906 C 1360.003906 584.554688 1331.613281 561.957031 1278.117188 601.355469 C 1277.730469 601.550781 1277.34375 601.742188 1277.148438 601.9375 C 1222.300781 646.164062 1195.648438 625.113281 1167.449219 602.710938 C 1138.675781 579.917969 1108.933594 556.164062 1050.414062 603.480469 C 1050.21875 603.675781 1050.027344 603.867188 1049.832031 604.253906 C 998.460938 643.074219 972.582031 622.601562 945.347656 600.777344 C 918.117188 578.953125 889.535156 556.355469 836.035156 595.757812 C 835.648438 595.949219 835.261719 596.140625 834.878906 596.335938 C 780.027344 640.5625 753.375 619.511719 725.179688 597.109375 C 696.015625 573.738281 666.273438 550.175781 607.945312 597.300781 C 606.789062 598.265625 606.59375 600.199219 607.5625 601.355469 C 608.527344 602.515625 610.457031 602.710938 611.617188 601.742188 C 666.464844 557.515625 693.117188 578.566406 721.316406 600.972656 C 737.925781 614.105469 754.726562 627.625 777.324219 627.625 C 792.195312 627.625 809.578125 621.828125 830.820312 606.183594 C 831.207031 605.992188 831.59375 605.992188 831.980469 605.605469 C 886.828125 561.378906 913.480469 582.429688 941.679688 604.832031 C 958.289062 617.964844 975.089844 631.484375 997.6875 631.484375 C 1014.296875 631.484375 1033.996094 624.148438 1058.71875 604.253906 C 1058.910156 604.0625 1059.105469 603.867188 1059.296875 603.480469 C 1110.671875 564.660156 1136.550781 585.132812 1163.78125 606.765625 C 1180.390625 619.898438 1197.195312 633.417969 1219.789062 633.417969 C 1234.660156 633.417969 1251.851562 627.625 1273.289062 611.980469 C 1273.675781 611.785156 1274.058594 611.59375 1274.253906 611.398438 C 1329.101562 567.171875 1355.753906 588.222656 1383.953125 610.628906 C 1400.5625 623.761719 1417.363281 637.28125 1439.960938 637.28125 C 1456.570312 637.28125 1476.269531 629.941406 1500.992188 610.046875 C 1501.957031 609.082031 1502.148438 607.34375 1501.183594 605.992188 Z M 1501.183594 605.992188 " fill-opacity="1" fill-rule="nonzero"/></g></svg>